<svg width="16" height="16" viewBox="0 0 16 16" fill="none" xmlns="http://www.w3.org/2000/svg">
<path d="M12.5524 10.781C13.0525 11.2811 13.3334 11.9594 13.3334 12.6667C13.3334 12.6667 13.6667 14 8.00011 14C2.3335 14 2.66678 12.6667 2.66678 12.6667C2.66678 11.9594 2.94773 11.2811 3.44783 10.781C3.94793 10.281 4.6262 10 5.33345 10H10.6668C11.374 10 12.0523 10.281 12.5524 10.781Z" fill="#009FE3" stroke="#009FE3" stroke-width="1.5" stroke-linecap="round" stroke-linejoin="round"/>
<path d="M7.99992 7.33333C9.47268 7.33333 10.6666 6.13943 10.6666 4.66667C10.6666 3.19391 9.47268 2 7.99992 2C6.52716 2 5.33325 3.19391 5.33325 4.66667C5.33325 6.13943 6.52716 7.33333 7.99992 7.33333Z" fill="#009FE3" stroke="#009FE3" stroke-width="1.5" stroke-linecap="round" stroke-linejoin="round"/>
</svg>
