<svg width="640" height="368" viewBox="0 0 640 368" fill="none" xmlns="http://www.w3.org/2000/svg">
<path d="M291.773 121.059C291.95 120.705 292.127 120.35 292.127 119.818L291.773 119.641L289.295 116.805L292.658 118.4C293.366 116.982 294.073 115.564 294.958 114.145L279.385 105.105L261.511 84.3636C261.334 84.5409 261.157 84.8954 260.98 85.0727L277.084 103.686L256.556 91.8091C256.025 92.6955 255.671 93.4045 255.14 94.2909L280.447 108.827L254.432 95.8863C254.078 96.7727 253.547 97.6591 253.193 98.3682L287.526 115.564L290.357 118.755L250.539 104.927C250.362 105.282 250.362 105.459 250.185 105.814L291.596 120.173L291.773 121.059ZM297.259 110.955L262.75 82.9455C262.573 83.1227 262.396 83.4773 262.219 83.6545L296.728 111.664C296.905 111.486 297.082 111.309 297.259 110.955ZM291.596 121.414L248.769 109.714C248.592 110.6 248.238 111.486 248.061 112.55L290.888 124.25C291.065 123.186 291.419 122.3 291.596 121.414ZM375.834 131.695H365.746L365.039 136.659L386.275 140.027L375.834 131.695ZM366.277 122.832L366.454 121.591L365.039 121.945L366.277 122.832ZM364.154 121.059L366.631 120.527L366.808 119.995L363.977 120.882L364.154 121.059ZM362.915 121.236L360.968 121.591L362.915 121.236ZM356.013 114.5L368.578 109.536L369.994 100.495L352.12 111.309L356.013 114.5ZM351.235 110.6L369.994 99.2545L372.117 85.9591L347.165 107.409L351.235 110.6ZM366.985 124.605L366.277 129.036H372.471L366.985 124.605ZM363.977 137.368L350.35 135.241L352.651 137.9L363.446 140.914L363.977 137.368ZM362.915 143.75L355.836 141.8L356.367 142.332L362.915 144.636V143.75ZM362.207 153.5L366.808 156.159H367.162L366.808 155.627L362.207 153.5ZM362.03 148.891L362.561 145.345L357.429 143.573L362.03 148.891ZM354.597 141.623L354.243 141.268L351.058 140.382L354.597 141.623ZM360.968 156.159L355.305 155.273L350.881 154.564L360.083 162.009L360.968 156.159ZM359.906 162.895L349.111 154.209L345.395 153.677L359.022 167.327L359.906 162.895ZM358.668 170.695L340.794 152.791L340.086 152.614L358.137 173.532L358.668 170.695ZM355.659 154.386L359.022 154.918L349.819 149.6L355.659 154.386ZM354.951 193.918L337.077 173.355L343.094 188.777L354.774 195.336L354.951 193.918ZM341.678 188.068L335.308 171.405L334.423 170.341L339.024 186.473L341.678 188.068ZM334.423 168.923L333.184 165.732L333.892 168.391L334.423 168.923ZM330.706 181.864L329.645 177.964L330.352 181.686L330.706 181.864ZM306.992 166.441L305.754 167.859L306.284 168.214L306.992 166.441ZM306.107 169.1L305.223 168.568L303.276 171.05V177.077L306.107 169.1ZM303.276 169.632L304.515 168.214L303.276 167.504V169.632ZM302.391 170.695V168.568L298.321 175.836L302.391 170.695ZM293.72 145.523L288.233 144.636L277.792 148.714L276.376 151.373L280.447 153.677L293.72 145.523ZM279.385 154.032L275.846 152.082L272.306 158.286L279.385 154.032ZM273.899 139.673L269.121 140.559L270.182 140.736L273.899 139.673ZM270.536 147.65L270.006 147.827L270.359 148.004L270.536 147.65ZM268.059 141.268L266.466 141.091L260.272 142.332L261.688 143.218L268.059 141.268ZM259.033 141.623L263.989 140.736L254.609 139.318L259.033 141.623ZM319.38 99.6091L319.203 85.7818L314.779 82.2364L311.947 87.3773L312.832 92.1636L319.38 99.6091ZM315.31 81.5273L319.38 84.7182L319.203 74.4364L315.31 81.5273ZM309.293 78.1591L309.116 77.6273L308.054 76.7409L308.762 79.0454L309.293 78.1591ZM303.984 87.3773L301.506 78.6909V81.1727L303.984 87.3773ZM303.63 88.6182L301.683 83.6545L301.86 91.9864L303.63 88.6182ZM300.621 78.5136V75.1455L299.029 69.2954L296.374 67.1682L300.621 78.5136ZM394.062 131.695H377.25L387.868 140.205L393.177 141.091C393.177 141.445 393 141.623 393 141.977L389.107 141.445L392.646 144.282C392.646 144.636 392.469 144.991 392.469 145.345L387.514 141.268L364.862 137.723L364.331 141.268L391.938 148.714C391.761 149.6 391.407 150.486 391.23 151.373L363.977 143.927L363.8 144.814L390.345 154.032C390.168 154.386 390.168 154.564 389.991 154.918L363.623 145.7L362.915 149.777L363.977 151.018L377.25 157.577L388.045 159.35C387.868 159.705 387.868 159.882 387.691 160.236L379.904 158.995L386.629 162.364C386.275 163.25 385.744 164.136 385.39 164.845L370.525 157.4L369.463 157.223L369.817 157.577L384.682 166.264C384.151 167.15 383.797 167.859 383.267 168.745L375.48 164.314L381.674 171.405C381.497 171.582 381.32 171.936 381.143 172.114L373.179 162.895L361.853 156.336L360.968 162.364L378.134 176.368C377.957 176.545 377.78 176.9 377.603 177.077L360.791 163.427L360.083 167.859L373.71 181.332C373.002 182.041 372.471 182.75 371.763 183.282L359.552 171.227L359.022 174.241L368.932 185.764C368.755 185.941 368.401 186.118 368.224 186.295L358.668 175.305L356.19 190.727L357.96 193.741C357.783 193.918 357.429 194.095 357.252 194.095L356.013 192.145L355.836 193.386L356.721 194.45C356.544 194.627 356.19 194.804 356.013 194.982L355.659 194.627L355.482 195.336C355.128 195.514 354.597 195.691 354.243 196.045L343.448 190.018L346.988 199.414C346.634 199.591 346.457 199.591 346.103 199.768L342.032 189.309L339.201 187.714L342.917 200.832C340.794 201.541 338.67 202.073 336.369 202.605L330.883 183.105L330.352 182.75L334.246 203.136C333.892 203.136 333.715 203.314 333.361 203.314L329.291 182.218L320.973 177.609L321.327 204.555C320.973 204.555 320.796 204.555 320.442 204.555L320.088 177.077L313.363 173.355L308.408 203.845C308.054 203.845 307.877 203.668 307.523 203.668L312.478 173L306.461 169.632L302.922 179.736L303.276 202.782C302.922 202.782 302.745 202.605 302.391 202.605L302.214 182.218L295.843 200.654C295.489 200.477 295.312 200.477 294.958 200.3L302.214 179.559V172.114L295.666 180.268L286.641 196.577C284.694 195.514 282.57 194.45 280.801 193.209L297.082 163.959L294.427 162.541L273.722 188.245C273.545 188.068 273.191 187.891 273.014 187.714L293.72 162.186L287.88 158.818L264.343 179.204C264.166 179.027 263.989 178.673 263.812 178.495L287.172 158.464L280.447 154.741L271.598 160.059L262.219 176.723C260.626 174.773 259.21 172.823 257.795 170.695L259.741 167.15L256.556 169.1C256.379 168.923 256.202 168.568 256.025 168.391L260.449 165.732L267.528 152.968L251.424 159.35C251.07 158.464 250.716 157.577 250.362 156.691L269.652 149.068L268.59 148.536L249.3 154.032C248.592 151.905 248.061 149.777 247.53 147.473L260.272 143.75L258.679 142.864L246.999 145.168C246.999 144.814 246.822 144.636 246.822 144.282L257.441 142.155L251.955 138.964L245.938 138.077C245.938 137.723 245.938 137.545 245.938 137.191L249.654 137.723L245.761 135.595C245.761 135.241 245.761 134.886 245.761 134.532L252.308 138.255L266.466 140.559L275.669 138.786L279.385 132.227H245.938C245.938 131.695 245.938 131.164 245.938 130.809C245.938 130.277 245.938 129.923 245.938 129.391H280.978L282.393 126.732L287.172 129.391H290.357C290.357 129.923 290.357 130.277 290.357 130.809C290.357 131.341 290.357 131.873 290.357 132.227H287.172L284.517 137.191L290.711 135.418C291.065 138.077 291.95 140.736 293.012 143.218L289.826 144.459L293.897 145.168C294.073 145.7 294.427 146.055 294.604 146.409L281.155 154.564L287.703 158.286L297.259 150.132C297.436 150.309 297.613 150.486 297.79 150.841L288.41 158.818L294.25 162.009L300.975 153.855C301.152 154.032 301.506 154.209 301.683 154.386L295.135 162.541L297.613 163.959L302.568 155.095C304.338 156.514 306.284 157.577 308.408 158.464L303.453 167.327L305.046 168.214L307.877 164.668L309.824 158.995C310.178 159.173 310.355 159.173 310.709 159.35L309.47 162.718L311.947 159.705C312.301 159.705 312.655 159.882 312.832 159.882L308.585 165.023L307.169 169.277L313.009 172.468L314.956 160.236C315.31 160.236 315.487 160.414 315.841 160.414L313.894 173L320.442 176.723L320.265 160.768C320.619 160.768 320.796 160.768 321.15 160.768L321.327 177.254L329.468 181.864L326.813 168.391L324.689 160.591C326.99 160.236 329.291 159.705 331.414 158.818L336.369 171.759L355.128 192.677L355.305 191.082L334.6 156.159C334.777 155.982 335.131 155.805 335.308 155.627L355.482 189.664L357.96 174.595L339.201 153.145C340.263 152.259 341.148 151.373 342.209 150.309L344.51 152.614L347.872 153.145L343.094 149.245C343.271 149.068 343.448 148.714 343.625 148.536L349.642 153.323L354.066 154.032L345.041 146.586C345.926 145.345 346.634 143.927 347.165 142.509L362.03 149.955L356.013 142.864L348.226 140.205C348.58 139.141 348.934 137.9 349.288 136.836L351.412 137.368L349.642 135.241C349.642 134.886 349.819 134.355 349.819 134L364.508 136.305L365.216 131.518H349.996C349.996 130.986 349.996 130.455 349.996 130.1C349.996 129.568 349.996 129.214 349.996 128.682H365.746L366.631 123.541L364.331 121.768L351.589 124.25L349.642 124.782C349.288 122.3 348.403 119.995 347.519 117.691L355.482 114.5L351.589 111.486L345.926 114.855C345.749 114.677 345.572 114.323 345.395 114.145L350.704 110.955L346.811 107.764L343.094 110.955C342.917 110.777 342.74 110.6 342.563 110.245L346.28 107.055L342.032 103.686L339.378 107.055C339.201 106.877 338.847 106.7 338.67 106.523L341.325 103.155L339.732 101.736L337.608 105.636C335.838 104.395 333.892 103.155 331.768 102.268L334.6 97.3046L332.653 95.7091L330.529 101.736C330.175 101.559 329.998 101.559 329.645 101.382L331.768 95L327.167 91.2772L325.751 100.318C325.397 100.318 325.22 100.141 324.866 100.141L326.459 90.5682L320.796 85.9591L320.973 99.9636C320.796 99.9636 320.796 99.9636 320.619 99.9636C320.265 99.9636 319.911 99.9636 319.734 99.9636L313.894 93.2273L314.602 97.1273L315.487 100.318C313.186 100.673 311.063 101.382 308.939 102.268L307.169 96.2409L304.161 101.736L305.577 104.041C305.4 104.218 305.046 104.395 304.869 104.573L303.807 102.623L302.568 104.927V106.168C302.214 106.345 302.037 106.523 301.683 106.877V106.523L301.506 106.877L301.683 107.055C301.506 107.232 301.329 107.409 300.975 107.586L300.444 107.055L299.737 106.7L300.798 107.764C300.09 108.473 299.383 109.005 298.852 109.714L290.534 101.382L264.519 80.9955C264.696 80.8182 264.873 80.4636 265.05 80.2864L282.747 95L266.466 78.6909C267.174 77.9818 267.882 77.2727 268.413 76.7409L294.958 103.332L295.312 102.623L270.89 74.4364C271.067 74.2591 271.421 74.0818 271.598 73.9045L295.843 101.914L299.029 96.4182L281.509 66.8136C281.686 66.6364 282.039 66.4591 282.216 66.2818L299.56 95.3545L300.798 93.2273L300.621 80.9955L294.958 66.1046L290.18 62.2045C290.534 62.0273 290.711 61.85 291.065 61.85L294.25 64.5091L293.012 61.1409C293.366 60.9637 293.543 60.9637 293.897 60.7864L295.666 65.5727L298.498 67.8773L296.197 59.9C298.321 59.1909 300.444 58.4818 302.745 57.95L307.523 75.1455L308.762 76.2091L305.046 57.4182C305.4 57.4182 305.577 57.2409 305.931 57.2409L309.824 76.9182L318.849 60.7864V56C319.203 56 319.38 56 319.734 56V59.3682L321.504 56.1773C323.981 56.1773 326.459 56.3546 328.937 56.7091L319.911 73.0182L320.088 85.4273L325.928 90.2137L331.237 56.8864C331.591 56.8864 331.768 57.0636 332.122 57.0636L326.636 90.7454L331.414 94.6455L343.448 59.9C343.802 60.0773 343.979 60.0773 344.333 60.2546L332.299 95.3545L334.423 96.95L353.005 63.8C354.951 64.8636 357.075 65.9273 358.845 67.1682L339.732 101.382L341.502 102.8L366.1 72.3091C366.277 72.4864 366.631 72.6636 366.808 72.8409L342.209 103.332L346.457 106.877L372.294 84.5409L373.179 78.8682C373.356 79.2227 373.71 79.4 373.887 79.7546L373.179 83.8318L375.657 81.7045C375.834 81.8818 376.011 82.2364 376.188 82.4136L373.002 85.25L371.056 98.7227L383.09 91.4545C383.266 91.6318 383.443 91.9863 383.62 92.1636L370.879 99.7864L369.463 109.005L388.399 101.382C388.753 102.268 389.107 103.155 389.46 104.041L368.932 112.195L390.168 106.168C390.876 108.295 391.584 110.423 392.115 112.727L367.87 119.641L367.693 120.35L392.646 115.386C392.646 115.741 392.823 115.918 392.823 116.273L367.516 121.236L367.162 123.364L373.887 128.859H394.062C394.062 129.391 394.062 129.745 394.062 130.277C394.062 130.809 394.062 131.341 394.062 131.695ZM290.711 125.668L246.822 118.577C246.822 118.223 246.999 118.045 246.999 117.691L290.888 124.782C290.711 125.136 290.711 125.491 290.711 125.668Z" fill="black"/>
<path d="M199.571 366.404C198.156 365.518 196.917 364.454 196.032 363.036C195.147 361.618 194.793 360.023 194.793 358.25C194.793 356.477 195.147 354.882 196.032 353.464C196.917 352.045 197.979 350.982 199.571 350.095C200.987 349.209 202.757 348.854 204.527 348.854C205.942 348.854 207.358 349.032 208.597 349.564C209.836 350.095 210.898 350.804 211.782 351.868L209.659 353.995C208.42 352.577 206.65 351.868 204.881 351.868C203.642 351.868 202.58 352.223 201.518 352.754C200.456 353.286 199.748 353.995 199.217 355.059C198.687 355.945 198.333 357.186 198.333 358.427C198.333 359.668 198.687 360.732 199.217 361.795C199.748 362.682 200.456 363.568 201.518 364.1C202.58 364.632 203.642 364.986 204.881 364.986C206.827 364.986 208.42 364.277 209.659 362.859L211.782 364.986C210.898 366.05 209.836 366.759 208.597 367.291C207.358 367.823 205.942 368 204.527 368C202.757 367.645 201.164 367.291 199.571 366.404Z" fill="black"/>
<path d="M226.825 363.923C227.71 363.391 228.594 362.682 229.125 361.618C229.656 360.554 230.01 359.491 230.01 358.25C230.01 357.009 229.656 355.945 229.125 354.882C228.594 353.818 227.887 353.109 226.825 352.577C225.94 352.045 224.701 351.691 223.639 351.691C222.4 351.691 221.339 352.045 220.454 352.577C219.569 353.109 218.684 353.818 218.153 354.882C217.622 355.945 217.268 357.009 217.268 358.25C217.268 359.491 217.622 360.554 218.153 361.618C218.684 362.682 219.392 363.391 220.454 363.923C221.339 364.454 222.577 364.809 223.639 364.809C224.878 364.632 225.94 364.454 226.825 363.923ZM218.684 366.404C217.268 365.518 216.03 364.454 215.145 363.036C214.26 361.618 213.906 360.023 213.906 358.25C213.906 356.477 214.26 354.882 215.145 353.464C216.03 352.045 217.091 350.982 218.684 350.095C220.1 349.209 221.87 348.854 223.639 348.854C225.409 348.854 227.179 349.209 228.594 350.095C230.01 350.982 231.249 352.045 232.134 353.464C233.019 354.882 233.373 356.477 233.373 358.25C233.373 360.023 233.019 361.618 232.134 363.036C231.249 364.454 230.187 365.518 228.594 366.404C227.179 367.291 225.409 367.645 223.639 367.645C221.87 367.645 220.1 367.291 218.684 366.404Z" fill="black"/>
<path d="M253.901 367.291V355.237L247.884 365.341H246.469L240.452 355.414V367.291H237.266V349.209H240.098L247.176 361.264L254.255 349.209H257.087V367.291H253.901Z" fill="black"/>
<path d="M272.837 358.25C273.545 357.541 273.899 356.655 273.899 355.591C273.899 354.35 273.545 353.464 272.837 352.932C272.129 352.223 270.89 352.046 269.474 352.046H265.581V359.314H269.474C271.067 359.314 272.129 358.959 272.837 358.25ZM273.722 349.918C274.96 350.45 275.845 351.159 276.376 352.223C277.084 353.109 277.261 354.35 277.261 355.768C277.261 357.009 276.907 358.25 276.376 359.137C275.668 360.2 274.784 360.909 273.722 361.441C272.483 361.973 271.244 362.15 269.651 362.15H265.581V367.468H262.219V349.209H269.651C271.244 349.209 272.66 349.387 273.722 349.918Z" fill="black"/>
<path d="M291.065 360.555L287.703 352.577L284.34 360.555H291.065ZM292.304 363.214H283.278L281.509 367.468H277.969L286.11 349.209H289.472L297.613 367.468H294.074L292.304 363.214Z" fill="black"/>
<path d="M316.726 349.209V367.291H313.894L303.984 355.059V367.291H300.621V349.209H303.276L313.363 361.441V349.209H316.726Z" fill="black"/>
<path d="M329.999 360.909V367.291H326.636V361.087L319.557 349.209H323.097L328.406 358.073L333.715 349.209H337.077L329.999 360.909Z" fill="black"/>
<path d="M359.906 358.073H363.092V365.341C362.207 366.05 361.145 366.582 359.906 367.114C358.667 367.468 357.429 367.645 356.013 367.645C354.243 367.645 352.474 367.291 351.058 366.404C349.642 365.518 348.403 364.454 347.518 363.036C346.634 361.618 346.28 360.023 346.28 358.25C346.28 356.477 346.634 354.882 347.518 353.464C348.403 352.045 349.465 350.982 351.058 350.095C352.474 349.209 354.243 348.854 356.013 348.854C357.606 348.854 358.844 349.032 360.083 349.564C361.322 350.095 362.384 350.805 363.269 351.691L361.145 353.818C359.729 352.4 358.137 351.691 356.19 351.691C354.951 351.691 353.712 352.045 352.827 352.577C351.766 353.109 351.058 353.818 350.527 354.882C349.996 355.768 349.642 357.009 349.642 358.25C349.642 359.491 349.996 360.554 350.527 361.441C351.058 362.327 351.943 363.214 352.827 363.745C353.889 364.277 354.951 364.632 356.19 364.632C357.606 364.632 358.844 364.277 359.906 363.745V358.073Z" fill="black"/>
<path d="M378.31 352.932C377.602 352.223 376.363 352.045 374.947 352.045H371.054V359.314H374.947C376.363 359.314 377.602 358.959 378.31 358.427C379.018 357.718 379.371 356.832 379.371 355.768C379.548 354.527 379.194 353.641 378.31 352.932ZM379.548 367.291L375.832 361.973C375.655 361.973 375.478 361.973 375.124 361.973H371.054V367.291H367.691V349.032H375.124C376.717 349.032 378.133 349.209 379.194 349.741C380.433 350.273 381.318 350.982 381.849 352.045C382.557 352.932 382.734 354.173 382.734 355.591C382.734 357.009 382.38 358.073 381.672 359.136C380.964 360.2 380.079 360.909 378.841 361.264L383.088 367.291H379.548Z" fill="black"/>
<path d="M398.663 363.923C399.547 363.391 400.432 362.682 400.963 361.618C401.494 360.554 401.848 359.491 401.848 358.25C401.848 357.009 401.494 355.945 400.963 354.882C400.432 353.818 399.724 353.109 398.663 352.577C397.778 352.045 396.539 351.691 395.477 351.691C394.238 351.691 393.176 352.045 392.292 352.577C391.407 353.109 390.522 353.818 389.991 354.882C389.46 355.945 389.106 357.009 389.106 358.25C389.106 359.491 389.46 360.554 389.991 361.618C390.522 362.682 391.23 363.391 392.292 363.923C393.176 364.454 394.415 364.809 395.477 364.809C396.716 364.632 397.778 364.454 398.663 363.923ZM390.522 366.404C389.106 365.518 387.867 364.454 386.982 363.036C386.098 361.618 385.744 360.023 385.744 358.25C385.744 356.477 386.098 354.882 386.982 353.464C387.867 352.045 388.929 350.982 390.522 350.095C391.938 349.209 393.707 348.854 395.477 348.854C397.247 348.854 399.016 349.209 400.432 350.095C401.848 350.982 403.087 352.045 403.972 353.464C404.856 354.882 405.21 356.477 405.21 358.25C405.21 360.023 404.856 361.618 403.972 363.036C403.087 364.454 402.025 365.518 400.432 366.404C399.016 367.291 397.247 367.645 395.477 367.645C393.707 367.645 391.938 367.291 390.522 366.404Z" fill="black"/>
<path d="M410.697 365.518C409.281 364.1 408.573 362.15 408.573 359.491V349.209H411.936V359.313C411.936 362.859 413.528 364.631 416.537 364.631C419.545 364.631 421.138 362.859 421.138 359.313V349.209H424.501V359.491C424.501 362.15 423.793 364.1 422.377 365.518C420.961 366.936 419.014 367.645 416.537 367.645C414.059 367.645 412.113 366.936 410.697 365.518Z" fill="black"/>
<path d="M439.897 358.25C440.605 357.541 440.959 356.654 440.959 355.591C440.959 354.35 440.605 353.463 439.897 352.931C439.189 352.222 437.95 352.045 436.534 352.045H432.641V359.313H436.534C438.127 359.313 439.189 358.959 439.897 358.25ZM440.959 349.918C442.197 350.45 443.082 351.159 443.613 352.222C444.321 353.109 444.498 354.35 444.498 355.768C444.498 357.009 444.144 358.25 443.613 359.136C442.905 360.2 442.02 360.909 440.959 361.441C439.72 361.972 438.481 362.15 436.888 362.15H432.818V367.468H429.456V349.209H436.888C438.304 349.209 439.72 349.386 440.959 349.918Z" fill="black"/>
<path d="M349.111 327.05H290.71V330.418H349.111V327.05Z" fill="black"/>
<path d="M188.599 273.336C188.599 275.818 187.891 277.591 186.121 278.831C184.529 280.072 182.228 280.604 179.573 280.604H170.725V266.068H179.573C182.228 266.068 184.352 266.6 186.121 267.841C187.714 269.081 188.599 270.854 188.599 273.336ZM190.369 262.7C188.776 261.636 187.006 260.927 184.883 260.572C182.936 260.218 180.812 259.863 178.512 259.863H164V308.259H170.725V286.986H179.573C181.166 286.986 183.113 286.809 184.883 286.454C186.829 286.1 188.422 285.391 190.015 284.327C191.607 283.263 193.023 281.845 193.908 280.072C194.97 278.3 195.501 275.995 195.501 273.336C195.501 270.854 194.97 268.727 194.085 266.954C193.2 265.004 191.961 263.586 190.369 262.7Z" fill="black"/>
<path d="M228.419 273.336C228.419 275.109 228.065 276.527 227.18 277.413C226.295 278.477 225.233 279.186 223.994 279.541C222.579 280.072 221.163 280.25 219.57 280.427C217.8 280.427 216.208 280.604 214.792 280.604H210.368V266.068H217.623C219.039 266.068 220.278 266.068 221.694 266.245C222.933 266.422 224.171 266.777 225.233 267.309C226.295 267.841 227.003 268.55 227.711 269.436C228.242 270.5 228.419 271.741 228.419 273.336ZM232.312 282.2C234.436 279.895 235.497 277.059 235.497 273.336C235.497 270.322 234.967 267.841 233.728 266.068C232.666 264.295 231.073 262.877 229.127 261.991C227.357 261.104 225.233 260.395 222.933 260.218C220.632 259.863 218.331 259.863 216.208 259.863H203.643V308.259H210.368V286.986H216.739L229.304 307.904L229.48 308.081H237.621L224.171 286.1C227.534 285.568 230.365 284.15 232.312 282.2Z" fill="black"/>
<path d="M285.932 283.972C285.932 286.631 285.401 289.113 284.517 291.418C283.632 293.722 282.393 295.85 280.8 297.445C279.207 299.218 277.261 300.459 275.137 301.522C273.013 302.586 270.536 302.941 267.881 302.941C265.227 302.941 262.749 302.409 260.626 301.522C258.502 300.459 256.555 299.218 254.962 297.445C253.37 295.672 252.131 293.722 251.246 291.418C250.361 289.113 250.007 286.631 250.007 283.972C250.007 281.313 250.361 278.831 251.246 276.527C252.131 274.222 253.37 272.095 254.962 270.5C256.555 268.727 258.502 267.486 260.626 266.422C262.749 265.359 265.227 265.004 267.881 265.004C270.536 265.004 273.013 265.536 275.137 266.422C277.261 267.486 279.207 268.727 280.8 270.5C282.393 272.272 283.632 274.222 284.517 276.527C285.401 278.831 285.932 281.313 285.932 283.972ZM285.755 265.713C283.455 263.409 280.8 261.636 277.792 260.395C274.783 259.154 271.421 258.445 267.704 258.445C263.988 258.445 260.626 259.154 257.617 260.395C254.609 261.636 251.954 263.409 249.653 265.713C247.353 268.018 245.583 270.677 244.344 273.691C243.105 276.704 242.398 280.25 242.398 283.795C242.398 287.34 243.105 290.886 244.344 293.9C245.583 296.913 247.353 299.75 249.653 301.877C251.954 304.181 254.609 305.954 257.617 307.195C260.626 308.436 263.988 309.145 267.704 309.145C271.421 309.145 274.783 308.436 277.792 307.195C280.8 305.954 283.455 304.181 285.755 301.877C288.056 299.572 289.826 296.913 291.064 293.9C292.303 290.886 293.011 287.34 293.011 283.795C293.011 280.25 292.303 276.704 291.064 273.691C289.826 270.677 288.056 268.018 285.755 265.713Z" fill="black"/>
<path d="M296.551 266.068H311.948V308.082H318.673V266.068H334.246V259.686H296.551V266.068Z" fill="black"/>
<path d="M347.695 286.1H369.994V279.718H347.695V266.068H371.586V259.686H340.97V308.082H372.825V301.877H347.695V286.1Z" fill="black"/>
<path d="M416.36 296.559C414.767 298.686 412.82 300.282 410.696 301.345C408.573 302.409 406.095 302.941 403.264 302.941C400.786 302.941 398.309 302.409 396.185 301.523C394.061 300.459 392.292 299.218 390.699 297.445C389.106 295.673 388.044 293.723 387.159 291.418C386.275 289.114 385.921 286.632 385.921 283.973C385.921 281.491 386.275 279.009 387.159 276.704C388.044 274.4 389.283 272.273 390.699 270.5C392.292 268.727 394.061 267.309 396.185 266.245C398.309 265.182 400.609 264.65 403.087 264.65C405.21 264.65 407.334 265.182 409.458 266.068C411.404 266.954 413.174 268.373 414.59 270.145L414.944 270.5L420.607 266.245L420.253 265.714C418.129 263.054 415.652 261.104 412.643 259.864C409.635 258.623 406.449 258.091 403.264 258.091C399.724 258.091 396.362 258.8 393.353 260.041C390.345 261.282 387.867 263.232 385.567 265.359C383.443 267.664 381.673 270.323 380.434 273.336C379.196 276.35 378.665 279.718 378.665 283.264C378.665 286.986 379.373 290.354 380.611 293.368C381.85 296.382 383.62 299.218 385.744 301.345C387.867 303.65 390.522 305.423 393.53 306.664C396.539 307.904 399.724 308.614 403.264 308.614C407.157 308.614 410.519 307.904 413.705 306.486C416.713 305.068 419.368 302.941 421.669 299.927L422.023 299.573L417.067 295.318L416.36 296.559Z" fill="black"/>
<path d="M468.744 283.973C468.744 286.632 468.213 289.114 467.328 291.418C466.444 293.723 465.205 295.85 463.612 297.445C462.019 299.218 460.073 300.459 457.949 301.523C455.825 302.586 453.348 302.941 450.693 302.941C448.039 302.941 445.561 302.409 443.437 301.523C441.314 300.459 439.367 299.218 437.774 297.445C436.182 295.673 434.943 293.723 434.058 291.418C433.173 289.114 432.819 286.632 432.819 283.973C432.819 281.314 433.35 278.832 434.058 276.527C434.943 274.223 436.182 272.095 437.774 270.5C439.367 268.727 441.314 267.486 443.437 266.423C445.561 265.359 448.039 265.005 450.693 265.005C453.348 265.005 455.825 265.536 457.949 266.423C460.073 267.486 462.019 268.727 463.612 270.5C465.205 272.273 466.444 274.223 467.328 276.527C468.39 278.832 468.744 281.314 468.744 283.973ZM474.053 273.868C472.815 270.855 471.045 268.018 468.744 265.891C466.444 263.586 463.789 261.814 460.781 260.573C457.772 259.332 454.41 258.623 450.693 258.623C446.977 258.623 443.614 259.332 440.606 260.573C437.597 261.814 434.943 263.586 432.642 265.891C430.342 268.195 428.572 270.855 427.333 273.868C426.094 276.882 425.386 280.427 425.386 283.973C425.386 287.518 426.094 291.064 427.333 294.077C428.572 297.091 430.342 299.927 432.642 302.055C434.943 304.359 437.597 306.132 440.606 307.373C443.614 308.614 446.977 309.323 450.693 309.323C454.41 309.323 457.772 308.614 460.781 307.373C463.789 306.132 466.444 304.359 468.744 302.055C471.045 299.75 472.815 297.091 474.053 294.077C475.292 291.064 476 287.518 476 283.973C475.823 280.25 475.292 276.882 474.053 273.868Z" fill="black"/>
<path d="M282.57 7.57812H285.797C287.312 7.57812 288.409 7.80469 289.086 8.25781C289.763 8.71094 290.102 9.42708 290.102 10.4062C290.102 11.0833 289.911 11.6432 289.531 12.0859C289.156 12.5234 288.607 12.8073 287.883 12.9375V13.0156C289.617 13.3125 290.484 14.224 290.484 15.75C290.484 16.7708 290.138 17.5677 289.445 18.1406C288.758 18.7135 287.794 19 286.555 19H282.57V7.57812ZM283.898 12.4688H286.086C287.023 12.4688 287.698 12.3229 288.109 12.0312C288.521 11.7344 288.727 11.237 288.727 10.5391C288.727 9.89844 288.497 9.4375 288.039 9.15625C287.581 8.86979 286.852 8.72656 285.852 8.72656H283.898V12.4688ZM283.898 13.5938V17.8672H286.281C287.203 17.8672 287.896 17.6901 288.359 17.3359C288.828 16.9766 289.062 16.4167 289.062 15.6562C289.062 14.9479 288.823 14.4271 288.344 14.0938C287.87 13.7604 287.146 13.5938 286.172 13.5938H283.898ZM300.547 19H299.039L295.969 13.9766L292.844 19H291.438L295.234 13.0312L291.695 7.57812H293.164L296 12.1016L298.859 7.57812H300.273L296.734 12.9844L300.547 19ZM312.094 13.2734C312.094 15.1016 311.63 16.5391 310.703 17.5859C309.781 18.6328 308.497 19.1562 306.852 19.1562C305.169 19.1562 303.87 18.6432 302.953 17.6172C302.042 16.5859 301.586 15.1328 301.586 13.2578C301.586 11.3984 302.044 9.95833 302.961 8.9375C303.878 7.91146 305.18 7.39844 306.867 7.39844C308.508 7.39844 309.789 7.91927 310.711 8.96094C311.633 10.0026 312.094 11.4401 312.094 13.2734ZM302.992 13.2734C302.992 14.8203 303.32 15.9948 303.977 16.7969C304.638 17.5938 305.596 17.9922 306.852 17.9922C308.117 17.9922 309.073 17.5938 309.719 16.7969C310.365 16 310.688 14.8255 310.688 13.2734C310.688 11.737 310.365 10.5729 309.719 9.78125C309.078 8.98438 308.128 8.58594 306.867 8.58594C305.602 8.58594 304.638 8.98698 303.977 9.78906C303.32 10.5859 302.992 11.7474 302.992 13.2734ZM323.656 21.9766H322.391V19H314.453V21.9766H313.188V17.7969H314.07C314.872 16.4479 315.557 14.8073 316.125 12.875C316.698 10.9427 317.016 9.17708 317.078 7.57812H322.211V17.7969H323.656V21.9766ZM320.883 17.7969V8.77344H318.281C318.188 10.0339 317.872 11.5495 317.336 13.3203C316.799 15.0859 316.174 16.5781 315.461 17.7969H320.883ZM325.602 7.57812H326.844V13.9297C326.844 15.1016 326.807 16.1615 326.734 17.1094H326.797L333.203 7.57812H334.656V19H333.406V12.7109C333.406 11.6641 333.451 10.5651 333.539 9.41406H333.469L327.055 19H325.602V7.57812ZM341.305 19H339.977V8.75781H336.359V7.57812H344.922V8.75781H341.305V19ZM350.805 7.57812H354.031C355.547 7.57812 356.643 7.80469 357.32 8.25781C357.997 8.71094 358.336 9.42708 358.336 10.4062C358.336 11.0833 358.146 11.6432 357.766 12.0859C357.391 12.5234 356.841 12.8073 356.117 12.9375V13.0156C357.852 13.3125 358.719 14.224 358.719 15.75C358.719 16.7708 358.372 17.5677 357.68 18.1406C356.992 18.7135 356.029 19 354.789 19H350.805V7.57812ZM352.133 12.4688H354.32C355.258 12.4688 355.932 12.3229 356.344 12.0312C356.755 11.7344 356.961 11.237 356.961 10.5391C356.961 9.89844 356.732 9.4375 356.273 9.15625C355.815 8.86979 355.086 8.72656 354.086 8.72656H352.133V12.4688ZM352.133 13.5938V17.8672H354.516C355.438 17.8672 356.13 17.6901 356.594 17.3359C357.062 16.9766 357.297 16.4167 357.297 15.6562C357.297 14.9479 357.057 14.4271 356.578 14.0938C356.104 13.7604 355.38 13.5938 354.406 13.5938H352.133Z" fill="#0C131D"/>
</svg>
