<svg width="720" height="134" viewBox="0 0 720 134" fill="none" xmlns="http://www.w3.org/2000/svg">
<path d="M1.57031 7.57812H4.79688C6.3125 7.57812 7.40885 7.80469 8.08594 8.25781C8.76302 8.71094 9.10156 9.42708 9.10156 10.4062C9.10156 11.0833 8.91146 11.6432 8.53125 12.0859C8.15625 12.5234 7.60677 12.8073 6.88281 12.9375V13.0156C8.61719 13.3125 9.48438 14.224 9.48438 15.75C9.48438 16.7708 9.13802 17.5677 8.44531 18.1406C7.75781 18.7135 6.79427 19 5.55469 19H1.57031V7.57812ZM2.89844 12.4688H5.08594C6.02344 12.4688 6.69792 12.3229 7.10938 12.0312C7.52083 11.7344 7.72656 11.237 7.72656 10.5391C7.72656 9.89844 7.4974 9.4375 7.03906 9.15625C6.58073 8.86979 5.85156 8.72656 4.85156 8.72656H2.89844V12.4688ZM2.89844 13.5938V17.8672H5.28125C6.20312 17.8672 6.89583 17.6901 7.35938 17.3359C7.82812 16.9766 8.0625 16.4167 8.0625 15.6562C8.0625 14.9479 7.82292 14.4271 7.34375 14.0938C6.86979 13.7604 6.14583 13.5938 5.17188 13.5938H2.89844ZM19.5469 19H18.0391L14.9688 13.9766L11.8438 19H10.4375L14.2344 13.0312L10.6953 7.57812H12.1641L15 12.1016L17.8594 7.57812H19.2734L15.7344 12.9844L19.5469 19ZM31.0938 13.2734C31.0938 15.1016 30.6302 16.5391 29.7031 17.5859C28.7812 18.6328 27.4974 19.1562 25.8516 19.1562C24.1693 19.1562 22.8698 18.6432 21.9531 17.6172C21.0417 16.5859 20.5859 15.1328 20.5859 13.2578C20.5859 11.3984 21.0443 9.95833 21.9609 8.9375C22.8776 7.91146 24.1797 7.39844 25.8672 7.39844C27.5078 7.39844 28.7891 7.91927 29.7109 8.96094C30.6328 10.0026 31.0938 11.4401 31.0938 13.2734ZM21.9922 13.2734C21.9922 14.8203 22.3203 15.9948 22.9766 16.7969C23.638 17.5938 24.5964 17.9922 25.8516 17.9922C27.1172 17.9922 28.0729 17.5938 28.7188 16.7969C29.3646 16 29.6875 14.8255 29.6875 13.2734C29.6875 11.737 29.3646 10.5729 28.7188 9.78125C28.0781 8.98438 27.1276 8.58594 25.8672 8.58594C24.6016 8.58594 23.638 8.98698 22.9766 9.78906C22.3203 10.5859 21.9922 11.7474 21.9922 13.2734ZM42.6562 21.9766H41.3906V19H33.4531V21.9766H32.1875V17.7969H33.0703C33.8724 16.4479 34.5573 14.8073 35.125 12.875C35.6979 10.9427 36.0156 9.17708 36.0781 7.57812H41.2109V17.7969H42.6562V21.9766ZM39.8828 17.7969V8.77344H37.2812C37.1875 10.0339 36.8724 11.5495 36.3359 13.3203C35.7995 15.0859 35.1745 16.5781 34.4609 17.7969H39.8828ZM44.6016 7.57812H45.8438V13.9297C45.8438 15.1016 45.8073 16.1615 45.7344 17.1094H45.7969L52.2031 7.57812H53.6562V19H52.4062V12.7109C52.4062 11.6641 52.4505 10.5651 52.5391 9.41406H52.4688L46.0547 19H44.6016V7.57812ZM60.3047 19H58.9766V8.75781H55.3594V7.57812H63.9219V8.75781H60.3047V19ZM69.8047 7.57812H73.0312C74.5469 7.57812 75.6432 7.80469 76.3203 8.25781C76.9974 8.71094 77.3359 9.42708 77.3359 10.4062C77.3359 11.0833 77.1458 11.6432 76.7656 12.0859C76.3906 12.5234 75.8411 12.8073 75.1172 12.9375V13.0156C76.8516 13.3125 77.7188 14.224 77.7188 15.75C77.7188 16.7708 77.3724 17.5677 76.6797 18.1406C75.9922 18.7135 75.0286 19 73.7891 19H69.8047V7.57812ZM71.1328 12.4688H73.3203C74.2578 12.4688 74.9323 12.3229 75.3438 12.0312C75.7552 11.7344 75.9609 11.237 75.9609 10.5391C75.9609 9.89844 75.7318 9.4375 75.2734 9.15625C74.8151 8.86979 74.0859 8.72656 73.0859 8.72656H71.1328V12.4688ZM71.1328 13.5938V17.8672H73.5156C74.4375 17.8672 75.1302 17.6901 75.5938 17.3359C76.0625 16.9766 76.2969 16.4167 76.2969 15.6562C76.2969 14.9479 76.0573 14.4271 75.5781 14.0938C75.1042 13.7604 74.3802 13.5938 73.4062 13.5938H71.1328Z" fill="#0C131D"/>
<path d="M158.329 78.542C158.419 79.6381 158.232 80.7392 157.783 81.7427C157.335 82.7462 156.641 83.6194 155.766 84.2808C153.751 85.6253 151.363 86.2921 148.946 86.1851H139.64V70.8989H148.972C151.386 70.7843 153.774 71.4421 155.791 72.7775C156.669 73.4429 157.364 74.3205 157.812 75.3285C158.26 76.3365 158.447 77.442 158.355 78.542H158.329ZM160.226 67.2704C158.488 66.1458 156.559 65.3519 154.535 64.9286C152.353 64.4604 150.127 64.2275 147.895 64.2338H132.514V115.188H139.538V92.8245H148.869C150.742 92.818 152.608 92.6022 154.432 92.1812C156.371 91.7552 158.22 90.9885 159.893 89.9166C161.629 88.8107 163.065 87.2898 164.072 85.4903C165.219 83.3327 165.776 80.9087 165.687 78.4648C165.756 76.1171 165.236 73.7897 164.174 71.6967C163.235 69.8978 161.848 68.3731 160.149 67.2704" fill="black"/>
<path d="M200.244 78.5418C200.343 80.0981 199.889 81.6392 198.962 82.8909C198.054 83.9398 196.887 84.7298 195.578 85.1813C194.055 85.696 192.467 85.9906 190.861 86.0563C189.092 86.0563 187.4 86.1849 185.888 86.1849H181.222V70.8988H188.913C190.318 70.8939 191.722 70.9799 193.117 71.1561C194.384 71.3008 195.616 71.6666 196.757 72.237C197.805 72.7615 198.691 73.5621 199.321 74.553C200.024 75.7596 200.363 77.1455 200.295 78.5418H200.244ZM204.32 87.7805C206.604 85.2647 207.803 81.9427 207.653 78.5418C207.789 75.8471 207.157 73.1692 205.832 70.8216C204.669 68.9747 203.018 67.4872 201.064 66.5239C199.014 65.5308 196.813 64.8872 194.553 64.6196C192.188 64.3321 189.808 64.186 187.426 64.1821H174.326V115.136H181.35V92.8244H187.964L201.192 114.904L201.372 115.187H209.883L195.809 92.0266C199.055 91.55 202.064 90.0442 204.397 87.729" fill="black"/>
<path d="M260.515 89.7362C260.523 92.3748 260.045 94.9922 259.105 97.4564C258.225 99.8147 256.902 101.981 255.208 103.839C253.531 105.678 251.488 107.142 249.209 108.136C246.779 109.18 244.162 109.718 241.519 109.718C238.875 109.718 236.259 109.18 233.828 108.136C231.544 107.139 229.493 105.675 227.803 103.839C226.104 101.986 224.78 99.8178 223.907 97.4564C222.985 94.9879 222.516 92.3723 222.522 89.7362C222.504 87.0487 222.973 84.3802 223.907 81.8615C224.799 79.49 226.139 77.3141 227.855 75.4536C229.565 73.641 231.611 72.1811 233.879 71.156C237.437 69.5518 241.406 69.1036 245.23 69.8742C249.054 70.6447 252.543 72.5954 255.208 75.4536C256.902 77.3109 258.225 79.4775 259.105 81.8357C260.06 84.3495 260.538 87.0203 260.515 89.7104V89.7362ZM260.515 70.5641C258.129 68.1667 255.298 66.2609 252.183 64.9541C245.377 62.2767 237.814 62.2767 231.008 64.9541C227.881 66.252 225.04 68.1587 222.651 70.5641C220.275 72.9888 218.409 75.868 217.164 79.0307C215.83 82.4304 215.159 86.0563 215.19 89.7104C215.162 93.3476 215.832 96.9561 217.164 100.339C218.392 103.51 220.254 106.394 222.635 108.815C225.016 111.236 227.865 113.142 231.008 114.415C237.808 117.126 245.383 117.126 252.183 114.415C255.273 113.135 258.085 111.265 260.464 108.908C262.856 106.482 264.732 103.593 265.975 100.416C267.308 97.0333 267.978 93.4248 267.949 89.7876C267.981 86.1335 267.31 82.5076 265.975 79.1079C264.731 75.9387 262.856 73.0578 260.464 70.6413" fill="black"/>
<path d="M271.691 70.8986H287.995V115.187H295.02V70.8986H311.324V64.2334H271.691V70.8986Z" fill="black"/>
<path d="M325.399 91.9492H348.882V85.3098H325.399V70.8728H350.574V64.2334H318.375V115.187H351.83V108.522H325.399V91.9492Z" fill="black"/>
<path d="M397.512 103.067C395.904 105.162 393.856 106.875 391.513 108.085C389.062 109.276 386.365 109.866 383.643 109.81C381.088 109.851 378.555 109.314 376.234 108.24C374.056 107.224 372.104 105.781 370.492 103.994C368.844 102.14 367.573 99.9804 366.749 97.6374C365.832 95.106 365.372 92.4306 365.39 89.7369C365.381 87.1028 365.841 84.4881 366.749 82.0167C367.594 79.6491 368.882 77.4654 370.543 75.5831C372.155 73.735 374.127 72.2375 376.337 71.1825C378.615 70.0826 381.116 69.5277 383.643 69.5613C385.928 69.5593 388.186 70.06 390.257 71.0281C392.369 72.0313 394.195 73.5538 395.564 75.4544L395.897 75.9176L401.896 71.5171L401.563 71.0281C399.496 68.2882 396.721 66.1698 393.539 64.9034C390.389 63.6506 387.031 63.013 383.643 63.0248C378.494 62.9549 373.448 64.4785 369.191 67.3884C364.935 70.2983 361.674 74.4534 359.853 79.2888C358.575 82.6396 357.932 86.2005 357.956 89.7884C357.921 93.4429 358.591 97.0695 359.93 100.468C361.179 103.603 363.015 106.468 365.339 108.909C367.651 111.294 370.414 113.193 373.466 114.493C376.708 115.871 380.199 116.563 383.72 116.526C387.455 116.59 391.161 115.853 394.59 114.365C397.903 112.857 400.767 110.506 402.896 107.545L403.229 107.108L397.948 102.656L397.512 103.067Z" fill="black"/>
<path d="M452.656 89.737C452.66 92.373 452.191 94.9882 451.272 97.4573C450.379 99.8151 449.048 101.981 447.349 103.839C445.682 105.678 443.646 107.142 441.376 108.137C438.944 109.176 436.328 109.712 433.685 109.712C431.042 109.712 428.427 109.176 425.995 108.137C423.72 107.137 421.678 105.673 419.996 103.839C418.288 101.988 416.956 99.8199 416.073 97.4573C414.227 92.3888 414.227 86.8279 416.073 81.7594C416.978 79.4251 418.318 77.2853 420.021 75.4545C421.717 73.637 423.757 72.1761 426.02 71.1569C428.452 70.1178 431.068 69.5822 433.711 69.5822C436.354 69.5822 438.97 70.1178 441.402 71.1569C443.654 72.1705 445.677 73.6326 447.349 75.4545C449.018 77.3312 450.322 79.5045 451.195 81.8624C452.129 84.3811 452.598 87.0495 452.579 89.737H452.656ZM458.04 79.0573C456.789 75.8914 454.914 73.0117 452.528 70.5907C450.146 68.1881 447.314 66.2816 444.196 64.9807C437.39 62.3033 429.827 62.3033 423.021 64.9807C419.899 66.2743 417.066 68.1818 414.689 70.5907C412.302 73.0059 410.435 75.8877 409.203 79.0573C407.868 82.457 407.198 86.0829 407.229 89.737C407.201 93.3742 407.871 96.9827 409.203 100.365C410.428 103.53 412.282 106.41 414.654 108.831C417.025 111.251 419.864 113.16 422.995 114.442C429.795 117.153 437.37 117.153 444.171 114.442C447.319 113.176 450.186 111.295 452.605 108.909C454.997 106.483 456.873 103.594 458.117 100.417C459.449 97.0342 460.119 93.4257 460.091 89.7885C460.122 86.1344 459.451 82.5085 458.117 79.1088" fill="black"/>
<path d="M509.62 82.2742C508.103 81.4622 506.842 80.2412 505.979 78.7486C505.062 77.1927 504.6 75.409 504.646 73.6017C504.608 71.7954 505.07 70.0139 505.979 68.4549C506.89 67.0515 508.155 65.9151 509.645 65.1609C511.221 64.3138 512.985 63.88 514.772 63.8999C516.238 63.876 517.694 64.1473 519.054 64.6976C520.302 65.2431 521.414 66.0606 522.309 67.0909L520.028 69.2526C519.386 68.529 518.595 67.954 517.709 67.5674C516.824 67.1808 515.866 66.9919 514.901 67.0137C513.677 66.9916 512.468 67.284 511.388 67.863C510.389 68.4332 509.557 69.2589 508.979 70.2562C508.386 71.3161 508.085 72.5152 508.107 73.7304C508.078 74.9464 508.379 76.1475 508.979 77.2045C509.543 78.213 510.378 79.0423 511.388 79.5978C512.461 80.1969 513.673 80.4989 514.901 80.4728C515.868 80.4949 516.829 80.3035 517.715 79.9122C518.601 79.5209 519.39 78.9392 520.028 78.2081L522.309 80.3956C521.416 81.4326 520.292 82.2437 519.028 82.7631C517.512 83.3728 515.883 83.6491 514.251 83.5737C512.619 83.4982 511.022 83.0726 509.568 82.3256" fill="black"/>
<path d="M538.357 79.5456C539.368 78.9901 540.203 78.1609 540.767 77.1523C541.322 76.0836 541.612 74.8962 541.612 73.6911C541.612 72.4859 541.322 71.2985 540.767 70.2298C540.207 69.1915 539.374 68.3279 538.357 67.7336C537.306 67.1769 536.136 66.886 534.948 66.886C533.76 66.886 532.589 67.1769 531.538 67.7336C530.532 68.3068 529.699 69.1427 529.128 70.1526C528.574 71.2213 528.284 72.4087 528.284 73.6139C528.284 74.819 528.574 76.0064 529.128 77.0751C529.693 78.0836 530.528 78.9129 531.538 79.4684C532.584 80.0428 533.756 80.3438 534.948 80.3438C536.14 80.3438 537.312 80.0428 538.357 79.4684V79.5456ZM529.718 82.1962C528.194 81.3848 526.925 80.1642 526.052 78.6706C525.185 77.1274 524.729 75.3856 524.729 73.6139C524.729 71.8421 525.185 70.1003 526.052 68.5571C526.915 67.1247 528.146 65.9515 529.616 65.1601C531.235 64.331 533.027 63.8987 534.845 63.8987C536.663 63.8987 538.456 64.331 540.075 65.1601C541.599 65.9716 542.868 67.1922 543.741 68.6857C544.662 70.24 545.124 72.0249 545.074 73.8326C545.12 75.6398 544.658 77.4236 543.741 78.9794C542.868 80.473 541.599 81.6936 540.075 82.505C538.456 83.3342 536.663 83.7665 534.845 83.7665C533.027 83.7665 531.235 83.3342 529.616 82.505" fill="black"/>
<path d="M566.607 83.2773L566.581 70.5645L560.326 81.0898H558.762L552.507 70.7447V83.2773H549.149V64.1052H552.046L559.608 76.818L567.017 64.1052H569.914L569.94 83.2773H566.607Z" fill="black"/>
<path d="M586.553 73.7304C586.954 73.3871 587.269 72.9548 587.473 72.4679C587.678 71.9809 587.767 71.4527 587.732 70.9253C587.767 70.3941 587.678 69.8621 587.474 69.371C587.269 68.8799 586.954 68.443 586.553 68.0946C585.527 67.3782 584.288 67.0334 583.041 67.1167H578.914V74.8369H583.041C584.293 74.9255 585.536 74.5704 586.553 73.8333V73.7304ZM587.502 65.0322C588.661 65.513 589.645 66.3394 590.322 67.3997C590.99 68.4886 591.329 69.7495 591.296 71.0283C591.322 72.3062 590.984 73.565 590.322 74.6568C589.645 75.7171 588.661 76.5435 587.502 77.0243C586.148 77.5976 584.689 77.8782 583.22 77.8478H578.914V83.1748H575.401V64.1057H583.22C584.689 64.0754 586.148 64.356 587.502 64.9292" fill="black"/>
<path d="M605.701 76.0456L602.138 67.7334L598.575 76.1228L605.701 76.0456ZM606.881 78.8249H597.318L595.498 83.174H591.858L600.42 64.002H603.881L612.469 83.174H608.778L606.881 78.8249Z" fill="black"/>
<path d="M632.543 64.1052V83.2773H629.62L619.161 70.2814V83.2773H615.648V64.1052H618.545L629.03 77.0753V64.1052H632.543Z" fill="black"/>
<path d="M646.566 76.5091V83.2773H643.054V76.5606L635.568 64.1052H639.362L644.925 73.4468L650.539 64.1052H654L646.566 76.5091Z" fill="black"/>
<path d="M518.975 106.335H522.333V114.055C521.307 114.861 520.143 115.471 518.898 115.857C517.605 116.268 516.256 116.477 514.899 116.474C513.112 116.484 511.351 116.051 509.772 115.213C508.178 114.359 506.861 113.064 505.977 111.482C505.11 109.939 504.655 108.197 504.655 106.425C504.655 104.653 505.11 102.912 505.977 101.368C506.867 99.8788 508.143 98.6601 509.669 97.8428C511.295 96.9808 513.112 96.547 514.95 96.5818C516.43 96.5627 517.9 96.8247 519.283 97.3538C520.549 97.8571 521.675 98.6605 522.564 99.6956L520.334 101.883C519.672 101.188 518.876 100.635 517.994 100.259C517.113 99.8833 516.164 99.6915 515.206 99.6956C513.966 99.6715 512.74 99.9637 511.643 100.545C510.582 101.073 509.692 101.895 509.079 102.912C508.492 103.993 508.191 105.207 508.208 106.438C508.201 107.643 508.501 108.83 509.079 109.886C509.698 110.906 510.585 111.734 511.643 112.28C512.724 112.881 513.945 113.183 515.181 113.155C516.543 113.181 517.888 112.843 519.077 112.177L518.975 106.335Z" fill="black"/>
<path d="M538.355 100.956C537.347 100.219 536.112 99.8631 534.868 99.9523H530.741V107.673H534.868C536.121 107.74 537.357 107.356 538.355 106.592C538.759 106.245 539.077 105.809 539.286 105.318C539.495 104.827 539.589 104.294 539.559 103.761C539.589 103.232 539.495 102.703 539.286 102.216C539.077 101.729 538.758 101.298 538.355 100.956ZM539.636 116.113L535.791 110.503H530.664V116.113H527.126V96.9413H534.945C536.422 96.9135 537.888 97.1939 539.252 97.7648C540.407 98.2527 541.389 99.0775 542.072 100.132C542.733 101.245 543.083 102.517 543.083 103.812C543.083 105.108 542.733 106.38 542.072 107.492C541.334 108.557 540.286 109.366 539.072 109.808L543.482 116.113H539.636Z" fill="black"/>
<path d="M559.865 112.407C560.858 111.826 561.681 110.992 562.249 109.988C562.821 108.925 563.12 107.735 563.12 106.527C563.12 105.318 562.821 104.129 562.249 103.066C561.681 102.062 560.858 101.228 559.865 100.647C558.811 100.072 557.628 99.7794 556.429 99.7974C555.239 99.7791 554.064 100.072 553.02 100.647C552.015 101.213 551.189 102.051 550.636 103.066C550.063 104.129 549.764 105.318 549.764 106.527C549.764 107.735 550.063 108.925 550.636 109.988C551.189 111.003 552.015 111.841 553.02 112.407C554.064 112.982 555.239 113.275 556.429 113.256C557.628 113.275 558.811 112.982 559.865 112.407ZM551.174 115.109C549.651 114.26 548.391 113.004 547.534 111.481C546.667 109.938 546.211 108.196 546.211 106.424C546.211 104.652 546.667 102.91 547.534 101.367C548.42 99.92 549.677 98.738 551.174 97.9446C552.798 97.1152 554.594 96.6829 556.416 96.6829C558.239 96.6829 560.035 97.1152 561.659 97.9446C563.173 98.7698 564.439 99.9873 565.325 101.47C566.192 103.013 566.648 104.755 566.648 106.527C566.648 108.299 566.192 110.041 565.325 111.584C564.439 113.067 563.173 114.284 561.659 115.109C560.035 115.939 558.239 116.371 556.416 116.371C554.594 116.371 552.798 115.939 551.174 115.109Z" fill="black"/>
<path d="M572.349 114.056C571.576 113.188 570.983 112.175 570.605 111.074C570.226 109.974 570.07 108.81 570.144 107.648V96.8398H573.682V107.623C573.682 111.38 575.297 113.258 578.501 113.258C581.706 113.258 583.321 111.38 583.321 107.623V96.9428H586.782V107.751C586.833 108.901 586.658 110.05 586.267 111.132C585.875 112.214 585.275 113.207 584.5 114.056C582.777 115.487 580.61 116.27 578.373 116.27C576.136 116.27 573.97 115.487 572.246 114.056" fill="black"/>
<path d="M603.163 106.592C603.564 106.244 603.879 105.807 604.083 105.316C604.288 104.824 604.377 104.292 604.342 103.761C604.377 103.234 604.288 102.706 604.083 102.219C603.878 101.732 603.563 101.299 603.163 100.956C602.145 100.219 600.902 99.864 599.651 99.9526H595.523V107.673H599.651C600.898 107.756 602.137 107.411 603.163 106.695V106.592ZM604.111 97.8681C605.271 98.3489 606.255 99.1753 606.931 100.236C607.568 101.338 607.904 102.59 607.904 103.864C607.904 105.139 607.568 106.39 606.931 107.493C606.255 108.553 605.271 109.379 604.111 109.86C602.758 110.434 601.299 110.714 599.83 110.684H595.523V116.114H592.011V96.9417H599.702C601.171 96.9113 602.63 97.1919 603.983 97.7652" fill="black"/>
<path d="M484.189 58.9319H480.625V120.488H484.189V58.9319Z" fill="black"/>
<path d="M28.3535 82.3256C28.3535 82.094 28.5329 81.8624 28.6098 81.605H28.3791L26.8666 79.8551L28.8918 80.8845C29.2979 79.9978 29.7603 79.1382 30.2762 78.311L20.6883 72.6238L9.61351 59.7566L9.28024 60.1941L19.227 71.8003L6.40901 64.4145L5.53738 65.9329L21.1754 74.9913L5.12721 66.9108C4.87085 67.4512 4.58885 67.9659 4.35813 68.5063L25.636 79.1345L27.3793 81.1676L2.5636 72.5723C2.49245 72.7397 2.4325 72.9116 2.38415 73.087L28.0202 81.991L28.3535 82.3256ZM31.84 76.0722L10.4851 58.7273L10.2544 59.1648L31.5836 76.5096C31.6955 76.3576 31.8153 76.2116 31.9425 76.0722H31.84ZM28.1996 82.4543L1.82016 75.2229C1.64071 75.7891 1.48689 76.3552 1.33307 76.9471L27.8664 84.1785C27.9723 83.5944 28.1179 83.0184 28.3022 82.4543H28.1996ZM80.4459 88.9393H74.165L73.678 92.0017L86.778 94.0862L80.4459 88.9393ZM74.4983 83.4064L74.6265 82.5829L73.7292 82.7631L74.4983 83.4064ZM73.1652 82.3256L74.729 82.0168V81.6822L72.9601 82.1712L73.1652 82.3256ZM72.4474 82.4543L71.3707 82.7631L72.4474 82.4543ZM68.1149 78.2081L75.8057 75.12L76.703 69.5099L65.6539 76.2266L68.1149 78.2081ZM65.1924 75.8406L76.9081 68.8151L78.2412 60.5287L62.8596 73.859L65.1924 75.8406ZM74.8828 84.4358L74.3445 87.1636H78.1643L74.8828 84.4358ZM73.0627 92.4649L64.5772 91.101L65.9871 92.7222L72.7038 94.5751L73.0627 92.4649ZM72.4218 96.325L68.0637 95.1413L68.3457 95.4501L72.3449 96.8397L72.4218 96.325ZM72.0116 102.373L74.8316 104.02H75.0367L74.8059 103.762L72.0116 102.373ZM72.0116 99.5676L72.3705 97.4059L69.166 96.2993L72.0116 99.5676ZM67.3971 95.0898L67.2177 94.8582L65.2181 94.3178L67.3971 95.0898ZM71.2938 103.994L67.8073 103.428L65.0642 102.99L70.7298 107.597L71.2938 103.994ZM70.6273 108.214L63.9875 102.836L61.5265 102.45L69.9864 110.942L70.6273 108.214ZM69.8582 113.078L58.7578 101.987H58.3476L69.5506 114.854L69.8582 113.078ZM68.038 102.913L70.0889 103.248L64.3464 99.9278L68.038 102.913ZM67.5509 127.438L56.5018 114.571L60.0652 124.35L67.2946 128.441L67.5509 127.438ZM59.4243 123.809L55.4507 113.516L54.9124 112.898L57.758 122.934L59.4243 123.809ZM54.8611 111.92L54.1177 109.938L54.5791 111.585L54.8611 111.92ZM52.5795 119.975L51.8873 117.401L52.3488 119.717L52.5795 119.975ZM37.8901 110.402L37.1722 111.302L37.5055 111.508L37.8901 110.402ZM37.3261 112.023L36.8133 111.74L35.5828 113.258V116.938L37.3261 112.023ZM35.5828 112.383L36.3263 111.457L35.5572 111.045L35.5828 112.383ZM35.0445 113.052V111.688L32.4809 116.166L35.0445 113.052ZM29.6865 97.4059L26.2513 96.8655L19.791 99.4389L18.8938 101.034L21.4574 102.424L29.6865 97.4059ZM20.7395 102.759L18.5349 101.523L16.3558 105.409L20.7395 102.759ZM17.3812 93.8288L14.3818 94.4207H14.9971L17.3812 93.8288ZM15.3816 98.7955H15.0996H15.2791H15.3816ZM13.8691 94.8582L12.818 94.7295L8.92134 95.4758L9.8186 95.9905L13.8691 94.8582ZM8.30607 95.0641L11.3568 94.4722L5.48611 93.4685L8.30607 95.0641ZM45.504 69.021V60.4772L42.7353 58.2383L41.0177 61.3522L41.6073 64.3631L45.504 69.021ZM42.9404 57.7494L45.504 59.7566V53.426L42.9404 57.7494ZM39.2744 55.7421V55.4076L38.454 54.8671L38.8642 56.334L39.2744 55.7421ZM35.8904 61.3779L34.3523 55.948V57.4406L35.8904 61.3779ZM35.5828 62.1242L34.3779 59.0103V64.1572L35.5828 62.1242ZM33.8139 55.948V53.915L32.8141 50.2864L31.1734 48.9483L33.8139 55.948ZM91.6744 88.9393H81.42L87.9572 94.2663L91.2899 94.8067V95.3471L88.9058 94.9611L91.0335 96.711C91.0438 96.9168 91.0438 97.1229 91.0335 97.3287L87.906 94.7552L73.883 92.5164L73.5241 94.678L90.5721 99.3359C90.4183 99.9021 90.2645 100.468 90.085 101.034L73.2421 96.4537V96.9941L89.6492 102.707C89.5779 102.883 89.518 103.064 89.4698 103.248L72.7807 97.586L72.3705 100.159L73.0883 100.957L81.3175 105.075L88.0085 106.156L87.7521 106.67L82.9582 105.898L87.1625 108.008C86.9062 108.549 86.6241 109.063 86.3678 109.578L77.1645 104.946H76.4466L76.6517 105.178L85.8807 110.53C85.5987 111.045 85.3167 111.56 85.0091 112.049L80.1895 109.166L83.9836 113.541L83.676 114.03L78.7282 108.317L71.7809 104.251L71.1656 107.983L81.7533 116.629C81.6251 116.758 81.5226 116.912 81.3944 117.067L71.0118 108.626L70.576 111.483L78.959 119.898L77.7284 121.159L70.2171 113.644L69.9351 115.497L76.0877 122.651L75.6776 123.011L69.8069 116.218L68.2944 125.765L69.3711 127.592L68.884 127.875L68.1406 126.614V127.361L68.7302 128.03L68.2431 128.313L68.0124 128.055V128.467C67.7644 128.62 67.5076 128.757 67.2433 128.879L60.5523 125.122L62.7826 130.938L62.2699 131.118L59.7063 124.71L57.9374 123.706L60.219 131.813C58.9116 132.25 57.6554 132.636 56.1942 132.945L52.759 120.798L52.4513 120.618L55.0149 133.228H54.4766L51.913 120.155L46.7858 117.273L46.9652 134H46.1449V116.99L41.9918 114.648L38.9668 133.511H38.4284L41.4791 114.468L37.8131 112.409L35.6597 118.688L35.8135 132.996H35.2752L35.1214 120.361L31.1734 131.813L30.6607 131.632L35.0957 118.765V114.185L30.994 119.331L25.2259 129.11C23.9766 128.49 22.7614 127.803 21.5855 127.052L31.6861 109.038L30.0454 108.111L17.2274 124.041L16.8172 123.706L29.6353 107.854L25.9949 105.795L11.3824 118.405L11.0235 117.968L25.4822 105.512L21.3548 103.196L15.8174 106.336L10.0493 116.629C9.07184 115.431 8.16451 114.176 7.3319 112.872L8.58807 110.633L6.66537 111.817L6.38337 111.483L9.12643 109.836L13.5102 101.935L3.58904 105.872C3.35832 105.332 3.15323 104.766 2.92251 104.225L14.8689 99.4646L14.228 99.1043L2.33288 102.527C1.89707 101.189 1.51253 99.8506 1.20489 98.6154L9.10079 96.325L8.07535 95.7846L0.897261 97.1743C0.882743 96.9944 0.882743 96.8137 0.897261 96.6338L7.43445 95.3471L3.99922 93.4171L0.230724 92.6965C0.217366 92.508 0.217366 92.3188 0.230724 92.1303L2.53797 92.5164L0.153816 91.1782C0.142067 90.9553 0.142067 90.732 0.153816 90.5091L4.15304 92.7737L12.8693 94.1634L18.5349 93.0568L20.8165 88.9393H0C0 88.6305 0 88.3217 0 88.0129C0 87.7041 0 87.4467 0 87.1636H21.7394L22.6366 85.5424L25.5591 87.1636H27.4818C27.4818 87.4467 27.4818 87.7298 27.4818 88.0129C27.4818 88.2959 27.4818 88.6305 27.4818 88.9393H25.636L23.8415 91.9502L27.6869 90.8951C27.9369 92.5674 28.4201 94.1961 29.1225 95.7331L27.1486 96.5052L29.7122 96.9169C29.866 97.2 30.0454 97.4573 30.2249 97.7404L21.8675 102.887L25.8668 105.152L31.7887 100.005C31.8944 100.154 32.0146 100.292 32.1476 100.417L26.3795 105.409L29.9429 107.417L34.0703 102.27C34.2043 102.395 34.3502 102.507 34.5061 102.604L30.43 107.751L31.9681 108.626L35.0445 103.119C36.1708 103.95 37.3826 104.657 38.6591 105.229L35.6341 110.685L36.6083 111.225L38.3259 109.089L39.5564 105.538L40.0691 105.744L39.3513 107.828L40.8382 105.975L41.4278 106.13L38.8642 109.372L37.967 111.946L41.556 113.953L42.684 106.336H43.248L41.9918 114.056L46.0423 116.321V106.464H46.5807L46.7088 116.758L51.7079 119.589L50.0928 111.225L48.7085 106.336C50.1232 106.119 51.5082 105.739 52.8359 105.203L55.9122 113.232L67.6278 126.794L67.7817 125.868L54.9637 104.174L55.4251 103.891L67.9098 125.019L69.4224 115.677L57.7836 102.192C58.4255 101.647 59.0254 101.053 59.5781 100.417L61.0394 101.884L63.0903 102.192L60.1421 99.7992C60.2672 99.6647 60.3789 99.5181 60.4754 99.3617L64.0901 102.295L66.8075 102.733L61.1932 98.1779C61.7043 97.3524 62.1583 96.4925 62.5519 95.6045L71.7809 100.288L68.0124 96.042L63.1415 94.3435C63.4004 93.6658 63.6062 92.9689 63.7568 92.259L65.0386 92.5936L64.0901 91.2039C64.0901 90.9466 64.0901 90.715 64.0901 90.4576L73.1652 91.8987L73.6267 88.9393H64.0901C64.0901 88.6305 64.0901 88.3217 64.0901 88.0129C64.0901 87.7041 64.0901 87.4467 64.0901 87.1636H73.8061L74.3445 84.0241L72.9601 82.8917L65.0642 84.4615L63.885 84.7961C63.6281 83.2785 63.1802 81.7998 62.5519 80.3955L67.474 78.4397L65.1155 76.5354L61.6034 78.6199C61.5188 78.4599 61.4246 78.3052 61.3214 78.1566L64.6541 76.1494L62.2699 74.2193L59.937 76.2266C59.8313 76.0777 59.7111 75.9398 59.5781 75.8148L61.8341 73.859L59.2705 71.7488L57.6042 73.8333L57.1684 73.4987L58.8347 71.4143L57.8092 70.565L56.3993 72.8811C55.2597 72.0565 54.0297 71.3657 52.7333 70.8224L54.4253 67.7857L53.2204 66.8078L51.9386 70.5393L51.4259 70.3592L52.7846 66.4476L49.9903 64.2087L49.0674 69.8445H48.529L49.5032 63.8741L45.9398 60.9147V69.5614H45.1451L41.6842 65.4439L42.1456 67.8372L42.7096 69.8445C41.3271 70.0694 39.9761 70.4581 38.6848 71.0025L37.6337 67.2196L35.7366 70.6165L36.6083 72.0576L36.1468 72.3407L35.429 71.1569L34.6343 72.5723V73.3958L34.0703 73.8076V73.5502L33.9421 73.8076C33.7991 73.9203 33.6622 74.0405 33.5319 74.1678L33.3268 73.9105L32.8398 73.6531L33.5319 74.3222C33.0961 74.734 32.6603 75.1457 32.2758 75.5832L27.1486 70.4364L11.5619 57.4406L11.9208 57.0288L22.893 66.1902L12.818 56.1024L14.0742 54.8671L30.5325 71.3371L30.7632 70.951L15.6123 53.426L16.0482 53.0657L31.0452 70.4364L32.9679 66.988L22.1239 48.6394L22.5853 48.3564L33.3268 66.4476L34.019 65.1608V57.595L30.3787 48.2534L27.4306 45.8601L27.9945 45.6028L29.9685 47.2241L29.1738 45.1396L29.6865 44.9337L30.7632 47.9189L32.5578 49.36L31.1991 44.419C32.5172 43.9552 33.8611 43.5685 35.2239 43.261L38.2233 53.9407L39.018 54.5583L36.7364 42.9007H37.3004L39.6589 55.073L45.222 45.0881V42H45.7603V44.033L46.8883 42C48.4226 42.0337 49.9541 42.1454 51.4771 42.3345L45.8629 52.4738V60.1941L49.5288 63.1793L52.8359 42.5919H53.3742L50.0928 63.5653L53.0666 65.9843L60.501 44.419L61.0138 44.5992L53.528 66.3446L54.8098 67.3997L66.2691 46.8123C67.5253 47.4557 68.8327 48.1248 69.9351 48.871L58.1169 70.0761L59.2192 70.9768L74.4727 52.0878L74.9085 52.4224L59.5269 71.3371L62.0905 73.4987L78.0617 59.6794L78.6513 56.1281L79.1128 56.6171L78.7282 59.1905L80.2151 57.9038L80.5741 58.3155L78.8052 60.014L77.4464 68.4806L84.9065 63.9771C85.0098 64.1256 85.104 64.2803 85.1885 64.4403L77.3439 69.2011L76.421 74.9399L88.1367 70.3077L88.7776 71.9547L75.9596 77.1015L89.1108 73.3186C89.5467 74.6568 89.9312 75.892 90.2645 77.3589L75.3699 81.5021V81.8881L90.7516 78.8515C90.7394 79.0314 90.7394 79.212 90.7516 79.3919L75.0879 82.48L74.8572 83.7924L79.0102 87.1636H91.5463C91.5463 87.4467 91.5463 87.7298 91.5463 88.0129C91.5463 88.2959 91.5463 88.6305 91.5463 88.9393H91.6744ZM27.4562 85.1821L0.563993 80.833C0.551822 80.6531 0.551822 80.4725 0.563993 80.2926L27.6613 84.6417V85.1821" fill="black"/>
</svg>
