<svg width="195" height="85" viewBox="0 0 195 85" fill="none" xmlns="http://www.w3.org/2000/svg">
<g clip-path="url(#clip0_194_2219)">
<path d="M10.7727 33.1294C30.499 48.0568 53.46 49.148 74.9297 54.3741C63.2199 57.3225 10.3999 64.2706 10.7727 33.1294Z" fill="white"/>
<path d="M33.3611 64.0955C48.0689 65.7775 60.3833 61.893 74.6326 60.4463C59.7081 67.1641 48.0437 76.6702 33.3611 64.0955Z" fill="white"/>
<path d="M48.1902 78.9174C57.9853 76.2844 66.1983 70.4876 75.3232 64.8711C69.5641 72.1395 56.2117 86.8967 48.1902 78.9174Z" fill="white"/>
<path d="M61.2351 84.8245C65.9765 81.821 75.2728 70.3327 75.565 70.5529C75.8572 70.7732 72.5166 80.3393 68.9543 83.0675C67.86 83.8746 66.6085 84.4464 65.2794 84.7463C63.9504 85.0463 62.573 85.0678 61.2351 84.8095" fill="white"/>
<path d="M0 0.521484C0 0.521484 14.6574 12.2902 35.603 19.0831C46.421 22.5871 98.7976 40.508 103.74 65.6823C104.345 68.7508 96.9232 54.3941 79.2729 48.9678C52.553 40.7433 5.23514 38.1402 0 0.521484Z" fill="white"/>
<path d="M88.1766 77.8766L88.363 78.0318C86.1419 76.0084 84.536 73.4072 83.7275 70.5231C82.9678 67.7506 82.947 64.8295 83.6669 62.0466C84.3869 59.2637 85.8229 56.7146 87.834 54.6496C87.4286 54.4449 87.0053 54.2773 86.5693 54.149C86.2619 54.0639 85.9143 53.9638 85.5615 53.8386L85.4205 53.7986H85.3953H85.3096H85.2794L85.2038 53.7686C84.6999 53.5934 84.1255 53.3931 83.5814 53.1929C80.3667 57.9134 78.966 63.2696 80.8404 69.9023C82.7147 76.535 88.8518 82.5871 95.8152 84.0538L99.2616 78.8227C96.913 78.2494 94.7385 77.1211 92.923 75.5339L93.0691 75.649C91.181 73.9385 89.8141 71.7359 89.1239 69.2916C88.5376 67.1677 88.4634 64.9364 88.9072 62.7786C89.3511 60.6208 90.3005 58.5973 91.6785 56.8722C91.1746 56.5618 90.6455 56.2264 90.1064 55.9161C89.6025 55.6107 89.0987 55.3154 88.5948 55.0601C87.3377 57.0771 86.5169 59.332 86.1846 61.6813C85.8524 64.0306 86.016 66.4229 86.665 68.7059C87.3562 71.1625 88.601 73.4307 90.305 75.3387C92.009 77.2467 94.1276 78.7445 96.5004 79.7188L95.3567 81.8562C92.6962 81.0862 90.251 79.7157 88.2119 77.8516L88.1766 77.8766ZM119.164 59.34C119.54 60.6756 119.489 61.6356 119.582 63.0193C119.325 62.9743 119.079 62.9392 118.806 62.9192C118.189 62.8591 117.567 62.849 116.947 62.8892C116.85 62.292 116.72 61.7005 116.559 61.1171C115.998 59.1178 115.048 57.2472 113.763 55.6107C111.927 53.7194 109.604 52.365 107.047 51.695C104.49 51.025 101.797 51.0653 99.2616 51.8113L98.9492 51.9014C98.6871 51.4709 98.3994 51.0564 98.0876 50.66C97.867 50.3855 97.6315 50.1231 97.3822 49.874L97.0144 49.5136L96.8934 49.3985L96.8582 49.3634L96.8229 49.3334L96.7927 49.3084L96.7272 49.2433L96.6768 49.2033L96.5559 49.0981C95.8303 48.4724 95.0443 47.8467 94.2683 47.271C93.8148 46.9356 93.3765 46.6152 92.9734 46.3299C93.5931 46.0796 94.233 45.8594 94.8931 45.6641C105.358 42.6606 116.191 48.8028 119.164 59.34Z" fill="white"/>
<path d="M109.645 82.5216C108.718 82.5263 107.798 82.3565 106.935 82.021C106.113 81.7092 105.371 81.2202 104.763 80.5893C104.126 79.9205 103.638 79.1256 103.332 78.2566C102.979 77.2377 102.809 76.1653 102.828 75.0879C102.811 74.0115 102.992 72.9409 103.362 71.9293C103.683 71.0665 104.173 70.2754 104.803 69.6016C105.41 68.9587 106.151 68.4562 106.975 68.1298C107.83 67.7884 108.744 67.6183 109.666 67.6293C110.574 67.6006 111.475 67.7931 112.291 68.1899C112.942 68.5174 113.537 68.9448 114.054 69.4564L112.679 71.1033C112.31 70.7542 111.896 70.4546 111.449 70.2123C110.922 69.9552 110.338 69.8314 109.751 69.8518C109.146 69.8428 108.545 69.9658 107.993 70.2123C107.471 70.4544 107.01 70.8083 106.642 71.2485C106.244 71.7332 105.946 72.2911 105.766 72.8904C105.549 73.596 105.444 74.3304 105.453 75.0679C105.453 76.7098 105.826 77.998 106.572 78.9324C106.975 79.4074 107.486 79.7813 108.062 80.0239C108.638 80.2666 109.263 80.3711 109.887 80.329C110.285 80.3314 110.68 80.2757 111.061 80.1638C111.394 80.0714 111.704 79.9093 111.968 79.6883V76.5847H109.222V74.4972H114.261V80.8346C113.704 81.3649 113.046 81.78 112.326 82.056C111.469 82.3979 110.553 82.568 109.63 82.5566" fill="white"/>
<path d="M117.049 82.2566V67.8599H119.619V80.0991H125.645V82.2566H117.049Z" fill="white"/>
<path d="M133.101 80.2986C133.642 80.3076 134.177 80.1783 134.653 79.9232C135.123 79.6636 135.525 79.2984 135.827 78.8569C136.175 78.3476 136.431 77.7817 136.583 77.185C136.767 76.4688 136.857 75.7317 136.85 74.9925C136.926 73.6536 136.573 72.3253 135.842 71.198C135.526 70.7717 135.114 70.4251 134.638 70.1862C134.162 69.9473 133.637 69.8229 133.104 69.8229C132.571 69.8229 132.045 69.9473 131.569 70.1862C131.094 70.4251 130.681 70.7717 130.365 71.198C129.634 72.3253 129.281 73.6536 129.357 74.9925C129.35 75.7317 129.44 76.4688 129.624 77.185C129.777 77.7817 130.032 78.3476 130.38 78.8569C130.683 79.2984 131.085 79.6636 131.554 79.9232C132.029 80.1777 132.562 80.307 133.101 80.2986ZM133.101 82.5212C132.212 82.5352 131.33 82.3647 130.511 82.0206C129.734 81.6773 129.045 81.1639 128.496 80.5189C127.909 79.8215 127.464 79.0173 127.186 78.1511C126.863 77.1328 126.707 76.0699 126.722 75.0025C126.708 73.9466 126.864 72.8953 127.186 71.8888C127.461 71.0349 127.906 70.2449 128.496 69.5661C129.05 68.9391 129.739 68.4431 130.511 68.1145C132.173 67.4404 134.034 67.4404 135.696 68.1145C136.466 68.4467 137.154 68.9422 137.712 69.5661C138.306 70.2431 138.755 71.0334 139.032 71.8888C139.353 72.8953 139.51 73.9466 139.495 75.0025C139.511 76.0699 139.354 77.1328 139.032 78.1511C138.752 79.0187 138.303 79.8232 137.712 80.5189C137.159 81.161 136.471 81.6738 135.696 82.0206C134.876 82.3651 133.992 82.5356 133.101 82.5212Z" fill="white"/>
<path d="M141.546 82.2566V67.8599H144.448L147.018 74.903C147.179 75.3586 147.335 75.8291 147.481 76.3047C147.628 76.7802 147.784 77.2558 147.95 77.7213H148.036C148.197 77.2558 148.348 76.7802 148.489 76.3047C148.63 75.8291 148.781 75.3586 148.948 74.903L151.467 67.8599H154.394V82.2566H152.021V75.6739C152.021 75.3386 152.021 74.9731 152.056 74.5777C152.092 74.1822 152.102 73.7817 152.132 73.3763C152.162 72.9708 152.203 72.5753 152.243 72.1849C152.283 71.7944 152.324 71.434 152.354 71.0986H152.268L151.094 74.4425L148.721 80.915H147.209L144.816 74.4425L143.627 71.1036H143.541C143.566 71.439 143.602 71.8044 143.637 72.1899C143.672 72.5753 143.713 72.9758 143.748 73.3813C143.783 73.7868 143.818 74.1822 143.838 74.5827C143.859 74.9831 143.874 75.3436 143.874 75.6789V82.2616L141.546 82.2566Z" fill="white"/>
<path d="M161.236 74.6075L160.732 76.3695H164.436L163.932 74.6075C163.693 73.8466 163.468 73.0607 163.257 72.2497C163.045 71.4388 162.833 70.6395 162.622 69.8519H162.536C162.329 70.6579 162.118 71.4638 161.911 72.2647C161.705 73.0657 161.483 73.8466 161.251 74.6075H161.236ZM156.399 82.2664L161.115 67.8696H164.138L168.859 82.2664H166.154L165.025 78.3718H160.153L159.019 82.2664H156.399Z" fill="white"/>
<path d="M175.874 82.5217C174.993 82.5247 174.12 82.3546 173.305 82.0211C172.515 81.7037 171.808 81.2145 171.234 80.5894C170.62 79.9116 170.149 79.1184 169.848 78.2567C169.163 76.2025 169.163 73.9835 169.848 71.9293C170.161 71.0551 170.644 70.2506 171.269 69.5616C171.857 68.9273 172.578 68.4284 173.38 68.0999C174.199 67.7609 175.078 67.5906 175.965 67.5993C176.809 67.5816 177.645 67.7707 178.399 68.1499C179.052 68.4734 179.645 68.905 180.152 69.4264L178.777 71.0733C178.414 70.707 177.996 70.3995 177.537 70.1623C177.069 69.9276 176.55 69.8107 176.026 69.8219C175.462 69.8158 174.905 69.9391 174.398 70.1823C173.898 70.4287 173.459 70.7827 173.113 71.2185C172.729 71.7074 172.441 72.2647 172.267 72.8604C172.061 73.5678 171.96 74.3015 171.969 75.0379C171.969 76.6799 172.327 77.968 173.043 78.9024C173.379 79.3526 173.82 79.715 174.328 79.9582C174.836 80.2015 175.396 80.3185 175.96 80.2991C176.562 80.311 177.157 80.1697 177.688 79.8886C178.2 79.6089 178.663 79.2488 179.059 78.8223L180.434 80.4292C179.877 81.0787 179.191 81.607 178.419 81.981C177.63 82.3454 176.769 82.5301 175.9 82.5217" fill="white"/>
<path d="M187.77 80.2991C188.311 80.3081 188.846 80.1788 189.322 79.9237C189.792 79.6641 190.194 79.2989 190.496 78.8574C190.842 78.3469 191.097 77.7815 191.252 77.1855C191.435 76.469 191.523 75.732 191.514 74.9929C191.514 73.3811 191.181 72.1146 190.506 71.1985C190.191 70.7722 189.778 70.4256 189.303 70.1867C188.828 69.9478 188.303 69.8233 187.77 69.8233C187.237 69.8233 186.712 69.9478 186.237 70.1867C185.762 70.4256 185.35 70.7722 185.034 71.1985C184.303 72.3258 183.95 73.6541 184.026 74.9929C184.019 75.7322 184.109 76.4693 184.293 77.1855C184.446 77.7812 184.7 78.3467 185.044 78.8574C185.35 79.2976 185.753 79.6623 186.223 79.9237C186.698 80.1788 187.231 80.3081 187.77 80.2991ZM187.77 82.5217C186.881 82.5357 185.999 82.3652 185.18 82.0211C184.402 81.6792 183.713 81.1656 183.165 80.5194C182.578 79.822 182.133 79.0178 181.855 78.1516C181.532 77.1333 181.376 76.0703 181.391 75.003C181.376 73.9471 181.533 72.8958 181.855 71.8893C182.13 71.0354 182.575 70.2454 183.165 69.5666C183.718 68.9386 184.407 68.4424 185.18 68.1149C186.842 67.4409 188.703 67.4409 190.365 68.1149C191.135 68.4472 191.823 68.9427 192.38 69.5666C192.975 70.2436 193.424 71.0339 193.701 71.8893C194.022 72.8958 194.179 73.9471 194.164 75.003C194.18 76.0703 194.023 77.1333 193.701 78.1516C193.421 79.0192 192.972 79.8237 192.38 80.5194C191.828 81.1615 191.14 81.6743 190.365 82.0211C189.544 82.3652 188.661 82.5356 187.77 82.5217Z" fill="white"/>
</g>
<defs>
<clipPath id="clip0_194_2219">
<path d="M0 0.521484H194.174V79.9563C194.174 82.7417 191.916 84.9997 189.13 84.9997H5.04348C2.25804 84.9997 0 82.7417 0 79.9563V0.521484Z" fill="white"/>
</clipPath>
</defs>
</svg>
