<svg width="16" height="16" viewBox="0 0 16 16" fill="none" xmlns="http://www.w3.org/2000/svg">
<path d="M14.6291 11.3042V13.3042C14.6299 13.4898 14.5918 13.6736 14.5174 13.8437C14.4431 14.0138 14.334 14.1665 14.1972 14.2921C14.0603 14.4176 13.8988 14.5131 13.7229 14.5726C13.5471 14.6321 13.3607 14.6542 13.1758 14.6375C11.1243 14.4146 9.15377 13.7136 7.42244 12.5908C5.81166 11.5673 4.446 10.2016 3.42244 8.59082C2.29576 6.85162 1.5946 4.87148 1.37577 2.81082C1.35911 2.62646 1.38102 2.44066 1.44011 2.26524C1.49919 2.08981 1.59415 1.92861 1.71895 1.7919C1.84375 1.65519 1.99564 1.54596 2.16497 1.47117C2.33429 1.39638 2.51733 1.35766 2.70244 1.35749H4.70244C5.02598 1.3543 5.33963 1.46887 5.58495 1.67984C5.83026 1.89081 5.99049 2.18378 6.03577 2.50415C6.12019 3.1442 6.27674 3.77264 6.50244 4.37749C6.59213 4.6161 6.61155 4.87543 6.55838 5.12474C6.50521 5.37405 6.38168 5.60289 6.20244 5.78415L5.35577 6.63082C6.30481 8.29985 7.68674 9.68178 9.35577 10.6308L10.2024 9.78415C10.3837 9.60491 10.6125 9.48139 10.8619 9.42822C11.1112 9.37504 11.3705 9.39446 11.6091 9.48415C12.214 9.70985 12.8424 9.8664 13.4824 9.95082C13.8063 9.99651 14.102 10.1596 14.3135 10.4091C14.5249 10.6587 14.6372 10.9772 14.6291 11.3042Z" fill="#009FE3"/>
</svg>
