<svg width="224" height="97" viewBox="0 0 224 97" fill="none" xmlns="http://www.w3.org/2000/svg">
<path d="M12.4274 37.4414C35.1837 54.5814 61.6718 55.8344 86.4392 61.8351C72.9307 65.2206 11.9973 73.1985 12.4274 37.4414Z" fill="#F7F9FA"/>
<path d="M38.4855 72.9973C55.4524 74.9285 69.6584 70.4682 86.0965 68.8071C68.8795 76.5207 55.4234 87.4358 38.4855 72.9973Z" fill="white"/>
<path d="M55.5925 90.016C66.8922 86.9927 76.3667 80.3367 86.8933 73.8877C80.2495 82.2335 64.8462 99.1781 55.5925 90.016Z" fill="#F7F9FA"/>
<path d="M70.6411 96.7988C76.1108 93.3501 86.835 80.1589 87.1722 80.4118C87.5093 80.6647 83.6555 91.6488 79.546 94.7813C78.2837 95.7081 76.8398 96.3646 75.3066 96.709C73.7734 97.0534 72.1845 97.0781 70.6411 96.7816" fill="white"/>
<path d="M0 0C0 0 16.9088 13.5131 41.0718 21.3129C53.5514 25.3363 113.973 45.9135 119.676 74.8192C120.373 78.3426 111.811 61.8579 91.4496 55.6273C60.6254 46.1836 6.03929 43.1948 0 0Z" fill="white"/>
<path d="M101.721 88.8209L101.936 88.9991C99.3738 86.6758 97.5212 83.689 96.5885 80.3774C95.7121 77.1939 95.6881 73.8399 96.5186 70.6445C97.3491 67.4491 99.0057 64.5222 101.326 62.1511C100.858 61.916 100.37 61.7237 99.8668 61.5763C99.5122 61.4786 99.1111 61.3636 98.7043 61.2199L98.5415 61.174H98.5124H98.4136H98.3788L98.2916 61.1395C97.7103 60.9383 97.0477 60.7084 96.4199 60.4785C92.7115 65.8987 91.0956 72.0488 93.2579 79.6646C95.4201 87.2805 102.5 94.2296 110.533 95.9137L114.509 89.9072C111.799 89.2489 109.291 87.9535 107.196 86.1309L107.365 86.2631C105.187 84.2991 103.61 81.7699 102.814 78.9634C102.137 76.5246 102.052 73.9626 102.564 71.485C103.076 69.0074 104.171 66.684 105.761 64.7031C105.179 64.3467 104.569 63.9616 103.947 63.6053C103.366 63.2547 102.785 62.9155 102.203 62.6224C100.753 64.9384 99.8063 67.5275 99.4231 70.225C99.0398 72.9225 99.2285 75.6694 99.9772 78.2909C100.775 81.1116 102.211 83.716 104.176 85.9068C106.142 88.0976 108.586 89.8174 111.323 90.9361L110.004 93.3904C106.935 92.5063 104.114 90.9326 101.762 88.7922L101.721 88.8209ZM137.468 67.5368C137.902 69.0703 137.844 70.1726 137.951 71.7614C137.654 71.7097 137.37 71.6694 137.056 71.6465C136.343 71.5774 135.626 71.5659 134.911 71.612C134.799 70.9263 134.649 70.2471 134.463 69.5772C133.816 67.2816 132.72 65.1337 131.237 63.2547C129.12 61.083 126.44 59.5278 123.49 58.7585C120.541 57.9893 117.434 58.0355 114.509 58.8921L114.148 58.9955C113.846 58.5012 113.514 58.0252 113.154 57.5701C112.9 57.2549 112.628 56.9537 112.341 56.6677L111.916 56.2538L111.777 56.1216L111.736 56.0814L111.695 56.0469L111.661 56.0182L111.585 55.9434L111.527 55.8975L111.387 55.7768C110.55 55.0583 109.644 54.3398 108.748 53.6788C108.225 53.2937 107.72 52.9259 107.255 52.5982C107.97 52.3108 108.708 52.0579 109.469 51.8338C121.542 48.3851 134.039 55.4376 137.468 67.5368Z" fill="white"/>
<path d="M126.487 94.1547C125.418 94.1601 124.357 93.9651 123.36 93.5799C122.412 93.2219 121.557 92.6605 120.855 91.936C120.12 91.1681 119.558 90.2554 119.204 89.2575C118.797 88.0876 118.6 86.8562 118.623 85.6192C118.603 84.3832 118.812 83.154 119.239 81.9923C119.61 81.0017 120.175 80.0934 120.901 79.3196C121.601 78.5815 122.456 78.0045 123.407 77.6297C124.393 77.2377 125.448 77.0424 126.511 77.055C127.558 77.022 128.598 77.243 129.539 77.6987C130.29 78.0747 130.977 78.5655 131.573 79.1529L129.987 81.0439C129.561 80.6431 129.084 80.2991 128.568 80.0208C127.96 79.7257 127.287 79.5835 126.609 79.607C125.911 79.5966 125.218 79.7379 124.581 80.0208C123.979 80.2989 123.447 80.7052 123.023 81.2106C122.564 81.7672 122.22 82.4078 122.012 83.0959C121.762 83.9061 121.641 84.7494 121.651 85.5962C121.651 87.4815 122.081 88.9606 122.942 90.0335C123.407 90.5789 123.996 91.0082 124.66 91.2868C125.325 91.5654 126.046 91.6854 126.766 91.6371C127.225 91.6399 127.681 91.576 128.121 91.4475C128.505 91.3413 128.862 91.1552 129.167 90.9014V87.3378H125.999V84.941H131.812V92.2177C131.169 92.8265 130.41 93.3032 129.58 93.6201C128.592 94.0126 127.535 94.208 126.47 94.1949" fill="white"/>
<path d="M135.028 93.85V77.3193H137.993V91.3727H144.945V93.85H135.028Z" fill="white"/>
<path d="M153.546 91.6043C154.17 91.6147 154.787 91.4662 155.336 91.1733C155.878 90.8752 156.342 90.4559 156.691 89.949C157.092 89.3641 157.387 88.7144 157.563 88.0292C157.775 87.2068 157.879 86.3605 157.871 85.5117C157.958 83.9744 157.551 82.4492 156.708 81.1548C156.343 80.6653 155.868 80.2673 155.319 79.993C154.77 79.7188 154.164 79.5759 153.549 79.5759C152.934 79.5759 152.328 79.7188 151.779 79.993C151.23 80.2673 150.754 80.6653 150.39 81.1548C149.547 82.4492 149.14 83.9744 149.227 85.5117C149.219 86.3605 149.322 87.2068 149.535 88.0292C149.711 88.7144 150.006 89.3641 150.407 89.949C150.756 90.4559 151.22 90.8752 151.762 91.1733C152.309 91.4655 152.924 91.6139 153.546 91.6043ZM153.546 94.1564C152.521 94.1724 151.503 93.9766 150.558 93.5816C149.662 93.1874 148.867 92.5979 148.233 91.8572C147.556 91.0565 147.043 90.1331 146.722 89.1385C146.35 87.9693 146.169 86.7488 146.187 85.5232C146.17 84.3108 146.351 83.1036 146.722 81.948C147.039 80.9676 147.553 80.0604 148.233 79.2811C148.873 78.5611 149.667 77.9916 150.558 77.6142C152.475 76.8402 154.623 76.8402 156.539 77.6142C157.428 77.9957 158.222 78.5646 158.865 79.2811C159.55 80.0583 160.069 80.9659 160.387 81.948C160.759 83.1036 160.939 84.3108 160.922 85.5232C160.94 86.7488 160.759 87.9693 160.387 89.1385C160.065 90.1347 159.547 91.0584 158.865 91.8572C158.228 92.5945 157.434 93.1834 156.539 93.5816C155.593 93.9771 154.573 94.1729 153.546 94.1564Z" fill="white"/>
<path d="M163.288 93.85V77.3193H166.636L169.601 85.4065C169.787 85.9295 169.967 86.4698 170.135 87.0159C170.304 87.5619 170.484 88.108 170.676 88.6425H170.775C170.961 88.108 171.135 87.5619 171.298 87.0159C171.461 86.4698 171.635 85.9295 171.827 85.4065L174.733 77.3193H178.11V93.85H175.372V86.2916C175.372 85.9065 175.372 85.487 175.413 85.0329C175.454 84.5788 175.465 84.119 175.5 83.6534C175.535 83.1878 175.582 82.7338 175.628 82.2854C175.675 81.8371 175.721 81.4233 175.756 81.0382H175.657L174.303 84.8777L171.565 92.3096H169.821L167.06 84.8777L165.689 81.0439H165.59C165.619 81.429 165.66 81.8486 165.7 82.2912C165.741 82.7338 165.787 83.1936 165.828 83.6592C165.869 84.1247 165.91 84.5788 165.933 85.0386C165.956 85.4984 165.973 85.9123 165.973 86.2974V93.8557L163.288 93.85Z" fill="white"/>
<path d="M186.003 85.0676L185.421 87.0908H189.694L189.112 85.0676C188.837 84.1939 188.578 83.2915 188.333 82.3604C188.089 81.4292 187.845 80.5115 187.601 79.6072H187.502C187.264 80.5326 187.02 81.458 186.781 82.3776C186.543 83.2973 186.287 84.1939 186.02 85.0676H186.003ZM180.422 93.8617L185.863 77.3311H189.351L194.797 93.8617H191.676L190.374 89.39H184.753L183.445 93.8617H180.422Z" fill="white"/>
<path d="M202.889 94.1551C201.873 94.1586 200.865 93.9632 199.925 93.5803C199.014 93.2159 198.198 92.6541 197.536 91.9364C196.828 91.1581 196.284 90.2474 195.937 89.2579C195.147 86.8993 195.147 84.3514 195.937 81.9927C196.298 80.9889 196.855 80.0651 197.577 79.274C198.255 78.5457 199.086 77.9729 200.012 77.5956C200.956 77.2064 201.971 77.0108 202.994 77.0208C203.968 77.0005 204.932 77.2176 205.801 77.6531C206.555 78.0245 207.239 78.5201 207.824 79.1188L206.237 81.0098C205.819 80.5892 205.337 80.2361 204.808 79.9637C204.267 79.6943 203.669 79.5601 203.064 79.5729C202.414 79.5658 201.771 79.7075 201.186 79.9867C200.609 80.2697 200.103 80.6761 199.704 81.1765C199.26 81.7379 198.929 82.3777 198.728 83.0618C198.49 83.8741 198.374 84.7165 198.385 85.5621C198.385 87.4474 198.797 88.9265 199.623 89.9994C200.01 90.5163 200.519 90.9323 201.105 91.2117C201.692 91.491 202.338 91.6254 202.988 91.603C203.683 91.6168 204.369 91.4545 204.982 91.1317C205.572 90.8106 206.106 90.3972 206.563 89.9074L208.15 91.7525C207.507 92.4983 206.715 93.1049 205.825 93.5343C204.915 93.9527 203.922 94.1648 202.918 94.1551" fill="white"/>
<path d="M216.613 91.6034C217.237 91.6137 217.853 91.4653 218.403 91.1723C218.945 90.8742 219.408 90.455 219.757 89.948C220.156 89.3618 220.451 88.7126 220.629 88.0283C220.84 87.2056 220.942 86.3593 220.931 85.5107C220.931 83.6599 220.548 82.2057 219.769 81.1539C219.405 80.6644 218.929 80.2664 218.381 79.9921C217.833 79.7178 217.227 79.5748 216.613 79.5748C215.998 79.5748 215.392 79.7178 214.844 79.9921C214.296 80.2664 213.82 80.6644 213.456 81.1539C212.613 82.4483 212.206 83.9735 212.294 85.5107C212.285 86.3596 212.389 87.2059 212.602 88.0283C212.778 88.7123 213.071 89.3616 213.468 89.948C213.821 90.4534 214.286 90.8722 214.828 91.1723C215.376 91.4653 215.99 91.6138 216.613 91.6034ZM216.613 94.1554C215.587 94.1715 214.569 93.9757 213.625 93.5806C212.727 93.188 211.932 92.5983 211.3 91.8563C210.622 91.0556 210.109 90.1322 209.789 89.1376C209.416 87.9684 209.236 86.7478 209.254 85.5222C209.237 84.3098 209.417 83.1027 209.789 81.9471C210.106 80.9666 210.62 80.0595 211.3 79.2801C211.938 78.5589 212.733 77.9892 213.625 77.6132C215.542 76.8392 217.689 76.8392 219.606 77.6132C220.495 77.9947 221.288 78.5636 221.931 79.2801C222.617 80.0574 223.135 80.9649 223.454 81.9471C223.825 83.1027 224.006 84.3098 223.989 85.5222C224.007 86.7478 223.826 87.9684 223.454 89.1376C223.131 90.1337 222.614 91.0575 221.931 91.8563C221.294 92.5936 220.5 93.1824 219.606 93.5806C218.659 93.9757 217.64 94.1714 216.613 94.1554Z" fill="white"/>
</svg>
