<svg width="224" height="61" viewBox="0 0 224 61" fill="none" xmlns="http://www.w3.org/2000/svg">
<path d="M1.37402 6.00586H4.19727C5.52344 6.00586 6.48275 6.2041 7.0752 6.60059C7.66764 6.99707 7.96387 7.6237 7.96387 8.48047C7.96387 9.07292 7.79753 9.56283 7.46484 9.9502C7.13672 10.333 6.65592 10.5814 6.02246 10.6953V10.7637C7.54004 11.0234 8.29883 11.821 8.29883 13.1562C8.29883 14.0495 7.99577 14.7467 7.38965 15.248C6.78809 15.7493 5.94499 16 4.86035 16H1.37402V6.00586ZM2.53613 10.2852H4.4502C5.27051 10.2852 5.86068 10.1576 6.2207 9.90234C6.58073 9.64258 6.76074 9.20736 6.76074 8.59668C6.76074 8.03613 6.56022 7.63281 6.15918 7.38672C5.75814 7.13607 5.12012 7.01074 4.24512 7.01074H2.53613V10.2852ZM2.53613 11.2695V15.0088H4.62109C5.42773 15.0088 6.03385 14.8538 6.43945 14.5439C6.84961 14.2295 7.05469 13.7396 7.05469 13.0742C7.05469 12.4544 6.84505 11.9987 6.42578 11.707C6.01107 11.4154 5.3776 11.2695 4.52539 11.2695H2.53613ZM17.1035 16H15.7842L13.0977 11.6045L10.3633 16H9.13281L12.4551 10.7773L9.3584 6.00586H10.6436L13.125 9.96387L15.627 6.00586H16.8643L13.7676 10.7363L17.1035 16ZM27.207 10.9893C27.207 12.5889 26.8014 13.8467 25.9902 14.7627C25.1836 15.6787 24.0602 16.1367 22.6201 16.1367C21.1481 16.1367 20.0111 15.6878 19.209 14.79C18.4115 13.8877 18.0127 12.6162 18.0127 10.9756C18.0127 9.34863 18.4137 8.08854 19.2158 7.19531C20.0179 6.29753 21.1572 5.84863 22.6338 5.84863C24.0693 5.84863 25.1904 6.30436 25.9971 7.21582C26.8037 8.12728 27.207 9.38509 27.207 10.9893ZM19.2432 10.9893C19.2432 12.3428 19.5303 13.3704 20.1045 14.0723C20.6833 14.7695 21.5218 15.1182 22.6201 15.1182C23.7275 15.1182 24.5638 14.7695 25.1289 14.0723C25.694 13.375 25.9766 12.3473 25.9766 10.9893C25.9766 9.64486 25.694 8.6263 25.1289 7.93359C24.5684 7.23633 23.7367 6.8877 22.6338 6.8877C21.5264 6.8877 20.6833 7.23861 20.1045 7.94043C19.5303 8.6377 19.2432 9.65397 19.2432 10.9893ZM37.3242 18.6045H36.2168V16H29.2715V18.6045H28.1641V14.9473H28.9365C29.6383 13.7669 30.2376 12.3314 30.7344 10.6406C31.2357 8.94987 31.5137 7.40495 31.5684 6.00586H36.0596V14.9473H37.3242V18.6045ZM34.8975 14.9473V7.05176H32.6211C32.5391 8.15462 32.2633 9.48079 31.7939 11.0303C31.3245 12.5752 30.7777 13.8809 30.1533 14.9473H34.8975ZM39.0264 6.00586H40.1133V11.5635C40.1133 12.5889 40.0814 13.5163 40.0176 14.3457H40.0723L45.6777 6.00586H46.9492V16H45.8555V10.4971C45.8555 9.58105 45.8942 8.61947 45.9717 7.6123H45.9102L40.2979 16H39.0264V6.00586ZM52.7666 16H51.6045V7.03809H48.4395V6.00586H55.9316V7.03809H52.7666V16ZM61.0791 6.00586H63.9023C65.2285 6.00586 66.1878 6.2041 66.7803 6.60059C67.3727 6.99707 67.6689 7.6237 67.6689 8.48047C67.6689 9.07292 67.5026 9.56283 67.1699 9.9502C66.8418 10.333 66.361 10.5814 65.7275 10.6953V10.7637C67.2451 11.0234 68.0039 11.821 68.0039 13.1562C68.0039 14.0495 67.7008 14.7467 67.0947 15.248C66.4932 15.7493 65.6501 16 64.5654 16H61.0791V6.00586ZM62.2412 10.2852H64.1553C64.9756 10.2852 65.5658 10.1576 65.9258 9.90234C66.2858 9.64258 66.4658 9.20736 66.4658 8.59668C66.4658 8.03613 66.2653 7.63281 65.8643 7.38672C65.4632 7.13607 64.8252 7.01074 63.9502 7.01074H62.2412V10.2852ZM62.2412 11.2695V15.0088H64.3262C65.1328 15.0088 65.7389 14.8538 66.1445 14.5439C66.5547 14.2295 66.7598 13.7396 66.7598 13.0742C66.7598 12.4544 66.5501 11.9987 66.1309 11.707C65.7161 11.4154 65.0827 11.2695 64.2305 11.2695H62.2412Z" fill="white"/>
<g clip-path="url(#clip0_280_5839)">
<path d="M54.2291 41.7081C54.26 42.0891 54.1957 42.4719 54.0421 42.8207C53.8886 43.1696 53.6508 43.4731 53.351 43.703C52.6611 44.1703 51.8431 44.4022 51.0154 44.3649H47.8281V39.0513H51.0242C51.851 39.0115 52.6688 39.2401 53.3598 39.7043C53.6603 39.9356 53.8985 40.2407 54.052 40.5911C54.2055 40.9415 54.2695 41.3258 54.2378 41.7081H54.2291ZM54.8788 37.79C54.2836 37.399 53.6228 37.1231 52.9295 36.9759C52.1821 36.8132 51.4197 36.7322 50.6554 36.7344H45.3871V54.4465H47.7929V46.6729H50.9891C51.6304 46.6706 52.2694 46.5956 52.8944 46.4493C53.5585 46.3012 54.1917 46.0347 54.7647 45.662C55.3593 45.2776 55.851 44.749 56.1959 44.1234C56.5888 43.3734 56.7796 42.5308 56.7491 41.6813C56.7728 40.8652 56.5947 40.0562 56.231 39.3286C55.9093 38.7033 55.4344 38.1733 54.8525 37.79" fill="white"/>
<path d="M68.585 41.7079C68.6189 42.2489 68.4633 42.7846 68.146 43.2197C67.8351 43.5843 67.4353 43.8589 66.9869 44.0159C66.4653 44.1948 65.9213 44.2972 65.3713 44.32C64.7655 44.32 64.186 44.3647 63.6679 44.3647H62.0698V39.0511H64.704C65.1854 39.0494 65.6664 39.0793 66.144 39.1405C66.5779 39.1908 66.9999 39.318 67.3908 39.5163C67.7497 39.6986 68.0532 39.9769 68.2689 40.3214C68.5098 40.7408 68.6257 41.2225 68.6025 41.7079H68.585ZM69.9811 44.9194C70.7636 44.0449 71.174 42.8901 71.1226 41.7079C71.1691 40.7712 70.9529 39.8403 70.4991 39.0243C70.1005 38.3822 69.5353 37.8652 68.866 37.5304C68.1638 37.1851 67.41 36.9614 66.6357 36.8684C65.8257 36.7684 65.0106 36.7177 64.1947 36.7163H59.7079V54.4284H62.1137V46.6727H64.3791L68.9099 54.3479L68.9713 54.4463H71.8865L67.066 46.3954C68.1777 46.2297 69.2084 45.7063 70.0074 44.9015" fill="white"/>
<path d="M89.2285 45.5992C89.2313 46.5164 89.0675 47.4262 88.7456 48.2828C88.4443 49.1026 87.9912 49.8557 87.411 50.5013C86.8366 51.1407 86.1366 51.6497 85.3563 51.9952C84.5238 52.3579 83.6277 52.5449 82.7222 52.5449C81.8167 52.5449 80.9206 52.3579 80.088 51.9952C79.3059 51.6485 78.6032 51.1397 78.0246 50.5013C77.4424 49.8572 76.9891 49.1037 76.69 48.2828C76.3743 47.4247 76.2136 46.5155 76.2158 45.5992C76.2094 44.665 76.3701 43.7374 76.69 42.8618C76.9955 42.0375 77.4547 41.2811 78.0422 40.6344C78.6279 40.0043 79.3289 39.4968 80.1056 39.1405C81.3242 38.5829 82.6834 38.4271 83.9932 38.6949C85.303 38.9628 86.4979 39.6408 87.411 40.6344C87.9912 41.28 88.4443 42.0331 88.7456 42.8529C89.0726 43.7267 89.2364 44.6551 89.2285 45.5902V45.5992ZM89.2285 38.9348C88.4112 38.1014 87.4418 37.4389 86.3749 36.9846C84.0436 36.054 81.4534 36.054 79.1222 36.9846C78.051 37.4358 77.0782 38.0986 76.2597 38.9348C75.4461 39.7776 74.8071 40.7784 74.3807 41.8778C73.9235 43.0596 73.6939 44.32 73.7046 45.5902C73.6949 46.8545 73.9244 48.1089 74.3807 49.2847C74.8012 50.387 75.4388 51.3898 76.2543 52.2313C77.0697 53.0729 78.0458 53.7354 79.1222 54.1779C81.4513 55.1202 84.0458 55.1202 86.3749 54.1779C87.433 53.7329 88.3962 53.0827 89.211 52.2636C90.0304 51.4203 90.6727 50.4159 91.0988 49.3116C91.555 48.1357 91.7846 46.8814 91.7749 45.6171C91.7855 44.3469 91.556 43.0864 91.0988 41.9047C90.6726 40.803 90.0302 39.8016 89.211 38.9616" fill="white"/>
<path d="M93.0563 39.0513H98.6407V54.4465H101.047V39.0513H106.631V36.7344H93.0563V39.0513Z" fill="white"/>
<path d="M111.451 46.3687H119.494V44.0608H111.451V39.0423H120.074V36.7344H109.046V54.4465H120.504V52.1296H111.451V46.3687Z" fill="white"/>
<path d="M136.151 50.232C135.6 50.9601 134.899 51.5557 134.096 51.9764C133.257 52.3901 132.333 52.5955 131.401 52.5758C130.525 52.59 129.658 52.4035 128.863 52.0301C128.117 51.6771 127.448 51.1752 126.896 50.5541C126.332 49.9096 125.896 49.159 125.614 48.3445C125.3 47.4646 125.143 46.5346 125.149 45.5983C125.146 44.6826 125.303 43.7737 125.614 42.9146C125.904 42.0916 126.345 41.3325 126.914 40.6782C127.466 40.0358 128.141 39.5153 128.898 39.1485C129.678 38.7662 130.535 38.5733 131.401 38.585C132.183 38.5843 132.957 38.7583 133.666 39.0949C134.389 39.4436 135.015 39.9728 135.484 40.6335L135.598 40.7945L137.652 39.2648L137.538 39.0949C136.831 38.1425 135.88 37.4061 134.79 36.9658C133.711 36.5304 132.561 36.3087 131.401 36.3128C129.637 36.2885 127.909 36.8181 126.451 37.8297C124.993 38.8412 123.876 40.2855 123.252 41.9664C122.815 43.1312 122.594 44.369 122.603 45.6162C122.591 46.8865 122.82 48.1471 123.279 49.3285C123.707 50.4182 124.336 51.4142 125.131 52.2627C125.923 53.0918 126.87 53.7517 127.915 54.2039C129.025 54.6827 130.221 54.9232 131.427 54.9105C132.706 54.9325 133.976 54.6764 135.15 54.1591C136.285 53.6351 137.266 52.8179 137.995 51.7886L138.109 51.6365L136.3 50.0889L136.151 50.232Z" fill="white"/>
<path d="M155.038 45.5995C155.039 46.5158 154.879 47.4249 154.564 48.2832C154.258 49.1027 153.802 49.8556 153.221 50.5016C152.649 51.1406 151.952 51.6497 151.175 51.9955C150.342 52.3568 149.446 52.5429 148.54 52.5429C147.635 52.5429 146.739 52.3568 145.906 51.9955C145.127 51.6478 144.428 51.1391 143.852 50.5016C143.267 49.8579 142.811 49.1044 142.508 48.2832C141.876 46.5213 141.876 44.5882 142.508 42.8264C142.818 42.0149 143.277 41.2711 143.86 40.6347C144.441 40.0029 145.14 39.4951 145.915 39.1408C146.748 38.7796 147.644 38.5934 148.549 38.5934C149.455 38.5934 150.35 38.7796 151.183 39.1408C151.955 39.4932 152.648 40.0014 153.221 40.6347C153.792 41.2871 154.239 42.0425 154.538 42.8622C154.857 43.7377 155.018 44.6653 155.012 45.5995H155.038ZM156.882 41.8871C156.454 40.7866 155.811 39.7856 154.994 38.944C154.178 38.1089 153.209 37.4461 152.141 36.9939C149.809 36.0632 147.219 36.0632 144.888 36.9939C143.818 37.4436 142.848 38.1066 142.034 38.944C141.216 39.7836 140.577 40.7853 140.155 41.8871C139.698 43.0689 139.468 44.3293 139.479 45.5995C139.469 46.8638 139.699 48.1182 140.155 49.294C140.575 50.394 141.21 51.3953 142.022 52.2367C142.834 53.078 143.806 53.7417 144.879 54.1872C147.208 55.1295 149.803 55.1295 152.132 54.1872C153.21 53.7471 154.192 53.0934 155.021 52.2639C155.84 51.4207 156.482 50.4163 156.908 49.3119C157.365 48.1361 157.594 46.8817 157.584 45.6174C157.595 44.3472 157.366 43.0868 156.908 41.905" fill="white"/>
<path d="M174.548 43.0053C174.029 42.723 173.597 42.2986 173.302 41.7797C172.988 41.2389 172.829 40.6189 172.845 39.9906C172.832 39.3628 172.99 38.7435 173.302 38.2015C173.614 37.7137 174.047 37.3187 174.557 37.0565C175.097 36.7621 175.701 36.6113 176.313 36.6182C176.815 36.6099 177.314 36.7042 177.78 36.8955C178.207 37.0851 178.588 37.3693 178.895 37.7274L178.113 38.4788C177.893 38.2273 177.623 38.0274 177.319 37.893C177.016 37.7587 176.688 37.693 176.357 37.7006C175.938 37.6929 175.524 37.7945 175.154 37.9958C174.812 38.194 174.527 38.481 174.329 38.8277C174.126 39.1961 174.023 39.613 174.03 40.0354C174.02 40.4581 174.124 40.8756 174.329 41.243C174.522 41.5936 174.808 41.8818 175.154 42.0749C175.522 42.2832 175.937 42.3882 176.357 42.3791C176.689 42.3868 177.018 42.3203 177.321 42.1842C177.625 42.0482 177.895 41.846 178.113 41.5919L178.895 42.3523C178.589 42.7127 178.204 42.9947 177.771 43.1752C177.252 43.3872 176.694 43.4832 176.135 43.457C175.576 43.4308 175.029 43.2828 174.531 43.0232" fill="white"/>
<path d="M184.391 42.0572C184.737 41.8641 185.023 41.5759 185.217 41.2253C185.407 40.8538 185.506 40.441 185.506 40.0221C185.506 39.6032 185.407 39.1904 185.217 38.8189C185.025 38.458 184.739 38.1578 184.391 37.9512C184.031 37.7577 183.63 37.6566 183.223 37.6566C182.816 37.6566 182.416 37.7577 182.056 37.9512C181.711 38.1505 181.426 38.441 181.23 38.7921C181.04 39.1636 180.941 39.5763 180.941 39.9953C180.941 40.4142 181.04 40.8269 181.23 41.1984C181.424 41.549 181.71 41.8373 182.056 42.0304C182.414 42.23 182.815 42.3347 183.223 42.3347C183.632 42.3347 184.033 42.23 184.391 42.0304V42.0572ZM181.432 42.9786C180.91 42.6965 180.476 42.2722 180.177 41.7531C179.88 41.2166 179.724 40.6112 179.724 39.9953C179.724 39.3794 179.88 38.7739 180.177 38.2375C180.472 37.7396 180.894 37.3317 181.397 37.0567C181.952 36.7684 182.566 36.6182 183.188 36.6182C183.811 36.6182 184.425 36.7684 184.98 37.0567C185.502 37.3387 185.936 37.763 186.235 38.2822C186.551 38.8225 186.709 39.4429 186.692 40.0713C186.708 40.6995 186.549 41.3196 186.235 41.8604C185.936 42.3796 185.502 42.8039 184.98 43.0859C184.425 43.3742 183.811 43.5244 183.188 43.5244C182.566 43.5244 181.952 43.3742 181.397 43.0859" fill="white"/>
<path d="M194.067 43.3544L194.058 38.9353L191.916 42.594H191.38L189.238 38.9979V43.3544H188.088V36.6899H189.08L191.67 41.109L194.208 36.6899H195.2L195.209 43.3544H194.067Z" fill="white"/>
<path d="M200.899 40.0354C201.036 39.9161 201.144 39.7658 201.214 39.5965C201.284 39.4272 201.314 39.2436 201.303 39.0603C201.314 38.8757 201.284 38.6907 201.214 38.52C201.144 38.3493 201.036 38.1974 200.899 38.0763C200.547 37.8273 200.123 37.7074 199.696 37.7364H198.282V40.42H199.696C200.125 40.4508 200.55 40.3274 200.899 40.0711V40.0354ZM201.224 37.0118C201.621 37.1789 201.958 37.4662 202.189 37.8348C202.419 38.2133 202.534 38.6516 202.523 39.0961C202.532 39.5403 202.416 39.9779 202.189 40.3574C201.958 40.726 201.621 41.0132 201.224 41.1804C200.76 41.3797 200.26 41.4772 199.757 41.4666H198.282V43.3184H197.079V36.6897H199.757C200.26 36.6792 200.76 36.7767 201.224 36.976" fill="white"/>
<path d="M207.457 40.8408L206.237 37.9514L205.016 40.8676L207.457 40.8408ZM207.861 41.8069H204.586L203.963 43.3187H202.716L205.648 36.6543H206.834L209.775 43.3187H208.511L207.861 41.8069Z" fill="white"/>
<path d="M216.65 36.6899V43.3544H215.65L212.067 38.8369V43.3544H210.864V36.6899H211.856L215.448 41.1985V36.6899H216.65Z" fill="white"/>
<path d="M221.454 41.0017V43.3544H220.251V41.0196L217.687 36.6899H218.986L220.892 39.9372L222.815 36.6899H224L221.454 41.0017Z" fill="white"/>
<path d="M177.753 51.3695H178.903V54.0532C178.551 54.3332 178.153 54.5454 177.726 54.6794C177.283 54.8225 176.821 54.8949 176.357 54.8941C175.745 54.8976 175.141 54.747 174.6 54.4557C174.055 54.1587 173.604 53.7086 173.301 53.1586C173.004 52.6222 172.848 52.0167 172.848 51.4009C172.848 50.785 173.004 50.1795 173.301 49.6431C173.605 49.1253 174.043 48.7016 174.565 48.4175C175.122 48.1179 175.744 47.9671 176.374 47.9792C176.881 47.9726 177.384 48.0636 177.858 48.2476C178.292 48.4225 178.677 48.7018 178.982 49.0616L178.218 49.822C177.991 49.5803 177.719 49.3883 177.417 49.2576C177.115 49.1268 176.79 49.0602 176.462 49.0616C176.037 49.0532 175.617 49.1548 175.241 49.3568C174.878 49.5405 174.573 49.826 174.363 50.1798C174.162 50.5553 174.059 50.9774 174.065 51.4053C174.063 51.8243 174.165 52.2369 174.363 52.604C174.575 52.9584 174.879 53.2463 175.241 53.436C175.612 53.645 176.03 53.7499 176.453 53.7401C176.92 53.7492 177.38 53.6319 177.788 53.4002L177.753 51.3695Z" fill="white"/>
<path d="M184.39 49.4997C184.045 49.2434 183.622 49.1198 183.196 49.1508H181.782V51.8345H183.196C183.625 51.8578 184.049 51.7246 184.39 51.4587C184.529 51.3381 184.638 51.1865 184.709 51.0159C184.781 50.8452 184.813 50.66 184.803 50.4747C184.813 50.2908 184.781 50.1069 184.709 49.9377C184.638 49.7685 184.528 49.6185 184.39 49.4997ZM184.829 54.7686L183.512 52.8185H181.756V54.7686H180.544V48.1042H183.222C183.728 48.0945 184.231 48.192 184.698 48.3904C185.093 48.56 185.43 48.8467 185.663 49.2134C185.89 49.6002 186.01 50.0422 186.01 50.4926C186.01 50.9431 185.89 51.3851 185.663 51.7718C185.411 52.1418 185.052 52.4231 184.636 52.5769L186.146 54.7686H184.829Z" fill="white"/>
<path d="M191.758 53.4806C192.098 53.2787 192.38 52.9886 192.574 52.6397C192.77 52.2701 192.873 51.8567 192.873 51.4366C192.873 51.0165 192.77 50.603 192.574 50.2334C192.38 49.8846 192.098 49.5944 191.758 49.3925C191.397 49.1927 190.992 49.091 190.581 49.0973C190.173 49.0909 189.771 49.1927 189.413 49.3925C189.069 49.5894 188.786 49.8807 188.597 50.2334C188.401 50.603 188.298 51.0165 188.298 51.4366C188.298 51.8567 188.401 52.2701 188.597 52.6397C188.786 52.9924 189.069 53.2838 189.413 53.4806C189.771 53.6805 190.173 53.7822 190.581 53.7758C190.992 53.7821 191.397 53.6804 191.758 53.4806ZM188.781 54.4199C188.259 54.1245 187.828 53.688 187.534 53.1586C187.237 52.6221 187.081 52.0167 187.081 51.4008C187.081 50.7849 187.237 50.1794 187.534 49.643C187.838 49.1399 188.269 48.729 188.781 48.4532C189.337 48.1649 189.953 48.0146 190.577 48.0146C191.201 48.0146 191.816 48.1649 192.372 48.4532C192.891 48.7401 193.324 49.1633 193.628 49.6788C193.925 50.2152 194.081 50.8207 194.081 51.4366C194.081 52.0525 193.925 52.6579 193.628 53.1944C193.324 53.7098 192.891 54.133 192.372 54.4199C191.816 54.7082 191.201 54.8585 190.577 54.8585C189.953 54.8585 189.337 54.7082 188.781 54.4199Z" fill="white"/>
<path d="M196.034 54.0539C195.769 53.7522 195.566 53.3999 195.436 53.0175C195.307 52.6351 195.253 52.2302 195.278 51.8265V48.0693H196.49V51.8175C196.49 53.1235 197.043 53.7766 198.141 53.7766C199.239 53.7766 199.792 53.1235 199.792 51.8175V48.1051H200.977V51.8622C200.995 52.262 200.935 52.6613 200.801 53.0374C200.667 53.4135 200.461 53.7589 200.196 54.0539C199.605 54.5513 198.863 54.8235 198.097 54.8235C197.331 54.8235 196.589 54.5513 195.998 54.0539" fill="white"/>
<path d="M206.588 51.4589C206.725 51.3377 206.833 51.1859 206.903 51.0151C206.973 50.8444 207.003 50.6595 206.992 50.4749C207.003 50.2915 206.973 50.1079 206.903 49.9386C206.833 49.7694 206.725 49.6191 206.588 49.4998C206.239 49.2436 205.813 49.1201 205.385 49.1509H203.971V51.8346H205.385C205.812 51.8635 206.236 51.7436 206.588 51.4946V51.4589ZM206.913 48.4263C207.31 48.5935 207.647 48.8807 207.878 49.2493C208.097 49.6325 208.212 50.0676 208.212 50.5106C208.212 50.9536 208.097 51.3888 207.878 51.772C207.647 52.1405 207.31 52.4278 206.913 52.5949C206.449 52.7942 205.949 52.8918 205.446 52.8812H203.971V54.7687H202.768V48.1043H205.402C205.905 48.0937 206.405 48.1913 206.869 48.3905" fill="white"/>
<path d="M165.839 34.8916H164.618V56.2893H165.839V34.8916Z" fill="white"/>
<path d="M9.71138 43.025C9.71138 42.9444 9.77285 42.8639 9.79919 42.7745H9.72016L9.20211 42.1662L9.89577 42.524C10.0349 42.2158 10.1932 41.917 10.3699 41.6295L7.086 39.6525L3.29282 35.1797L3.17867 35.3318L6.58552 39.3662L2.19525 36.7989L1.89672 37.3267L7.25284 40.4755L1.75623 37.6666C1.66842 37.8544 1.57184 38.0334 1.49281 38.2212L8.78065 41.9157L9.37772 42.6224L0.878174 39.6346C0.853805 39.6928 0.833271 39.7526 0.816711 39.8135L9.59724 42.9087L9.71138 43.025ZM10.9055 40.8512L3.59136 34.8219L3.51233 34.974L10.8177 41.0033C10.8561 40.9504 10.8971 40.8996 10.9407 40.8512H10.9055ZM9.6587 43.0697L0.623539 40.556C0.562076 40.7528 0.509392 40.9496 0.456709 41.1553L9.54455 43.669C9.58084 43.466 9.63071 43.2658 9.69382 43.0697H9.6587ZM27.5534 45.324H25.4022L25.2353 46.3885L29.7222 47.1131L27.5534 45.324ZM25.5163 43.4007L25.5602 43.1144L25.2529 43.177L25.5163 43.4007ZM25.0597 43.025L25.5954 42.9176V42.8013L24.9895 42.9713L25.0597 43.025ZM24.8139 43.0697L24.4451 43.177L24.8139 43.0697ZM23.33 41.5937L25.9641 40.5202L26.2715 38.5701L22.487 40.9049L23.33 41.5937ZM22.329 40.7707L26.3417 38.3286L26.7983 35.4481L21.53 40.0819L22.329 40.7707ZM25.648 43.7585L25.4636 44.7067H26.7719L25.648 43.7585ZM25.0246 46.5495L22.1183 46.0754L22.6012 46.6389L24.9017 47.283L25.0246 46.5495ZM24.8051 47.8913L23.3124 47.4798L23.409 47.5872L24.7788 48.0702L24.8051 47.8913ZM24.6646 49.9935L25.6305 50.566H25.7007L25.6217 50.4766L24.6646 49.9935ZM24.6646 49.0185L24.7875 48.267L23.69 47.8824L24.6646 49.0185ZM23.0841 47.4619L23.0227 47.3814L22.3378 47.1936L23.0841 47.4619ZM24.4188 50.5571L23.2246 50.3603L22.2851 50.2082L24.2256 51.8095L24.4188 50.5571ZM24.1905 52.0241L21.9163 50.1545L21.0734 50.0204L23.971 52.9724L24.1905 52.0241ZM23.927 53.7149L20.1251 49.8593H19.9846L23.8217 54.3321L23.927 53.7149ZM23.3036 50.1814L24.0061 50.2977L22.0392 49.1437L23.3036 50.1814ZM23.1368 58.7065L19.3524 54.2337L20.5729 57.633L23.049 59.0553L23.1368 58.7065ZM20.3534 57.4451L18.9924 53.8669L18.808 53.6522L19.7826 57.141L20.3534 57.4451ZM18.7904 53.3123L18.5358 52.6235L18.6939 53.196L18.7904 53.3123ZM18.009 56.1123L17.7719 55.2177L17.93 56.0228L18.009 56.1123ZM12.9777 52.7845L12.7319 53.0976L12.846 53.1692L12.9777 52.7845ZM12.7846 53.3481L12.609 53.2497L12.1875 53.7775V55.0567L12.7846 53.3481ZM12.1875 53.4733L12.4421 53.1513L12.1787 53.0082L12.1875 53.4733ZM12.0031 53.7059V53.2318L11.125 54.7883L12.0031 53.7059ZM10.168 48.267L8.99138 48.0792L6.77869 48.9737L6.47137 49.5283L7.34942 50.0114L10.168 48.267ZM7.10357 50.1277L6.34844 49.6983L5.6021 51.0491L7.10357 50.1277ZM5.95332 47.0236L4.926 47.2294H5.13673L5.95332 47.0236ZM5.26844 48.7501H5.17185H5.23331H5.26844ZM4.75039 47.3814L4.39038 47.3367L3.05574 47.5961L3.36306 47.775L4.75039 47.3814ZM2.84501 47.453L3.88989 47.2472L1.87915 46.8984L2.84501 47.453ZM15.5856 38.4001V35.4302L14.6373 34.6519L14.049 35.7344L14.2509 36.781L15.5856 38.4001ZM14.7075 34.482L15.5856 35.1797V32.9791L14.7075 34.482ZM13.4519 33.7842V33.6679L13.1709 33.4801L13.3114 33.99L13.4519 33.7842ZM12.2929 35.7433L11.766 33.8558V34.3746L12.2929 35.7433ZM12.1875 36.0027L11.7748 34.9203V36.7094L12.1875 36.0027ZM11.5816 33.8558V33.1491L11.2392 31.8878L10.6772 31.4226L11.5816 33.8558ZM31.3993 45.324H27.8871L30.1261 47.1757L31.2676 47.3635V47.5514L30.451 47.4172L31.1798 48.0255C31.1833 48.097 31.1833 48.1687 31.1798 48.2402L30.1085 47.3456L25.3056 46.5674L25.1827 47.3188L31.0217 48.9379C30.969 49.1347 30.9163 49.3315 30.8549 49.5283L25.0861 47.936V48.1239L30.7056 50.1098C30.6812 50.171 30.6607 50.2338 30.6442 50.2977L24.928 48.3296L24.7875 49.2242L25.0334 49.5015L27.8519 50.9328L30.1437 51.3085L30.0559 51.4874L28.4139 51.2191L29.8539 51.9526C29.7661 52.1404 29.6695 52.3194 29.5817 52.4983L26.4295 50.8881H26.1836L26.2539 50.9686L29.4149 52.8292C29.3183 53.0082 29.2217 53.1871 29.1163 53.357L27.4656 52.3551L28.7651 53.8759L28.6598 54.0458L26.9651 52.0599L24.5856 50.6465L24.3749 51.9436L28.0012 54.9493C27.9573 54.9941 27.9222 55.0477 27.8783 55.1014L24.3222 52.1673L24.1729 53.1602L27.0441 56.0854L26.6227 56.5237L24.05 53.9117L23.9534 54.5557L26.0607 57.0426L25.9202 57.1678L23.9095 54.8062L23.3914 58.125L23.7602 58.7601L23.5934 58.8585L23.3388 58.4202V58.6796L23.5407 58.9122L23.3739 59.0106L23.2949 58.9211V59.0643C23.2099 59.1173 23.122 59.1651 23.0314 59.2074L20.7397 57.9014L21.5036 59.923L21.328 59.9857L20.45 57.7582L19.8441 57.4094L20.6256 60.2272C20.1778 60.3793 19.7475 60.5134 19.247 60.6208L18.0704 56.3985L17.9651 56.3359L18.8431 60.7192H18.6587L17.7807 56.1749L16.0246 55.173L16.086 60.9876H15.8051V55.0746L14.3826 54.2605L13.3465 60.8176H13.1621L14.207 54.1979L12.9514 53.4823L12.2138 55.665L12.2665 60.6387H12.0821L12.0294 56.2464L10.6772 60.2272L10.5016 60.1646L12.0207 55.6918V54.0995L10.6158 55.8886L8.64016 59.2879C8.21228 59.0723 7.79607 58.8334 7.39332 58.5723L10.8528 52.3104L10.2909 51.9884L5.90063 57.5256L5.76015 57.4094L10.1504 51.8989L8.90357 51.1833L3.89867 55.5666L3.77575 55.4145L8.72796 51.0849L7.3143 50.2798L5.41771 51.3711L3.44209 54.9493C3.10729 54.5327 2.79652 54.0966 2.51135 53.6433L2.9416 52.865L2.28306 53.2765L2.18647 53.1602L3.12599 52.5877L4.62746 49.8414L1.2294 51.2101C1.15037 51.0222 1.08013 50.8254 1.0011 50.6376L5.09283 48.9827L4.87331 48.8574L0.79915 50.0472C0.649881 49.582 0.518173 49.1169 0.412807 48.6875L3.11721 47.8913L2.76599 47.7035L0.30744 48.1865C0.302468 48.124 0.302468 48.0612 0.30744 47.9987L2.54647 47.5514L1.36988 46.8805L0.0791468 46.63C0.0745714 46.5645 0.0745714 46.4987 0.0791468 46.4332L0.869394 46.5674L0.0528052 46.1022C0.048781 46.0247 0.048781 45.9471 0.0528052 45.8696L1.42257 46.6568L4.40795 47.1399L6.34844 46.7552L7.12991 45.324H0.00012207C0.00012207 45.2166 0.00012207 45.1093 0.00012207 45.0019C0.00012207 44.8946 0.00012207 44.8051 0.00012207 44.7067H7.44601L7.75332 44.1431L8.7543 44.7067H9.41284C9.41284 44.8051 9.41284 44.9035 9.41284 45.0019C9.41284 45.1003 9.41284 45.2166 9.41284 45.324H8.78065L8.16601 46.3706L9.48309 46.0038C9.5687 46.5851 9.73423 47.1513 9.9748 47.6856L9.2987 47.9539L10.1767 48.0971C10.2294 48.1955 10.2909 48.2849 10.3524 48.3833L7.48991 50.1724L8.85967 50.9596L10.888 49.1705C10.9242 49.2223 10.9654 49.2702 11.0109 49.3137L9.03528 51.0491L10.2558 51.7468L11.6694 49.9577C11.7153 50.0014 11.7653 50.0403 11.8187 50.074L10.4226 51.8631L10.9494 52.1673L12.0031 50.2529C12.3889 50.5418 12.8039 50.7877 13.2412 50.9865L12.2051 52.8829L12.5387 53.0708L13.127 52.3283L13.5485 51.0938L13.7241 51.1654L13.4782 51.89L13.9875 51.2459L14.1894 51.2996L13.3114 52.4267L13.0041 53.3212L14.2334 54.019L14.6197 51.3711H14.8129L14.3826 54.0548L15.7699 54.842V51.4159H15.9543L15.9982 54.9941L17.7104 55.9781L17.1573 53.0708L16.6831 51.3711C17.1677 51.296 17.6421 51.1639 18.0968 50.9775L19.1504 53.7685L23.1631 58.4828L23.2158 58.1608L18.8256 50.6197L18.9836 50.5213L23.2597 57.8656L23.7778 54.6183L19.7914 49.9309C20.0113 49.7412 20.2167 49.5349 20.4061 49.3137L20.9065 49.8236L21.609 49.9309L20.5992 49.099C20.6421 49.0522 20.6803 49.0013 20.7134 48.9469L21.9514 49.9667L22.8822 50.1188L20.9592 48.5354C21.1343 48.2484 21.2898 47.9495 21.4246 47.6408L24.5856 49.2689L23.2949 47.7929L21.6266 47.2025C21.7152 46.9669 21.7857 46.7247 21.8373 46.4779L22.2763 46.5942L21.9514 46.1112C21.9514 46.0217 21.9514 45.9412 21.9514 45.8517L25.0597 46.3527L25.2178 45.324H21.9514C21.9514 45.2166 21.9514 45.1093 21.9514 45.0019C21.9514 44.8946 21.9514 44.8051 21.9514 44.7067H25.2793L25.4636 43.6154L24.9895 43.2218L22.2851 43.7674L21.8812 43.8837C21.7932 43.3562 21.6398 42.8422 21.4246 42.354L23.1105 41.6742L22.3027 41.0122L21.0997 41.7368C21.0708 41.6812 21.0385 41.6274 21.0031 41.5758L22.1446 40.878L21.328 40.2071L20.529 40.9049C20.4928 40.8531 20.4516 40.8052 20.4061 40.7617L21.1787 40.0819L20.3007 39.3483L19.73 40.0729L19.5807 39.9566L20.1514 39.2321L19.8002 38.9369L19.3173 39.7419C18.927 39.4553 18.5057 39.2152 18.0617 39.0263L18.6412 37.9707L18.2285 37.6308L17.7895 38.9279L17.6139 38.8653L18.0792 37.5056L17.1221 36.7273L16.806 38.6864H16.6217L16.9553 36.611L15.7348 35.5823V38.588H15.4626L14.2773 37.1567L14.4353 37.9886L14.6285 38.6864C14.155 38.7646 13.6922 38.8997 13.2499 39.0889L12.8899 37.7739L12.2402 38.9547L12.5387 39.4557L12.3807 39.5541L12.1348 39.1426L11.8626 39.6346V39.9209L11.6694 40.064V39.9745L11.6255 40.064C11.5766 40.1032 11.5297 40.145 11.485 40.1892L11.4148 40.0998L11.248 40.0103L11.485 40.2429C11.3358 40.386 11.1865 40.5292 11.0548 40.6812L9.2987 38.8921L3.96014 34.3746L4.08307 34.2315L7.84113 37.4161L4.39038 33.9095L4.82063 33.4801L10.4577 39.2052L10.5368 39.071L5.34746 32.9791L5.49673 32.8539L10.6333 38.8921L11.2919 37.6934L7.57771 31.3153L7.73576 31.2169L11.4148 37.5056L11.6519 37.0583V34.4283L10.405 31.1811L9.39528 30.3492L9.58845 30.2597L10.2646 30.8233L9.99236 30.0987L10.168 30.0271L10.5368 31.0648L11.1514 31.5657L10.686 29.8482C11.1375 29.687 11.5978 29.5526 12.0646 29.4457L13.0919 33.158L13.3641 33.3727L12.5826 29.3204H12.7758L13.5836 33.5516L15.489 30.0808V29.0073H15.6734V29.714L16.0597 29.0073C16.5852 29.019 17.1098 29.0579 17.6314 29.1236L15.7085 32.6482V35.3318L16.9641 36.3695L18.0968 29.2131H18.2812L17.1573 36.5037L18.1758 37.3445L20.7222 29.8482L20.8978 29.9108L18.3339 37.4698L18.7729 37.8366L22.6978 30.6801C23.128 30.9038 23.5758 31.1364 23.9534 31.3958L19.9056 38.7669L20.2831 39.08L25.5075 32.514L25.6568 32.6303L20.3885 39.2052L21.2666 39.9566L26.7368 35.1529L26.9388 33.9184L27.0968 34.0884L26.9651 34.9829L27.4744 34.5357L27.5973 34.6788L26.9915 35.2692L26.5261 38.2123L29.0812 36.6468C29.1166 36.6984 29.1488 36.7522 29.1778 36.8078L26.491 38.4627L26.1749 40.4576L30.1876 38.8474L30.4071 39.4199L26.0168 41.209L30.5212 39.894C30.6705 40.3592 30.8022 40.7886 30.9163 41.2985L25.8149 42.7387V42.8729L31.0832 41.8173C31.079 41.8799 31.079 41.9426 31.0832 42.0052L25.7183 43.0786L25.6393 43.5348L27.0617 44.7067H31.3554C31.3554 44.8051 31.3554 44.9035 31.3554 45.0019C31.3554 45.1003 31.3554 45.2166 31.3554 45.324H31.3993ZM9.40406 44.0179L0.193294 42.5061C0.189125 42.4436 0.189125 42.3808 0.193294 42.3183L9.47431 43.8301V44.0179" fill="white"/>
</g>
<defs>
<clipPath id="clip0_280_5839">
<rect width="224" height="32" fill="white" transform="translate(0 29)"/>
</clipPath>
</defs>
</svg>
