<svg width="24" height="24" viewBox="0 0 24 24" fill="none" xmlns="http://www.w3.org/2000/svg">
<path fill-rule="evenodd" clip-rule="evenodd" d="M14.25 3C14.25 2.58579 14.5858 2.25 15 2.25L20.9998 2.25H21C21.0007 2.25 21.0015 2.25 21.0022 2.25C21.1031 2.2503 21.1993 2.27051 21.2871 2.30691C21.3755 2.34351 21.4584 2.39776 21.5303 2.46967C21.6022 2.54158 21.6565 2.62445 21.6931 2.71291C21.7251 2.79009 21.7446 2.87376 21.749 2.96141C21.7497 2.97419 21.75 2.98706 21.75 3V9C21.75 9.41421 21.4142 9.75 21 9.75C20.5858 9.75 20.25 9.41421 20.25 9V4.81066L10.5303 14.5303C10.2374 14.8232 9.76256 14.8232 9.46967 14.5303C9.17678 14.2374 9.17678 13.7626 9.46967 13.4697L19.1893 3.75L15 3.75C14.5858 3.75 14.25 3.41421 14.25 3ZM5.13333 5.75C4.76645 5.75 4.41459 5.89574 4.15517 6.15517C3.89574 6.41459 3.75 6.76645 3.75 7.13333L3.75 18.8667C3.75 19.2336 3.89574 19.5854 4.15517 19.8448C4.41459 20.1043 4.76645 20.25 5.13333 20.25L16.8667 20.25C17.2336 20.25 17.5854 20.1043 17.8448 19.8448C18.1043 19.5854 18.25 19.2336 18.25 18.8667L18.25 12.4667C18.25 12.0525 18.5858 11.7167 19 11.7167C19.4142 11.7167 19.75 12.0525 19.75 12.4667L19.75 18.8667C19.75 19.6314 19.4462 20.3648 18.9055 20.9055C18.3648 21.4462 17.6314 21.75 16.8667 21.75L5.13333 21.75C4.36863 21.75 3.63524 21.4462 3.09451 20.9055C2.55378 20.3648 2.25 19.6314 2.25 18.8667L2.25 7.13333C2.25 6.36863 2.55378 5.63524 3.09451 5.09451C3.63524 4.55378 4.36863 4.25 5.13333 4.25L11.5333 4.25C11.9475 4.25 12.2833 4.58579 12.2833 5C12.2833 5.41421 11.9475 5.75 11.5333 5.75L5.13333 5.75Z" fill="#009FE3"/>
</svg>
