<svg width="88" height="88" viewBox="0 0 88 88" fill="none" xmlns="http://www.w3.org/2000/svg">
<path d="M84.9829 35.6882L82.8368 33.9853L83.3885 33.2024L85.7303 29.8795C87.2013 27.7921 86.7865 24.9137 84.7862 23.3268C82.7863 21.7399 79.8887 21.9901 78.1904 23.8969L75.4876 26.9317C75.4875 26.932 75.4871 26.9322 75.4868 26.9326L72.2516 30.5651C72.2514 30.5655 72.2511 30.5657 72.2509 30.566L61.3946 42.7561C58.8625 45.5992 56.5735 48.6885 54.5912 51.9383C54.2207 52.5461 54.4128 53.3393 55.0206 53.71C55.2303 53.8379 55.4616 53.8987 55.6905 53.8987C56.125 53.8987 56.5494 53.6789 56.7923 53.2807C58.6941 50.1625 60.8903 47.1984 63.3197 44.4705L73.3669 33.1892L77.7773 36.6887L69.075 49.0371C66.9711 52.0227 64.5837 54.8351 61.9793 57.3964L55.6551 63.6157C55.6031 63.6667 55.5202 63.6714 55.4632 63.626L52.207 61.0422C52.1498 60.9968 52.1353 60.9155 52.1735 60.8531L53.6012 58.5125C53.9718 57.9046 53.7796 57.1114 53.1719 56.7407C52.5645 56.3701 51.7709 56.5619 51.4 57.1699L49.9724 59.5104C49.6261 60.0782 49.5134 60.7292 49.6094 61.3466C48.4472 62.4533 47.2623 62.9921 45.9253 63.0308C45.1269 63.0538 44.4613 63.67 44.3765 64.4641L43.479 72.8875C43.3382 74.2061 44.6206 75.2676 45.9116 74.8178L53.9108 72.0288C54.665 71.7658 55.1136 70.9773 54.9544 70.1949C54.6878 68.884 54.9434 67.6077 55.7572 66.2242C56.3805 66.1775 56.9886 65.9198 57.4628 65.4537L63.7871 59.2342C66.5015 56.5647 68.9899 53.6335 71.1825 50.5219L80.5865 37.178L81.3494 36.0956L83.3806 37.7072C83.7022 37.9625 83.7564 38.4319 83.5011 38.7534L77.4638 46.362C77.0213 46.9197 77.1148 47.7305 77.6723 48.1731C77.9093 48.3611 78.1919 48.4524 78.4728 48.4524C78.8526 48.4524 79.2288 48.2851 79.4834 47.9644L85.5208 40.3557C86.6593 38.921 86.418 36.8267 84.9829 35.6882ZM48.4412 71.2059L50.5814 68.5086C51.024 67.9509 50.9305 67.1401 50.3729 66.6976C49.8152 66.255 49.0043 66.3483 48.5619 66.9061L46.4217 69.6033L46.8551 65.5366C48.3924 65.3207 49.7987 64.6368 51.1133 63.4656L53.3517 65.2418C52.5102 66.7882 52.1638 68.313 52.3031 69.8592L48.4412 71.2059ZM80.1155 25.6115C80.9056 24.7247 82.2535 24.6081 83.1838 25.3463C84.1142 26.0845 84.3072 27.4234 83.623 28.3944L82.0673 30.6018L78.3194 27.6283L80.1155 25.6115ZM76.6021 29.5568L80.5796 32.7127L79.2649 34.5781L75.0844 31.2609L76.6021 29.5568Z" fill="#009FE3"/>
<path d="M11.4279 75.678C11.6771 76.3447 12.4194 76.6837 13.0861 76.4343C13.1537 76.4092 14.3219 75.9704 15.8279 75.2623C16.6692 75.9123 17.6931 76.3044 18.8326 76.3838C22.0609 76.6084 23.6052 75.9699 24.6272 75.5474C25.4857 75.1925 25.5756 75.1554 26.6629 75.9224C28.0479 76.8994 30.0041 77.2194 31.6471 77.2194C32.4848 77.2194 33.2411 77.1362 33.7979 77.0144C34.4933 76.8623 34.9339 76.1751 34.7817 75.4795C34.6296 74.7841 33.9428 74.3436 33.2469 74.4957C32.1466 74.7363 29.5219 74.7839 28.1491 73.8158C26.0584 72.3409 25.0074 72.6004 23.6422 73.1649C22.7483 73.5344 21.6355 73.9947 19.0117 73.8118C18.8917 73.8036 18.7767 73.7895 18.6664 73.7704C21.5011 72.0845 22.9449 70.463 23.0714 68.8302C23.1455 67.8742 22.8009 66.4915 20.7389 65.3324C18.0186 63.8034 16.2108 64.7145 15.3753 65.3937C13.6499 66.7966 12.9923 69.6934 13.8116 72.2814C13.912 72.5989 14.032 72.9009 14.1698 73.1867C13.0289 73.7015 12.1972 74.0141 12.1838 74.0191C11.5171 74.2688 11.1787 75.0113 11.4279 75.678ZM17.0018 67.3943C17.2587 67.1855 17.5647 67.081 17.9177 67.081C18.3634 67.081 18.8842 67.2474 19.4758 67.58C19.7946 67.7591 20.5328 68.2204 20.501 68.631C20.4554 69.2207 19.3869 70.4628 16.5254 72.0228C16.5113 72.0303 16.497 72.0382 16.4829 72.0458C16.3903 71.8519 16.321 71.6663 16.2694 71.5034C15.7816 69.9625 16.1101 68.1191 17.0018 67.3943Z" fill="#009FE3"/>
<path d="M48.1445 29.2264H13.2977C12.5858 29.2264 12.0087 29.8036 12.0087 30.5155C12.0087 31.2274 12.5858 31.8046 13.2977 31.8046H48.1445C48.8566 31.8046 49.4336 31.2274 49.4336 30.5155C49.4336 29.8036 48.8566 29.2264 48.1445 29.2264Z" fill="#009FE3"/>
<path d="M48.1445 36.7886H13.2977C12.5858 36.7886 12.0087 37.3657 12.0087 38.0776C12.0087 38.7895 12.5858 39.3667 13.2977 39.3667H48.1445C48.8566 39.3667 49.4336 38.7895 49.4336 38.0776C49.4336 37.3657 48.8566 36.7886 48.1445 36.7886Z" fill="#009FE3"/>
<path d="M49.4336 45.6394C49.4336 44.9275 48.8566 44.3503 48.1445 44.3503H13.2977C12.5858 44.3503 12.0087 44.9275 12.0087 45.6394C12.0087 46.3513 12.5858 46.9285 13.2977 46.9285H48.1445C48.8566 46.9285 49.4336 46.3513 49.4336 45.6394Z" fill="#009FE3"/>
<path d="M13.2977 54.4904H28.1053C28.8172 54.4904 29.3943 53.9132 29.3943 53.2013C29.3943 52.4894 28.8172 51.9122 28.1053 51.9122H13.2977C12.5858 51.9122 12.0087 52.4894 12.0087 53.2013C12.0087 53.9132 12.5858 54.4904 13.2977 54.4904Z" fill="#009FE3"/>
<path d="M65.1959 61.2283C64.4838 61.2283 63.9068 61.8054 63.9068 62.5173V76.7174C63.9068 79.1718 61.9102 81.1686 59.4558 81.1686H11.3532C8.89882 81.1686 6.90198 79.1718 6.90198 76.7174V11.2828C6.90198 8.82839 8.89882 6.83154 11.3532 6.83154H47.4952C47.6688 6.83154 47.8396 6.8489 48.0074 6.87709V15.7017C48.0074 19.5776 51.1608 22.7308 55.0366 22.7308H63.8611C63.8893 22.8988 63.9067 23.0694 63.9067 23.243V34.1979C63.9067 34.9098 64.4837 35.4869 65.1957 35.4869C65.9078 35.4869 66.4848 34.9098 66.4848 34.1979V23.243C66.4848 21.7371 65.8984 20.3213 64.8336 19.2566L51.4817 5.90462C50.4169 4.83986 49.001 4.25342 47.4952 4.25342H11.3532C7.47724 4.25342 4.32385 7.40681 4.32385 11.2828V76.7174C4.32385 80.5934 7.47724 83.7467 11.3532 83.7467H59.4556C63.3316 83.7467 66.4848 80.5934 66.4848 76.7174V62.5173C66.485 61.8054 65.908 61.2283 65.1959 61.2283ZM62.0838 20.1529H55.0367C52.5823 20.1529 50.5857 18.156 50.5857 15.7018V8.65462L62.0838 20.1529Z" fill="#009FE3"/>
<path d="M14.2039 22.8052H27.6885C28.899 22.8052 29.8837 21.8205 29.8837 20.61V15.7001C29.8837 14.4896 28.899 13.5049 27.6885 13.5049H14.2039C12.9935 13.5049 12.0087 14.4896 12.0087 15.7001V20.61C12.0087 21.8204 12.9935 22.8052 14.2039 22.8052ZM14.5868 16.083H27.3055V20.2271H14.5868V16.083Z" fill="#009FE3"/>
</svg>
