<svg width="88" height="88" viewBox="0 0 88 88" fill="none" xmlns="http://www.w3.org/2000/svg">
<path d="M47.1823 31.1462C47.8943 31.1462 48.4713 30.5691 48.4713 29.8572C48.4713 29.1453 47.8943 28.5681 47.1823 28.5681H12.6709C11.9588 28.5681 11.3818 29.1453 11.3818 29.8572C11.3818 30.5691 11.9588 31.1462 12.6709 31.1462H47.1823Z" fill="#009FE3"/>
<path d="M24.9823 54.0016C24.9823 53.2895 24.4053 52.7125 23.6932 52.7125H12.6709C11.9588 52.7125 11.3818 53.2895 11.3818 54.0016C11.3818 54.7137 11.9588 55.2906 12.6709 55.2906H23.6932C24.4053 55.2906 24.9823 54.7137 24.9823 54.0016Z" fill="#009FE3"/>
<path d="M11.3818 16.8342C11.3818 17.5461 11.9588 18.1233 12.6709 18.1233H56.7601C57.4722 18.1233 58.0492 17.5461 58.0492 16.8342C58.0492 16.1223 57.4722 15.5452 56.7601 15.5452H12.6709C11.959 15.5452 11.3818 16.1223 11.3818 16.8342Z" fill="#009FE3"/>
<path d="M12.6709 24.6348H56.7601C57.4722 24.6348 58.0492 24.0578 58.0492 23.3457C58.0492 22.6338 57.4722 22.0566 56.7601 22.0566H12.6709C11.9588 22.0566 11.3818 22.6338 11.3818 23.3457C11.3818 24.0576 11.959 24.6348 12.6709 24.6348Z" fill="#009FE3"/>
<path d="M12.6709 37.6577H39.1601C39.8722 37.6577 40.4492 37.0807 40.4492 36.3686C40.4492 35.6566 39.8722 35.0796 39.1601 35.0796H12.6709C11.9588 35.0796 11.3818 35.6566 11.3818 36.3686C11.3818 37.0807 11.959 37.6577 12.6709 37.6577Z" fill="#009FE3"/>
<path fill-rule="evenodd" clip-rule="evenodd" d="M0 57.6052V10.8692C0 7.16921 3.01021 4.15918 6.70997 4.15918H81.29C84.9898 4.15918 88 7.16921 88 10.8692V31.2294C88 31.2544 87.9993 31.2792 87.9979 31.3038C87.9986 31.3165 87.9991 31.3291 87.9995 31.3419C87.9998 31.354 88 31.3661 88 31.3783V57.6052C88 60.1359 86.5917 62.3439 84.5176 63.4867C84.5176 63.4867 83.2568 63.8256 82.8206 62.9026C82.3432 61.8924 83.3431 61.19 83.3431 61.19C84.5843 60.4764 85.4219 59.1368 85.4219 57.6052V31.3783C85.4219 31.3533 85.4226 31.3285 85.424 31.3038C85.4232 31.2906 85.4227 31.2773 85.4223 31.2639C85.422 31.2524 85.4219 31.2409 85.4219 31.2294V10.8692C85.4219 8.59079 83.5684 6.7373 81.29 6.7373H6.70997C4.43161 6.7373 2.57811 8.59079 2.57811 10.8692V57.6054C2.57811 59.8838 4.43161 61.7373 6.70997 61.7373H38.6445C38.6445 61.7373 39.9311 61.7112 39.9311 62.9843C39.9311 64.2575 38.6445 64.3152 38.6445 64.3152H6.70997C3.01021 64.3152 0 61.305 0 57.6052Z" fill="#009FE3"/>
<path d="M79.2057 53.8402C80.1105 52.5121 80.3446 50.874 79.848 49.3456C79.3515 47.8173 78.1991 46.6297 76.6866 46.0872C75.6831 45.7273 75.0137 44.8061 74.9817 43.7405C74.9331 42.1343 74.1595 40.6713 72.8592 39.7267C71.5594 38.7822 69.9286 38.4988 68.3865 38.9488C67.3625 39.2475 66.2802 38.8955 65.6278 38.0524C64.6445 36.7814 63.1588 36.0525 61.5518 36.0525C59.9449 36.0525 58.459 36.7814 57.4756 38.0524C56.8231 38.8956 55.7402 39.2471 54.717 38.9488C53.1747 38.4984 51.5442 38.7822 50.2439 39.7267C48.9439 40.6713 48.1706 42.1341 48.1218 43.7403C48.0897 44.8059 47.4204 45.727 46.4168 46.0871C44.9043 46.6295 43.7519 47.8173 43.2555 49.3455C42.7589 50.8738 42.993 52.5121 43.8978 53.84C44.498 54.7212 44.498 55.8597 43.8978 56.7407C42.993 58.0688 42.7589 59.707 43.2555 61.2353C43.7519 62.7636 44.9043 63.9512 46.4168 64.4939C47.4204 64.8539 48.0898 65.775 48.1218 66.8406C48.1667 68.3181 48.8437 69.7063 49.9798 70.649C50.7293 71.2712 51.6298 71.6605 52.5722 71.7906V83.5259C52.5722 84.5161 53.1093 85.4313 53.9736 85.9141C54.8369 86.3966 55.8983 86.3751 56.742 85.8555L61.4694 82.9453C61.5464 82.8977 61.5923 82.9192 61.6348 82.9453L66.3619 85.8555C67.2052 86.3746 68.2662 86.3969 69.1304 85.9139C69.9949 85.431 70.5319 84.5158 70.5319 83.5257V71.7903C71.4739 71.6604 72.3744 71.2711 73.1239 70.649C74.2602 69.7063 74.9374 68.3182 74.9822 66.8405C75.0142 65.7748 75.6837 64.8536 76.6871 64.4937C78.1997 63.9512 79.3522 62.7634 79.8485 61.2351C80.3451 59.7068 80.111 58.0686 79.2062 56.7406C78.6054 55.8599 78.6054 54.7214 79.2057 53.8402ZM67.713 83.6603L62.9857 80.7501C62.1069 80.2093 60.9973 80.2084 60.1176 80.7501L55.3904 83.6602C55.2828 83.7256 55.1499 83.6502 55.1499 83.5257V71.5459C56.0361 71.4433 56.9147 71.8039 57.4756 72.5287C58.4592 73.7995 59.9449 74.5284 61.5519 74.5284C63.1588 74.5284 64.6445 73.7995 65.6278 72.5287C66.1888 71.8037 67.0676 71.4433 67.9536 71.5459V83.5257C67.9536 83.651 67.819 83.7258 67.713 83.6603ZM77.0753 58.1926C77.5277 58.8564 77.6446 59.675 77.3964 60.4388C77.1482 61.2026 76.5723 61.7963 75.8162 62.0675C73.8083 62.7877 72.4694 64.6307 72.405 66.7628C72.3821 67.5123 72.0526 68.188 71.4774 68.6654C70.8306 69.2022 69.9547 69.4047 69.1088 69.1579C67.0612 68.5604 64.8944 69.2644 63.5888 70.9512C63.0974 71.5863 62.3548 71.9506 61.5516 71.9506C60.7486 71.9506 60.0059 71.5864 59.5142 70.9512C58.5175 69.6628 57.0186 68.9478 55.454 68.9478C54.9696 68.9478 54.4788 69.0164 53.9948 69.1577C53.1405 69.4066 52.2672 69.1979 51.6256 68.6653C51.0504 68.1878 50.7209 67.5122 50.6984 66.7628C50.6337 64.6307 49.2948 62.7876 47.2868 62.0673C46.5309 61.7961 45.9551 61.2026 45.7068 60.4388C45.4586 59.675 45.5755 58.8562 46.0278 58.1924C47.2287 56.4295 47.2287 54.1516 46.0278 52.3887C45.5755 51.7249 45.4586 50.9061 45.7068 50.1421C45.955 49.3783 46.5309 48.7846 47.2868 48.5136C49.2948 47.7933 50.6337 45.9503 50.6984 43.8181C50.7226 43.0153 51.109 42.2842 51.7588 41.8122C52.4084 41.3401 53.223 41.1984 53.9946 41.4232C56.0416 42.0209 58.209 41.3167 59.5142 39.6299C60.0057 38.9946 60.7482 38.6303 61.5516 38.6303C62.3548 38.6303 63.0973 38.9945 63.5888 39.6297C64.8942 41.3167 67.0605 42.0207 69.1086 41.4232C69.8796 41.1981 70.6943 41.3399 71.3442 41.812C71.994 42.284 72.3807 43.0153 72.4048 43.818C72.4694 45.9501 73.8083 47.7933 75.8162 48.5134C76.5723 48.7845 77.148 49.3781 77.3964 50.1419C77.6446 50.9058 77.5277 51.7247 77.0753 52.3884C75.8741 54.1514 75.8741 56.4296 77.0753 58.1926Z" fill="#009FE3"/>
<path d="M61.5516 44.4877C55.5947 44.4877 50.7485 49.3339 50.7485 55.2907C50.7485 61.2475 55.5947 66.0937 61.5516 66.0937C67.5082 66.0937 72.3544 61.2475 72.3544 55.2907C72.3544 49.3339 67.5082 44.4877 61.5516 44.4877ZM61.5516 63.516C57.0161 63.516 53.3263 59.8261 53.3263 55.2909C53.3263 50.7556 57.0161 47.0656 61.5516 47.0656C66.087 47.0656 69.7766 50.7554 69.7766 55.2909C69.7766 59.8263 66.0868 63.516 61.5516 63.516Z" fill="#009FE3"/>
</svg>
