<svg width="88" height="82" viewBox="0 0 88 82" fill="none" xmlns="http://www.w3.org/2000/svg">
<path d="M18.8996 76.6726H16.3004V78.5292H18.8996V76.6726Z" fill="#009FE3"/>
<path d="M73.6534 76.6726H71.0542V78.5292H73.6534V76.6726Z" fill="#009FE3"/>
<path d="M62.2004 76.6726L62.2416 78.5292H64.742V76.6726H62.2004Z" fill="#009FE3"/>
<path fill-rule="evenodd" clip-rule="evenodd" d="M73.6534 74.0735V60.5207C73.6534 60.1761 73.5165 59.8455 73.2728 59.6018C73.029 59.3581 72.6985 59.2211 72.3538 59.2211H63.4424C63.2717 59.221 63.1027 59.2546 62.945 59.3199C62.7873 59.3852 62.644 59.4809 62.5233 59.6016C62.4026 59.7223 62.3069 59.8656 62.2416 60.0233C62.1763 60.181 62.1428 60.35 62.1429 60.5207V74.0735L62.2004 76.6726H64.742V74.0735V61.8203H71.0542V74.0735V76.6726H73.6534V74.0735Z" fill="#009FE3"/>
<path d="M83.5443 78.5292V76.6726H80.9451V78.5292H83.5443Z" fill="#009FE3"/>
<path d="M4.32791 78.5292H6.89213L6.98306 76.6726H4.41376L4.32791 78.5292Z" fill="#009FE3"/>
<path fill-rule="evenodd" clip-rule="evenodd" d="M83.5443 22.0904V74.0735V76.6726H80.9451V74.0735V22.4037L18.8996 29.8603V74.0735V76.6726H16.3004V74.0735V65.5334V62.9342V30.1722L15.0573 30.3409C15.0053 30.3468 14.953 30.3498 14.9006 30.3498C14.5701 30.3487 14.2523 30.2216 14.0121 29.9945C13.7719 29.7674 13.6273 29.4572 13.6077 29.1272C13.5881 28.7972 13.695 28.4721 13.9067 28.2182C14.1183 27.9642 14.4188 27.8005 14.7469 27.7603L23.8707 26.6441L26.4587 26.3337L42.6425 24.391L45.2624 24.0739L57.4889 22.6042L60.0762 22.2923L86.5452 19.1125C86.8831 19.0797 87.2203 19.1805 87.4849 19.3932C87.7494 19.606 87.9202 19.9137 87.9607 20.2507C88.0013 20.5878 87.9084 20.9273 87.7019 21.1967C87.4953 21.466 87.1916 21.6439 86.8556 21.6923L83.5443 22.0904ZM7.11872 74.0735H7.11036L7.52864 65.5334L7.11872 74.0735ZM4.53396 74.0735L4.99187 64.1714L4.51659 74.0735H4.53396ZM2.12438e-07 78.5292L2.12438e-07 79.8287C-9.74087e-05 79.9994 0.0334506 80.1685 0.0987259 80.3262C0.164001 80.4839 0.259724 80.6272 0.38042 80.7479C0.501117 80.8686 0.64442 80.9643 0.802136 81.0296C0.959852 81.0949 1.12889 81.1284 1.29958 81.1283H86.7004C86.8711 81.1284 87.0402 81.0949 87.1979 81.0296C87.3556 80.9643 87.4989 80.8686 87.6196 80.7479C87.7403 80.6272 87.836 80.4839 87.9013 80.3262C87.9666 80.1685 88.0001 79.9994 88 79.8287V78.5292H85.4008H83.5443H80.9451H73.6534H71.0542H64.742H62.2416H18.8996H16.3004H6.89213H4.32791H2.59916H2.12438e-07Z" fill="#009FE3"/>
<path fill-rule="evenodd" clip-rule="evenodd" d="M25.5586 7.33754C25.7869 7.23543 25.9807 7.0695 26.1168 6.85974C26.2529 6.64998 26.3255 6.40534 26.3257 6.1553V1.6996C26.3257 1.35493 26.1888 1.02438 25.9451 0.780663C25.7014 0.536945 25.3708 0.400024 25.0262 0.400024H10.1738C9.82917 0.400024 9.49862 0.536945 9.2549 0.780663C9.01118 1.02438 8.87426 1.35493 8.87426 1.6996V6.1553C8.87426 6.40722 8.94756 6.6537 9.08522 6.86468C9.22289 7.07566 9.41897 7.24202 9.64955 7.34348L7.27838 62.9342H6.28996C5.95609 62.9342 5.63502 63.0627 5.39334 63.2931C5.15165 63.5234 5.00789 63.8379 4.99187 64.1714L4.53396 74.0735L4.41376 76.6726H6.98306L7.11036 74.0735L7.52864 65.5334H8.64738C9.40639 65.4351 9.62808 65.264 9.81494 64.3924L12.2509 7.45488H22.9624L23.7275 23.6188C23.7275 23.6188 23.7805 24.7393 25 24.7393C25.7891 24.7393 26.3679 24.4188 26.33 23.6188L25.5586 7.33754ZM23.7266 2.99918H11.4779L11.4734 4.85572H23.7266V2.99918Z" fill="#009FE3"/>
<path fill-rule="evenodd" clip-rule="evenodd" d="M59.3632 7.33903C59.5919 7.23696 59.7862 7.07087 59.9226 6.86083C60.059 6.65078 60.1317 6.40574 60.1319 6.1553V1.6996C60.1317 1.35499 59.9947 1.02455 59.751 0.780879C59.5073 0.537203 59.1769 0.400221 58.8323 0.400024H43.9799C43.6353 0.400024 43.3047 0.536945 43.061 0.780663C42.8173 1.02438 42.6804 1.35493 42.6804 1.6996V6.1553C42.68 6.40683 42.7527 6.65306 42.8897 6.86401C43.0266 7.07496 43.222 7.24155 43.452 7.34348L42.7914 21.2544C42.7914 21.2544 42.7815 22.6042 43.9864 22.6042C45.2199 22.6042 45.3747 21.5718 45.3941 21.3128L45.3969 21.2544L46.0548 7.45488H56.7671L57.3453 19.5913L57.3462 19.6108C57.3562 19.7725 57.4691 20.8864 58.6894 20.846C60.0051 20.8024 59.9474 19.5913 59.9474 19.5913L59.3632 7.33903ZM57.5386 2.99918H45.2855V4.85572H57.5386V2.99918Z" fill="#009FE3"/>
<path d="M42.7005 47.2567H27.8482C27.5035 47.2567 27.1729 47.3936 26.9292 47.6374C26.6855 47.8811 26.5486 48.2116 26.5486 48.5563C26.5486 48.901 26.6855 49.2315 26.9292 49.4752C27.1729 49.719 27.5035 49.8559 27.8482 49.8559H42.7005C43.0451 49.8559 43.3757 49.719 43.6194 49.4752C43.8631 49.2315 44.0001 48.901 44.0001 48.5563C44.0001 48.2116 43.8631 47.8811 43.6194 47.6374C43.3757 47.3936 43.0451 47.2567 42.7005 47.2567Z" fill="#009FE3"/>
<path d="M42.7004 38.3453H27.848C27.5034 38.3453 27.1728 38.4823 26.9291 38.726C26.6854 38.9697 26.5485 39.3002 26.5485 39.6449C26.5485 39.9896 26.6854 40.3201 26.9291 40.5639C27.1728 40.8076 27.5034 40.9445 27.848 40.9445H42.7004C43.045 40.9445 43.3756 40.8076 43.6193 40.5639C43.863 40.3201 43.9999 39.9896 43.9999 39.6449C43.9999 39.3002 43.863 38.9697 43.6193 38.726C43.3756 38.4823 43.045 38.3453 42.7004 38.3453Z" fill="#009FE3"/>
<path d="M42.7005 42.801H27.8482C27.5035 42.801 27.1729 42.9379 26.9292 43.1817C26.6855 43.4254 26.5486 43.7559 26.5486 44.1006C26.5486 44.4453 26.6855 44.7758 26.9292 45.0195C27.1729 45.2633 27.5035 45.4002 27.8482 45.4002H42.7005C43.0451 45.4002 43.3757 45.2633 43.6194 45.0195C43.8631 44.7758 44.0001 44.4453 44.0001 44.1006C44.0001 43.7559 43.8631 43.4254 43.6194 43.1817C43.3757 42.9379 43.0451 42.801 42.7005 42.801Z" fill="#009FE3"/>
</svg>
