<svg width="88" height="88" viewBox="0 0 88 88" fill="none" xmlns="http://www.w3.org/2000/svg">
<g clip-path="url(#clip0_338_1580)">
<path d="M74.8001 0H60.1334C59.3235 0 58.6667 0.656706 58.6667 1.46667V5.86667C58.6667 6.56348 59.1573 7.16432 59.8398 7.30397L61.2434 7.58542C62.4394 7.82819 63.5645 8.34023 64.5334 9.08145V9.37506C64.5363 12.1888 63.1298 14.8171 60.7858 16.3754C60.7858 16.3754 59.4728 17.2934 60.2842 18.4839C61.0373 19.5887 62.4143 18.816 62.4143 18.816C64.7103 17.2856 66.3682 14.9696 67.075 12.3027C67.2562 12.7051 67.4037 13.1227 67.5154 13.5502C67.6759 14.204 68.261 14.6638 68.9334 14.6667H71.8667V18.8511L68.6135 29.7131L68.6314 29.7185C68.6314 29.7185 68.0999 31.272 69.5035 31.719C70.9072 32.166 71.4236 30.5567 71.4236 30.5567L74.4248 20.5333H80.9088L83.6001 35.3318V68.9333C83.6001 71.3632 81.63 73.3333 79.2001 73.3333H78.4117C78.4117 73.3333 76.8094 73.3332 76.8094 74.7999C76.8094 76.2665 78.4117 76.2667 78.4117 76.2667H79.2001C83.2485 76.2617 86.5284 72.9817 86.5334 68.9333V35.2C86.5334 35.1119 86.5248 35.0238 86.5083 34.9372L83.6001 18.9392V14.6667H86.5334C87.3434 14.6667 88.0001 14.01 88.0001 13.2C87.9922 5.91322 82.0869 0.00787761 74.8001 0ZM80.6667 17.6H74.8001V14.6667H80.6667V17.6ZM82.1334 11.7333H70.0141C68.6871 8.1304 65.5876 5.47207 61.8242 4.70937L61.6001 4.66426V2.93333H74.8001C79.9012 2.93978 84.2267 6.68522 84.9629 11.7333H82.1334Z" fill="#009FE3"/>
<path fill-rule="evenodd" clip-rule="evenodd" d="M15.6 76.2667H7.33334C3.28496 76.2617 0.00501458 72.9817 1.55236e-06 68.9333V47.9324C-0.000714594 46.1599 0.246356 44.3967 0.733335 42.693L2.87031 35.2337L0.439715 27.9383C-0.661717 24.6419 0.369533 21.0067 3.03861 18.7809L8.8 13.9784V10.2667C8.8 9.8778 8.95469 9.50469 9.22969 9.22969L11.7333 6.72604V1.46667C11.7333 0.656706 12.39 0 13.2 0H22C22.81 0 23.4667 0.656706 23.4667 1.46667V6.72604L25.9703 9.22969C26.2453 9.50469 26.4 9.8778 26.4 10.2667V13.9784L29.3464 16.448C29.3464 16.448 30.7412 17.6118 29.782 18.6374C28.8032 19.6842 27.5209 18.6374 27.5209 18.6374L24.4027 16.1333H10.7973L4.91778 21.0346C3.17468 22.487 2.49935 24.8574 3.21478 27.0102L5.79076 34.7367C5.88529 35.0167 5.89245 35.3189 5.81081 35.6032L3.55495 43.5001C3.14245 44.941 2.93333 46.4327 2.93333 47.9324V68.9333C2.93333 71.3632 4.90345 73.3333 7.33334 73.3333H15.6C15.6 73.3333 17.2421 73.3333 17.2421 74.8C17.2421 76.2667 15.6 76.2667 15.6 76.2667ZM14.6667 2.93333H20.5333V5.86667H14.6667V2.93333ZM11.7333 10.874L13.8073 8.8H21.3927L23.4667 10.874V13.2H11.7333V10.874Z" fill="#009FE3"/>
<path d="M26.4 24.9333C26.4 21.6433 22.5336 19.0667 17.6 19.0667C12.6665 19.0667 8.80005 21.6433 8.80005 24.9333C8.80005 28.2233 12.6665 30.8 17.6 30.8C22.5336 30.8 26.4 28.2233 26.4 24.9333ZM11.7334 24.9333C11.7334 23.549 14.2428 22 17.6 22C20.9573 22 23.4667 23.549 23.4667 24.9333C23.4667 26.3176 20.9573 27.8666 17.6 27.8666C14.2428 27.8666 11.7334 26.3176 11.7334 24.9333Z" fill="#009FE3"/>
<path d="M55.4718 47.5271C59.536 52.8896 60.8487 59.8484 59.0168 66.323C58.3157 68.6033 59.5818 71.0224 61.8548 71.7464C64.1279 72.4704 66.5599 71.2286 67.3069 68.9628C70.5968 59.6457 68.8802 49.2931 62.7601 41.5358L62.1735 40.7867C60.578 38.7457 57.6332 38.3776 55.5843 39.9624C53.5347 41.548 53.1515 44.4906 54.7256 46.5474L55.4718 47.5271ZM56.7337 43.281C56.8877 42.6157 57.4104 42.098 58.0779 41.9497C58.7446 41.8022 59.4371 42.05 59.859 42.5878L60.4455 43.3369C65.9469 50.3072 67.4902 59.6113 64.5332 67.9845C64.337 68.455 63.9102 68.7894 63.406 68.8682C62.9026 68.947 62.3941 68.7587 62.0632 68.3705C61.7954 68.0153 61.7095 67.5548 61.8334 67.128C63.9159 59.7639 62.4228 51.849 57.8 45.7496L57.0445 44.7585C56.7258 44.3374 56.6112 43.7952 56.7337 43.281Z" fill="#009FE3"/>
<path d="M26.6464 87.3476C26.9185 87.7551 27.3761 88 27.8667 88H63.0667C63.5121 88 63.934 87.7981 64.2118 87.45L67.8785 82.8653C74.2543 74.8924 77.1819 64.7038 76.0096 54.5632C74.838 44.4218 69.6638 35.1692 61.638 28.8614L55.7334 24.2208V16.1334C55.7334 15.3234 55.0767 14.6667 54.2667 14.6667H52.8V8.80003C52.8 7.18011 51.4866 5.8667 49.8667 5.8667H38.1334C36.5135 5.8667 35.2 7.18011 35.2 8.80003V14.6667H33.7334C32.9234 14.6667 32.2667 15.3234 32.2667 16.1334V24.3905L30.3102 26.6743C15.6944 43.8181 14.1998 68.5688 26.6464 87.3476ZM38.1334 8.80003H49.8667V14.6667H38.1334V8.80003ZM32.5367 28.5821L34.8463 25.888C35.0747 25.6223 35.2 25.2836 35.2 24.9334V17.6H52.8V23.4667H40.2534C40.2534 23.4667 38.7104 23.4667 38.7104 24.9334C38.7104 26.4 40.2534 26.4 40.2534 26.4H53.759L59.8269 31.1667C67.2383 36.9918 72.0157 45.5354 73.0978 54.8998C74.1799 64.2634 71.4764 73.6714 65.5897 81.0334L62.3627 85.0667H28.6588C17.3866 67.4352 18.9607 44.5078 32.5367 28.5821Z" fill="#009FE3"/>
</g>
<defs>
<clipPath id="clip0_338_1580">
<rect width="88" height="88" fill="white"/>
</clipPath>
</defs>
</svg>
