<svg width="416" height="74" viewBox="0 0 416 74" fill="none" xmlns="http://www.w3.org/2000/svg">
<g clip-path="url(#clip0_280_5792)">
<path d="M133.757 9.14059C148.285 9.14059 148.897 21.5421 148.897 21.5421C148.897 34.5521 137.722 34.45 137.722 34.45C153.875 34.45 153.468 49.5707 153.468 49.5707C153.468 67.2213 132.034 66.407 132.034 66.407H93.2843C96.4291 66.407 97.5056 61.31 97.5056 61.31V14.6402C97.5056 10.5036 93.2843 9.13983 93.2843 9.13983L133.757 9.14059ZM115.876 19.0697V56.3167H126.696C126.696 56.3167 135.736 56.3167 135.736 48.3091C135.736 48.3091 134.773 41.1763 118.207 34.145H125.173C125.173 34.145 132.793 34.5287 132.793 26.4393C132.793 18.0783 124.562 19.109 124.562 19.109L115.876 19.0697ZM40.4767 9.14059C54.9987 9.14059 55.6147 21.5421 55.6147 21.5421C55.6147 34.5521 44.4381 34.45 44.4381 34.45C60.5908 34.45 60.1837 49.5707 60.1837 49.5707C60.1837 67.2213 38.7514 66.407 38.7514 66.407H0C3.14866 66.407 4.2221 61.31 4.2221 61.31V14.6402C4.2221 10.5036 0 9.13983 0 9.13983L40.4767 9.14059ZM22.5926 19.0697V56.3167H33.4147C33.4147 56.3167 42.4528 56.3167 42.4528 48.3091C42.4528 48.3091 41.4891 41.1763 24.9232 34.145H31.8899C31.8899 34.145 39.5062 34.5287 39.5062 26.4393C39.5062 18.0783 31.2815 19.109 31.2815 19.109L22.5926 19.0697ZM156.907 9.15043C156.907 9.15043 162.052 10.023 162.052 14.5009V61.31C162.052 61.31 161.045 66.407 156.907 66.407H180.487V19.2339H190.014C190.014 19.2339 198.419 19.3565 198.419 28.1958C198.419 37.0321 190.765 37.1608 190.765 37.1608H182.366C182.366 37.1608 186.004 40.1471 190.643 50.3547C195.278 60.5563 195.278 60.5563 195.408 60.6849C195.534 60.8136 198.54 66.4063 202.306 66.4063H220.611C220.611 66.4063 216.601 65.2938 214.219 59.8161C211.833 54.3339 209.078 47.8671 209.078 47.8671C209.078 47.8671 206.57 40.0215 200.05 40.0215H199.673C199.673 40.0215 215.85 40.7715 215.85 23.839C215.85 6.90957 192.143 9.14967 192.143 9.14967L156.907 9.15043Z" fill="#00A990"/>
<path d="M271.697 66.407H294.525C294.525 66.407 291.263 65.6669 288.754 59.0707C286.245 52.4684 272.825 15.1268 272.825 15.1268C272.825 15.1268 271.567 9.15041 266.426 9.15041H240.223C240.222 9.15041 246.114 10.3953 244.609 14.7492C243.764 17.2027 239.115 29.4831 235.204 39.7717H229.307C225.421 39.7717 224.795 42.6347 223.295 46.1197C221.787 49.6047 218.404 52.594 218.404 52.594C221.158 50.976 227.301 51.5973 227.301 51.5973C227.301 51.5973 228.65 51.617 230.689 51.6405C229.984 53.4734 229.563 54.5897 229.563 54.5897C229.563 54.5897 225.049 64.6687 223.041 66.407H240.599L246.081 51.6919C247.563 51.6708 248.766 51.6443 249.498 51.5973C253.512 51.3491 254.769 49.109 255.767 46.3717C256.773 43.6329 260.539 39.3979 260.539 39.3979C257.524 40.2697 251.378 39.7717 251.378 39.7717H250.524L256.273 24.3385L271.697 66.407ZM287.544 9.15041C287.544 9.15041 293.684 9.64914 293.684 14.5009V45.4984C293.684 45.4984 292.556 67.2826 321.023 67.2826C349.492 67.2826 348.617 46.8666 348.617 46.8666V15.0034C348.617 15.0034 347.358 9.15041 342.471 9.15041H328.926C328.926 9.15041 334.321 10.3953 334.321 15.0034V46.2423C334.321 46.2423 334.819 55.9572 323.279 55.9572C323.279 55.9572 313.249 56.2092 313.249 45.6255V15.0034C313.249 15.0034 312.874 9.15041 307.357 9.15041H287.544ZM355.058 9.15041C355.058 9.15041 360.322 11.1423 360.322 15.2486V60.557C360.322 60.557 359.569 66.407 355.058 66.407H374.247V36.5364L397.444 61.9344C397.444 61.9344 399.701 66.407 407.221 66.407H416V15.624C416 15.624 415.623 9.14966 409.355 9.14966H396.562C396.562 9.14966 401.581 10.5172 401.581 14.874V39.1466L375 9.14966L355.058 9.15041Z" fill="#00A990"/>
<path d="M75.7341 0.602478V73.3975" stroke="#00A990" stroke-width="14.1344"/>
</g>
<defs>
<clipPath id="clip0_280_5792">
<rect width="416" height="74" fill="white"/>
</clipPath>
</defs>
</svg>
