<svg width="24" height="20" viewBox="0 0 24 20" fill="none" xmlns="http://www.w3.org/2000/svg">
<path fill-rule="evenodd" clip-rule="evenodd" d="M8.6765 0.243934C9.9992 0.196368 11.3154 0.449483 12.5262 0.984225C13.7369 1.51897 14.8105 2.3214 15.6662 3.33111C16.3951 4.19121 16.9498 5.18262 17.3014 6.24993H17.9876C19.2373 6.21032 20.4367 6.60425 21.4096 7.36712C22.3906 8.08829 23.1175 9.10233 23.4853 10.2632C23.8545 11.4284 23.8427 12.6809 23.4518 13.839C23.0609 14.997 22.3111 16.0004 21.3113 16.7034C20.9725 16.9417 20.5047 16.8602 20.2664 16.5213C20.0282 16.1825 20.1097 15.7147 20.4485 15.4764C21.1875 14.9568 21.7417 14.2152 22.0306 13.3592C22.3195 12.5033 22.3282 11.5775 22.0554 10.7163C21.7825 9.85507 21.2423 9.10321 20.5132 8.56981C20.5059 8.56451 20.4988 8.55908 20.4917 8.55352C19.7929 8.00271 18.9316 7.71855 18.0255 7.7495C18.0205 7.74967 18.0154 7.74979 18.0103 7.74986C18.0069 7.74991 18.0034 7.74993 17.9999 7.74993H16.7399C16.3975 7.74993 16.0986 7.51801 16.0135 7.18634C15.7409 6.1241 15.2309 5.13753 14.5219 4.30091C13.8129 3.46429 12.9233 2.79942 11.9201 2.35635C10.917 1.91328 9.82636 1.70355 8.73041 1.74297C7.63447 1.78238 6.56174 2.0699 5.593 2.58388C4.62425 3.09787 3.78473 3.82492 3.13764 4.71031C2.49054 5.5957 2.05273 6.61635 1.85717 7.69543C1.66161 8.7745 1.7134 9.88388 2.00862 10.94C2.30385 11.9962 2.83483 12.9716 3.56159 13.7929C3.83609 14.1031 3.80716 14.5771 3.49696 14.8516C3.18677 15.1261 2.71277 15.0972 2.43827 14.787C1.56115 13.7958 0.920312 12.6185 0.564001 11.3439C0.207691 10.0692 0.145194 8.73027 0.381215 7.42794C0.617236 6.12561 1.14563 4.89379 1.9266 3.82521C2.70758 2.75664 3.7208 1.87916 4.88997 1.25884C6.05915 0.638509 7.35381 0.291501 8.6765 0.243934ZM11.9999 9.24993C12.4141 9.24993 12.7499 9.58572 12.7499 9.99993L12.7499 17.1892L15.4696 14.4696C15.7625 14.1767 16.2374 14.1767 16.5303 14.4696C16.8232 14.7625 16.8232 15.2373 16.5303 15.5302L12.5303 19.5302C12.3896 19.6709 12.1988 19.7499 11.9999 19.7499C11.801 19.7499 11.6103 19.6709 11.4696 19.5302L7.4696 15.5302C7.17671 15.2373 7.17671 14.7625 7.4696 14.4696C7.76249 14.1767 8.23737 14.1767 8.53026 14.4696L11.2499 17.1892L11.2499 9.99993C11.2499 9.58572 11.5857 9.24993 11.9999 9.24993Z" fill="#009FE3"/>
</svg>
