<svg width="24" height="24" viewBox="0 0 24 24" fill="none" xmlns="http://www.w3.org/2000/svg">
<path fill-rule="evenodd" clip-rule="evenodd" d="M2.80176 5.64574L12 12.0845L21.1982 5.64574C21.044 5.1302 20.563 4.75 20 4.75L4 4.75C3.43705 4.75 2.95602 5.1302 2.80176 5.64574ZM21.25 7.44049L12.4301 13.6144C12.1719 13.7952 11.8281 13.7952 11.5699 13.6144L2.75 7.44049L2.75 18C2.75 18.6858 3.31421 19.25 4 19.25L20 19.25C20.6858 19.25 21.25 18.6858 21.25 18L21.25 7.44049ZM1.25 6C1.25 4.48579 2.48579 3.25 4 3.25L20 3.25C21.5142 3.25 22.75 4.48579 22.75 6L22.75 18C22.75 19.5142 21.5142 20.75 20 20.75L4 20.75C2.48579 20.75 1.25 19.5142 1.25 18L1.25 6Z" fill="#009FE3"/>
</svg>
