<svg width="195" height="86" viewBox="0 0 195 86" fill="none" xmlns="http://www.w3.org/2000/svg">
<g clip-path="url(#clip0_280_5744)">
<path d="M11.5985 33.3037C31.3248 48.2311 54.2858 49.3223 75.7555 54.5484C64.0457 57.4968 11.2257 64.4449 11.5985 33.3037Z" fill="#A1DAF8"/>
<path d="M34.1868 64.2696C48.8946 65.9516 61.209 62.067 75.4583 60.6204C60.5338 67.3382 48.8694 76.8442 34.1868 64.2696Z" fill="#009FE3"/>
<path d="M49.016 79.092C58.8111 76.4589 67.0241 70.6622 76.149 65.0457C70.3899 72.3141 57.0375 87.0713 49.016 79.092Z" fill="#A1DAF8"/>
<path d="M62.0609 84.9988C66.8023 81.9954 76.0986 70.507 76.3908 70.7272C76.683 70.9475 73.3424 80.5136 69.7801 83.2418C68.6858 84.0489 67.4343 84.6207 66.1052 84.9206C64.7762 85.2206 63.3988 85.2421 62.0609 84.9838" fill="#009FE3"/>
<path d="M0.825806 0.695801C0.825806 0.695801 15.4832 12.4645 36.4288 19.2574C47.2468 22.7615 99.6234 40.6823 104.566 65.8566C105.171 68.9252 97.749 54.5685 80.0987 49.1421C53.3788 40.9176 6.06095 38.3146 0.825806 0.695801Z" fill="#009FE3"/>
<path d="M89.0024 78.0507L89.1888 78.2059C86.9677 76.1825 85.3618 73.5812 84.5533 70.6971C83.7937 67.9246 83.7728 65.0036 84.4927 62.2206C85.2127 59.4377 86.6487 56.8887 88.6598 54.8237C88.2544 54.619 87.8311 54.4514 87.3951 54.3231C87.0877 54.238 86.7401 54.1379 86.3874 54.0127L86.2463 53.9727H86.2211H86.1354H86.1052L86.0296 53.9426C85.5258 53.7674 84.9513 53.5672 84.4072 53.367C81.1925 58.0875 79.7918 63.4437 81.6662 70.0764C83.5405 76.7091 89.6776 82.7612 96.641 84.2279L100.087 78.9968C97.7388 78.4235 95.5644 77.2952 93.7488 75.708L93.8949 75.8231C92.0068 74.1126 90.6399 71.9099 89.9497 69.4657C89.3634 67.3417 89.2892 65.1104 89.733 62.9527C90.1769 60.7949 91.1263 58.7714 92.5043 57.0462C92.0004 56.7359 91.4713 56.4005 90.9322 56.0901C90.4283 55.7848 89.9245 55.4894 89.4206 55.2341C88.1635 57.2511 87.3427 59.506 87.0104 61.8553C86.6782 64.2046 86.8418 66.5969 87.4908 68.88C88.182 71.3366 89.4268 73.6047 91.1308 75.5127C92.8348 77.4207 94.9534 78.9186 97.3262 79.8928L96.1825 82.0303C93.522 81.2603 91.0768 79.8897 89.0377 78.0256L89.0024 78.0507ZM119.99 59.5141C120.366 60.8497 120.315 61.8097 120.408 63.1934C120.151 63.1483 119.904 63.1133 119.632 63.0933C119.014 63.0332 118.393 63.0231 117.773 63.0632C117.676 62.4661 117.546 61.8746 117.385 61.2912C116.824 59.2919 115.874 57.4212 114.589 55.7848C112.753 53.8935 110.43 52.539 107.873 51.8691C105.316 51.1991 102.623 51.2393 100.087 51.9854L99.775 52.0755C99.5129 51.645 99.2252 51.2304 98.9134 50.834C98.6928 50.5595 98.4573 50.2972 98.208 50.0481L97.8402 49.6877L97.7193 49.5726L97.684 49.5375L97.6487 49.5075L97.6185 49.4824L97.553 49.4174L97.5026 49.3773L97.3817 49.2722C96.6561 48.6465 95.8701 48.0207 95.0941 47.4451C94.6406 47.1097 94.2023 46.7893 93.7992 46.504C94.4189 46.2537 95.0588 46.0334 95.7189 45.8382C106.184 42.8347 117.017 48.9769 119.99 59.5141Z" fill="#009FE3"/>
<path d="M110.471 82.6961C109.544 82.7009 108.624 82.531 107.76 82.1956C106.939 81.8838 106.197 81.3948 105.589 80.7639C104.952 80.0951 104.464 79.3002 104.158 78.4312C103.805 77.4123 103.634 76.3398 103.654 75.2625C103.636 74.186 103.817 73.1155 104.188 72.1038C104.509 71.2411 104.999 70.45 105.629 69.7761C106.235 69.1333 106.977 68.6308 107.801 68.3044C108.656 67.963 109.57 67.7928 110.491 67.8038C111.399 67.7751 112.3 67.9676 113.116 68.3645C113.768 68.6919 114.363 69.1193 114.88 69.6309L113.504 71.2779C113.136 70.9288 112.722 70.6292 112.275 70.3868C111.747 70.1298 111.164 70.006 110.577 70.0264C109.971 70.0174 109.371 70.1404 108.818 70.3868C108.297 70.629 107.836 70.9828 107.468 71.423C107.07 71.9077 106.772 72.4657 106.591 73.0649C106.375 73.7705 106.27 74.505 106.279 75.2425C106.279 76.8844 106.652 78.1725 107.398 79.107C107.801 79.5819 108.311 79.9559 108.887 80.1985C109.463 80.4411 110.089 80.5456 110.713 80.5036C111.11 80.506 111.506 80.4503 111.887 80.3384C112.22 80.246 112.529 80.0838 112.794 79.8628V76.7592H110.048V74.6718H115.087V81.0092C114.529 81.5394 113.872 81.9546 113.152 82.2306C112.295 82.5724 111.379 82.7426 110.456 82.7312" fill="#009FE3"/>
<path d="M117.875 82.4309V68.0342H120.444V80.2734H126.471V82.4309H117.875Z" fill="#009FE3"/>
<path d="M133.927 80.4732C134.468 80.4822 135.002 80.3529 135.479 80.0977C135.948 79.8381 136.35 79.473 136.653 79.0315C137.001 78.5221 137.256 77.9563 137.409 77.3596C137.593 76.6433 137.683 75.9063 137.676 75.167C137.752 73.8282 137.399 72.4999 136.668 71.3726C136.352 70.9462 135.939 70.5996 135.464 70.3608C134.988 70.1219 134.462 69.9975 133.929 69.9975C133.396 69.9975 132.871 70.1219 132.395 70.3608C131.919 70.5996 131.507 70.9462 131.191 71.3726C130.46 72.4999 130.107 73.8282 130.183 75.167C130.176 75.9063 130.266 76.6433 130.45 77.3596C130.602 77.9563 130.858 78.5221 131.206 79.0315C131.508 79.473 131.91 79.8381 132.38 80.0977C132.855 80.3523 133.387 80.4815 133.927 80.4732ZM133.927 82.6958C133.038 82.7097 132.156 82.5392 131.337 82.1952C130.56 81.8519 129.871 81.3385 129.322 80.6934C128.734 79.9961 128.289 79.1919 128.011 78.3257C127.689 77.3074 127.532 76.2444 127.548 75.177C127.533 74.1212 127.69 73.0698 128.011 72.0634C128.286 71.2095 128.732 70.4195 129.322 69.7407C129.876 69.1137 130.565 68.6177 131.337 68.289C132.999 67.6149 134.86 67.6149 136.522 68.289C137.292 68.6213 137.98 69.1167 138.537 69.7407C139.132 70.4176 139.581 71.208 139.857 72.0634C140.179 73.0698 140.336 74.1212 140.321 75.177C140.336 76.2444 140.18 77.3074 139.857 78.3257C139.578 79.1932 139.129 79.9977 138.537 80.6934C137.985 81.3355 137.297 81.8484 136.522 82.1952C135.701 82.5396 134.817 82.7101 133.927 82.6958Z" fill="#009FE3"/>
<path d="M142.372 82.4309V68.0342H145.274L147.844 75.0774C148.005 75.5329 148.161 76.0034 148.307 76.479C148.453 76.9545 148.61 77.4301 148.776 77.8956H148.861C149.023 77.4301 149.174 76.9545 149.315 76.479C149.456 76.0034 149.607 75.5329 149.773 75.0774L152.293 68.0342H155.22V82.4309H152.847V75.8483C152.847 75.5129 152.847 75.1474 152.882 74.752C152.918 74.3565 152.928 73.9561 152.958 73.5506C152.988 73.1451 153.028 72.7497 153.069 72.3592C153.109 71.9688 153.149 71.6083 153.18 71.2729H153.094L151.92 74.6168L149.547 81.0894H148.035L145.642 74.6168L144.453 71.2779H144.367C144.392 71.6133 144.427 71.9788 144.463 72.3642C144.498 72.7497 144.538 73.1501 144.574 73.5556C144.609 73.9611 144.644 74.3565 144.664 74.757C144.684 75.1575 144.7 75.5179 144.7 75.8533V82.4359L142.372 82.4309Z" fill="#009FE3"/>
<path d="M162.062 74.782L161.558 76.5441H165.261L164.757 74.782C164.519 74.0211 164.294 73.2352 164.082 72.4243C163.871 71.6133 163.659 70.8141 163.447 70.0265H163.362C163.155 70.8324 162.943 71.6384 162.737 72.4393C162.53 73.2402 162.309 74.0211 162.077 74.782H162.062ZM157.225 82.4409L161.941 68.0442H164.964L169.685 82.4409H166.979L165.851 78.5464H160.978L159.845 82.4409H157.225Z" fill="#009FE3"/>
<path d="M176.7 82.6962C175.819 82.6993 174.945 82.5291 174.13 82.1956C173.341 81.8783 172.633 81.389 172.059 80.764C171.445 80.0861 170.974 79.2929 170.674 78.4312C169.988 76.3771 169.988 74.1581 170.674 72.1039C170.986 71.2297 171.469 70.4252 172.095 69.7361C172.683 69.1019 173.403 68.603 174.206 68.2744C175.024 67.9354 175.904 67.7651 176.791 67.7738C177.635 67.7561 178.471 67.9452 179.224 68.3245C179.878 68.6479 180.47 69.0796 180.978 69.601L179.602 71.2479C179.24 70.8815 178.821 70.5741 178.363 70.3368C177.894 70.1022 177.375 69.9853 176.851 69.9964C176.288 69.9903 175.731 70.1137 175.224 70.3569C174.723 70.6033 174.284 70.9572 173.939 71.3931C173.554 71.882 173.267 72.4392 173.092 73.035C172.886 73.7424 172.786 74.4761 172.795 75.2125C172.795 76.8544 173.153 78.1426 173.868 79.077C174.204 79.5272 174.645 79.8895 175.154 80.1328C175.662 80.3761 176.222 80.4931 176.786 80.4736C177.387 80.4856 177.982 80.3443 178.514 80.0632C179.026 79.7835 179.488 79.4234 179.884 78.9969L181.26 80.6038C180.703 81.2533 180.017 81.7816 179.244 82.1556C178.456 82.52 177.595 82.7047 176.725 82.6962" fill="#009FE3"/>
<path d="M188.596 80.4737C189.137 80.4827 189.671 80.3534 190.148 80.0982C190.617 79.8386 191.02 79.4735 191.322 79.032C191.668 78.5215 191.923 77.956 192.078 77.3601C192.26 76.6436 192.348 75.9066 192.34 75.1675C192.34 73.5556 192.007 72.2892 191.332 71.3731C191.016 70.9468 190.604 70.6002 190.129 70.3613C189.654 70.1224 189.129 69.9979 188.596 69.9979C188.063 69.9979 187.538 70.1224 187.063 70.3613C186.588 70.6002 186.175 70.9468 185.86 71.3731C185.129 72.5004 184.776 73.8287 184.852 75.1675C184.845 75.9068 184.935 76.6438 185.119 77.3601C185.272 77.9558 185.526 78.5212 185.87 79.032C186.176 79.4722 186.579 79.8369 187.049 80.0982C187.524 80.3534 188.056 80.4827 188.596 80.4737ZM188.596 82.6963C187.707 82.7102 186.825 82.5397 186.006 82.1957C185.228 81.8537 184.539 81.3401 183.991 80.6939C183.403 79.9966 182.959 79.1924 182.681 78.3262C182.358 77.3079 182.202 76.2449 182.217 75.1775C182.202 74.1216 182.359 73.0703 182.681 72.0639C182.955 71.21 183.401 70.42 183.991 69.7412C184.544 69.1131 185.233 68.617 186.006 68.2895C187.668 67.6154 189.529 67.6154 191.191 68.2895C191.961 68.6218 192.649 69.1172 193.206 69.7412C193.801 70.4181 194.25 71.2085 194.526 72.0639C194.848 73.0703 195.005 74.1216 194.99 75.1775C195.005 76.2449 194.849 77.3079 194.526 78.3262C194.247 79.1937 193.798 79.9982 193.206 80.6939C192.654 81.336 191.966 81.8489 191.191 82.1957C190.37 82.5397 189.486 82.7102 188.596 82.6963Z" fill="#009FE3"/>
</g>
<defs>
<clipPath id="clip0_280_5744">
<path d="M0.825806 0.695801H195V80.1306C195 82.916 192.742 85.1741 189.956 85.1741H5.86929C3.08385 85.1741 0.825806 82.916 0.825806 80.1306V0.695801Z" fill="white"/>
</clipPath>
</defs>
</svg>
