<svg width="240" height="66" viewBox="0 0 240 66" fill="none" xmlns="http://www.w3.org/2000/svg">
<path d="M1.37402 6.00586H4.19727C5.52344 6.00586 6.48275 6.2041 7.0752 6.60059C7.66764 6.99707 7.96387 7.6237 7.96387 8.48047C7.96387 9.07292 7.79753 9.56283 7.46484 9.9502C7.13672 10.333 6.65592 10.5814 6.02246 10.6953V10.7637C7.54004 11.0234 8.29883 11.821 8.29883 13.1562C8.29883 14.0495 7.99577 14.7467 7.38965 15.248C6.78809 15.7493 5.94499 16 4.86035 16H1.37402V6.00586ZM2.53613 10.2852H4.4502C5.27051 10.2852 5.86068 10.1576 6.2207 9.90234C6.58073 9.64258 6.76074 9.20736 6.76074 8.59668C6.76074 8.03613 6.56022 7.63281 6.15918 7.38672C5.75814 7.13607 5.12012 7.01074 4.24512 7.01074H2.53613V10.2852ZM2.53613 11.2695V15.0088H4.62109C5.42773 15.0088 6.03385 14.8538 6.43945 14.5439C6.84961 14.2295 7.05469 13.7396 7.05469 13.0742C7.05469 12.4544 6.84505 11.9987 6.42578 11.707C6.01107 11.4154 5.3776 11.2695 4.52539 11.2695H2.53613ZM17.1035 16H15.7842L13.0977 11.6045L10.3633 16H9.13281L12.4551 10.7773L9.3584 6.00586H10.6436L13.125 9.96387L15.627 6.00586H16.8643L13.7676 10.7363L17.1035 16ZM27.207 10.9893C27.207 12.5889 26.8014 13.8467 25.9902 14.7627C25.1836 15.6787 24.0602 16.1367 22.6201 16.1367C21.1481 16.1367 20.0111 15.6878 19.209 14.79C18.4115 13.8877 18.0127 12.6162 18.0127 10.9756C18.0127 9.34863 18.4137 8.08854 19.2158 7.19531C20.0179 6.29753 21.1572 5.84863 22.6338 5.84863C24.0693 5.84863 25.1904 6.30436 25.9971 7.21582C26.8037 8.12728 27.207 9.38509 27.207 10.9893ZM19.2432 10.9893C19.2432 12.3428 19.5303 13.3704 20.1045 14.0723C20.6833 14.7695 21.5218 15.1182 22.6201 15.1182C23.7275 15.1182 24.5638 14.7695 25.1289 14.0723C25.694 13.375 25.9766 12.3473 25.9766 10.9893C25.9766 9.64486 25.694 8.6263 25.1289 7.93359C24.5684 7.23633 23.7367 6.8877 22.6338 6.8877C21.5264 6.8877 20.6833 7.23861 20.1045 7.94043C19.5303 8.6377 19.2432 9.65397 19.2432 10.9893ZM37.3242 18.6045H36.2168V16H29.2715V18.6045H28.1641V14.9473H28.9365C29.6383 13.7669 30.2376 12.3314 30.7344 10.6406C31.2357 8.94987 31.5137 7.40495 31.5684 6.00586H36.0596V14.9473H37.3242V18.6045ZM34.8975 14.9473V7.05176H32.6211C32.5391 8.15462 32.2633 9.48079 31.7939 11.0303C31.3245 12.5752 30.7777 13.8809 30.1533 14.9473H34.8975ZM39.0264 6.00586H40.1133V11.5635C40.1133 12.5889 40.0814 13.5163 40.0176 14.3457H40.0723L45.6777 6.00586H46.9492V16H45.8555V10.4971C45.8555 9.58105 45.8942 8.61947 45.9717 7.6123H45.9102L40.2979 16H39.0264V6.00586ZM52.7666 16H51.6045V7.03809H48.4395V6.00586H55.9316V7.03809H52.7666V16ZM61.0791 6.00586H63.9023C65.2285 6.00586 66.1878 6.2041 66.7803 6.60059C67.3727 6.99707 67.6689 7.6237 67.6689 8.48047C67.6689 9.07292 67.5026 9.56283 67.1699 9.9502C66.8418 10.333 66.361 10.5814 65.7275 10.6953V10.7637C67.2451 11.0234 68.0039 11.821 68.0039 13.1562C68.0039 14.0495 67.7008 14.7467 67.0947 15.248C66.4932 15.7493 65.6501 16 64.5654 16H61.0791V6.00586ZM62.2412 10.2852H64.1553C64.9756 10.2852 65.5658 10.1576 65.9258 9.90234C66.2858 9.64258 66.4658 9.20736 66.4658 8.59668C66.4658 8.03613 66.2653 7.63281 65.8643 7.38672C65.4632 7.13607 64.8252 7.01074 63.9502 7.01074H62.2412V10.2852ZM62.2412 11.2695V15.0088H64.3262C65.1328 15.0088 65.7389 14.8538 66.1445 14.5439C66.5547 14.2295 66.7598 13.7396 66.7598 13.0742C66.7598 12.4544 66.5501 11.9987 66.1309 11.707C65.7161 11.4154 65.0827 11.2695 64.2305 11.2695H62.2412Z" fill="#0C131D"/>
<g clip-path="url(#clip0_280_37112)">
<path d="M58.1025 45.5024C58.1356 45.9072 58.0667 46.3139 57.9022 46.6845C57.7377 47.0552 57.4829 47.3777 57.1617 47.6219C56.4225 48.1185 55.5461 48.3648 54.6592 48.3253H51.2443V42.6795H54.6687C55.5545 42.6372 56.4307 42.8801 57.1711 43.3734C57.4931 43.6191 57.7482 43.9432 57.9128 44.3155C58.0773 44.6878 58.1458 45.0961 58.1119 45.5024H58.1025ZM58.7986 41.3394C58.1609 40.924 57.4529 40.6308 56.7101 40.4744C55.9093 40.3015 55.0925 40.2155 54.2735 40.2178H48.6289V59.037H51.2066V50.7774H54.631C55.3181 50.775 56.0028 50.6953 56.6725 50.5398C57.384 50.3825 58.0624 50.0993 58.6763 49.7034C59.3134 49.295 59.8403 48.7333 60.2098 48.0686C60.6307 47.2718 60.8352 46.3765 60.8025 45.4739C60.8279 44.6068 60.6371 43.7472 60.2474 42.9742C59.9027 42.3098 59.3939 41.7466 58.7704 41.3394" fill="black"/>
<path d="M73.4838 45.5023C73.5202 46.0771 73.3535 46.6463 73.0135 47.1086C72.6803 47.496 72.252 47.7878 71.7716 47.9545C71.2127 48.1446 70.6299 48.2534 70.0406 48.2777C69.3915 48.2777 68.7706 48.3252 68.2155 48.3252H66.5033V42.6794H69.3256C69.8414 42.6776 70.3568 42.7094 70.8685 42.7745C71.3334 42.8279 71.7855 42.963 72.2044 43.1737C72.5889 43.3674 72.9141 43.6631 73.1452 44.0291C73.4033 44.4747 73.5275 44.9866 73.5027 45.5023H73.4838ZM74.9797 48.9145C75.818 47.9853 76.2578 46.7584 76.2027 45.5023C76.2526 44.507 76.0209 43.518 75.5347 42.6509C75.1076 41.9688 74.502 41.4194 73.7849 41.0637C73.0325 40.6968 72.225 40.4591 71.3953 40.3603C70.5275 40.2541 69.6542 40.2002 68.78 40.1987H63.9727V59.0179H66.5504V50.7774H68.9776L73.8319 58.9323L73.8978 59.0369H77.0211L71.8563 50.4827C73.0475 50.3067 74.1518 49.7505 75.0079 48.8955" fill="black"/>
<path d="M95.6019 49.6368C95.6049 50.6113 95.4294 51.578 95.0845 52.4882C94.7617 53.3591 94.2762 54.1594 93.6546 54.8453C93.0392 55.5247 92.2891 56.0655 91.4531 56.4326C90.5611 56.818 89.601 57.0167 88.6308 57.0167C87.6607 57.0167 86.7006 56.818 85.8085 56.4326C84.9706 56.0642 84.2177 55.5236 83.5977 54.8453C82.974 54.1609 82.4882 53.3603 82.1677 52.4882C81.8295 51.5764 81.6574 50.6104 81.6597 49.6368C81.6529 48.6442 81.825 47.6586 82.1677 46.7284C82.4951 45.8525 82.9871 45.0489 83.6165 44.3617C84.2441 43.6922 84.9951 43.153 85.8273 42.7744C87.133 42.1819 88.5893 42.0164 89.9927 42.301C91.396 42.5856 92.6763 43.3061 93.6546 44.3617C94.2762 45.0477 94.7617 45.8479 95.0845 46.7189C95.4348 47.6473 95.6103 48.6337 95.6019 49.6273V49.6368ZM95.6019 42.5558C94.7262 41.6704 93.6876 40.9665 92.5444 40.4838C90.0467 39.495 87.2715 39.495 84.7737 40.4838C83.626 40.9632 82.5837 41.6674 81.7068 42.5558C80.8351 43.4513 80.1504 44.5147 79.6935 45.6828C79.2037 46.9385 78.9577 48.2777 78.9691 49.6273C78.9587 50.9706 79.2047 52.3034 79.6935 53.5527C80.144 54.7238 80.8272 55.7893 81.7009 56.6834C82.5746 57.5776 83.6204 58.2815 84.7737 58.7517C87.2692 59.7529 90.049 59.7529 92.5444 58.7517C93.6781 58.2788 94.7101 57.588 95.5831 56.7177C96.4611 55.8218 97.1493 54.7546 97.6058 53.5812C98.0946 52.3319 98.3406 50.9991 98.3302 49.6558C98.3416 48.3062 98.0956 46.967 97.6058 45.7114C97.1491 44.5409 96.4609 43.4768 95.5831 42.5843" fill="black"/>
<path d="M99.7031 42.6795H105.686V59.0369H108.264V42.6795H114.247V40.2178H99.7031V42.6795Z" fill="black"/>
<path d="M119.412 50.4542H128.03V48.0021H119.412V42.67H128.651V40.2178H116.834V59.0369H129.112V56.5752H119.412V50.4542Z" fill="black"/>
<path d="M145.876 54.5601C145.286 55.3336 144.534 55.9664 143.675 56.4135C142.775 56.853 141.785 57.0712 140.786 57.0503C139.849 57.0654 138.919 56.8672 138.068 56.4705C137.268 56.0954 136.552 55.5622 135.96 54.9022C135.356 54.2174 134.889 53.42 134.587 52.5546C134.25 51.6196 134.081 50.6315 134.088 49.6367C134.085 48.6638 134.253 47.6981 134.587 46.7853C134.897 45.9108 135.369 45.1043 135.979 44.4091C136.571 43.7266 137.294 43.1735 138.105 42.7838C138.941 42.3776 139.859 42.1726 140.786 42.185C141.625 42.1843 142.453 42.3692 143.214 42.7268C143.989 43.0973 144.658 43.6596 145.161 44.3616L145.283 44.5327L147.485 42.9074L147.362 42.7268C146.604 41.7149 145.586 40.9324 144.418 40.4647C143.262 40.002 142.03 39.7665 140.786 39.7709C138.897 39.7451 137.045 40.3078 135.483 41.3825C133.921 42.4573 132.724 43.9919 132.056 45.7778C131.587 47.0154 131.351 48.3305 131.36 49.6557C131.347 51.0054 131.593 52.3448 132.084 53.6001C132.543 54.7578 133.217 55.8161 134.069 56.7176C134.918 57.5985 135.932 58.2997 137.052 58.7801C138.242 59.2888 139.523 59.5444 140.815 59.531C142.185 59.5543 143.545 59.2821 144.803 58.7326C146.019 58.1758 147.07 57.3075 147.852 56.2139L147.974 56.0523L146.036 54.408L145.876 54.5601Z" fill="black"/>
<path d="M166.112 49.637C166.114 50.6106 165.942 51.5765 165.604 52.4884C165.277 53.3592 164.788 54.1591 164.165 54.8456C163.553 55.5245 162.806 56.0654 161.973 56.4328C161.08 56.8166 160.12 57.0144 159.151 57.0144C158.181 57.0144 157.221 56.8166 156.328 56.4328C155.494 56.0633 154.744 55.5228 154.127 54.8456C153.5 54.1616 153.011 53.361 152.687 52.4884C152.01 50.6164 152.01 48.5626 152.687 46.6906C153.02 45.8284 153.511 45.0381 154.136 44.362C154.759 43.6907 155.507 43.1511 156.338 42.7747C157.23 42.3909 158.19 42.1931 159.16 42.1931C160.13 42.1931 161.09 42.3909 161.982 42.7747C162.809 43.149 163.551 43.6891 164.165 44.362C164.777 45.0551 165.256 45.8578 165.576 46.7286C165.919 47.6589 166.091 48.6444 166.084 49.637H166.112ZM168.088 45.6926C167.629 44.5233 166.941 43.4597 166.065 42.5656C165.191 41.6782 164.152 40.9741 163.008 40.4936C160.51 39.5047 157.735 39.5047 155.237 40.4936C154.091 40.9714 153.052 41.6759 152.179 42.5656C151.303 43.4576 150.618 44.5219 150.166 45.6926C149.676 46.9482 149.43 48.2874 149.442 49.637C149.431 50.9804 149.677 52.3131 150.166 53.5624C150.616 54.7312 151.296 55.7951 152.166 56.689C153.037 57.5829 154.078 58.2881 155.228 58.7615C157.723 59.7627 160.503 59.7627 162.998 58.7615C164.154 58.2938 165.206 57.5993 166.093 56.718C166.971 55.822 167.66 54.7548 168.116 53.5814C168.605 52.3321 168.851 50.9994 168.84 49.656C168.852 48.3064 168.606 46.9673 168.116 45.7116" fill="black"/>
<path d="M187.016 46.8806C186.46 46.5807 185.997 46.1297 185.68 45.5784C185.344 45.0038 185.174 44.345 185.191 43.6775C185.177 43.0104 185.347 42.3524 185.68 41.7766C186.015 41.2583 186.479 40.8386 187.026 40.56C187.604 40.2472 188.251 40.087 188.907 40.0943C189.445 40.0855 189.979 40.1857 190.478 40.3889C190.936 40.5904 191.345 40.8923 191.673 41.2729L190.836 42.0712C190.6 41.804 190.31 41.5916 189.985 41.4488C189.66 41.3061 189.308 41.2363 188.954 41.2443C188.505 41.2362 188.061 41.3441 187.665 41.558C187.298 41.7686 186.993 42.0736 186.781 42.4419C186.564 42.8334 186.453 43.2762 186.461 43.725C186.45 44.1742 186.561 44.6178 186.781 45.0082C186.988 45.3807 187.294 45.6869 187.665 45.8921C188.059 46.1134 188.504 46.2249 188.954 46.2153C189.309 46.2234 189.662 46.1527 189.987 46.0082C190.312 45.8637 190.602 45.6489 190.836 45.3789L191.673 46.1867C191.345 46.5698 190.933 46.8693 190.469 47.0612C189.912 47.2863 189.315 47.3884 188.716 47.3605C188.117 47.3327 187.531 47.1755 186.997 46.8996" fill="black"/>
<path d="M197.562 45.8732C197.933 45.6681 198.239 45.3618 198.446 44.9893C198.65 44.5946 198.756 44.156 198.756 43.7109C198.756 43.2658 198.65 42.8273 198.446 42.4326C198.241 42.0491 197.935 41.7301 197.562 41.5106C197.176 41.305 196.747 41.1976 196.311 41.1976C195.875 41.1976 195.445 41.305 195.06 41.5106C194.69 41.7223 194.385 42.0311 194.175 42.404C193.972 42.7988 193.865 43.2373 193.865 43.6824C193.865 44.1275 193.972 44.5661 194.175 44.9608C194.382 45.3333 194.689 45.6395 195.06 45.8447C195.443 46.0569 195.874 46.168 196.311 46.168C196.748 46.168 197.178 46.0569 197.562 45.8447V45.8732ZM194.392 46.8522C193.832 46.5525 193.367 46.1017 193.046 45.5501C192.728 44.9801 192.561 44.3368 192.561 43.6824C192.561 43.028 192.728 42.3847 193.046 41.8148C193.363 41.2857 193.815 40.8524 194.354 40.5601C194.948 40.2539 195.606 40.0942 196.273 40.0942C196.94 40.0942 197.598 40.2539 198.192 40.5601C198.752 40.8598 199.217 41.3106 199.538 41.8623C199.876 42.4363 200.045 43.0955 200.027 43.7632C200.044 44.4307 199.874 45.0895 199.538 45.6641C199.217 46.2157 198.752 46.6666 198.192 46.9663C197.598 47.2725 196.94 47.4322 196.273 47.4322C195.606 47.4322 194.948 47.2725 194.354 46.9663" fill="black"/>
<path d="M207.929 47.2513L207.919 42.5561L205.624 46.4435H205.05L202.755 42.6226V47.2513H201.522V40.1704H202.585L205.361 44.8657L208.079 40.1704H209.142L209.152 47.2513H207.929Z" fill="black"/>
<path d="M215.249 43.725C215.396 43.5982 215.511 43.4386 215.586 43.2587C215.661 43.0789 215.694 42.8838 215.681 42.689C215.694 42.4928 215.662 42.2963 215.586 42.1149C215.511 41.9335 215.396 41.7722 215.249 41.6435C214.872 41.3789 214.417 41.2515 213.96 41.2823H212.445V44.1337H213.96C214.419 44.1664 214.875 44.0352 215.249 43.763V43.725ZM215.597 40.5124C216.022 40.69 216.383 40.9952 216.632 41.3868C216.877 41.789 217.001 42.2547 216.989 42.727C216.999 43.199 216.874 43.6639 216.632 44.0671C216.383 44.4588 216.022 44.764 215.597 44.9416C215.1 45.1533 214.565 45.2569 214.026 45.2457H212.445V47.2132H211.156V40.1703H214.026C214.565 40.159 215.1 40.2627 215.597 40.4744" fill="black"/>
<path d="M222.275 44.5805L220.968 41.5105L219.66 44.609L222.275 44.5805ZM222.708 45.607H219.199L218.531 47.2133H217.195L220.338 40.1323H221.608L224.759 47.2133H223.404L222.708 45.607Z" fill="black"/>
<path d="M232.125 40.1704V47.2513H231.053L227.215 42.4515V47.2513H225.926V40.1704H226.989L230.837 44.9607V40.1704H232.125Z" fill="black"/>
<path d="M237.272 44.7516V47.2513H235.983V44.7706L233.236 40.1704H234.628L236.67 43.6206L238.73 40.1704H240L237.272 44.7516Z" fill="black"/>
<path d="M190.449 55.7675H191.682V58.6189C191.305 58.9164 190.878 59.1419 190.421 59.2842C189.946 59.4363 189.451 59.5132 188.953 59.5123C188.298 59.516 187.651 59.3561 187.072 59.0466C186.487 58.731 186.004 58.2527 185.679 57.6684C185.361 57.0985 185.194 56.4552 185.194 55.8008C185.194 55.1464 185.361 54.5031 185.679 53.9331C186.006 53.383 186.474 52.9329 187.034 52.631C187.631 52.3127 188.298 52.1524 188.972 52.1653C189.515 52.1582 190.055 52.255 190.562 52.4504C191.027 52.6363 191.44 52.933 191.766 53.3153L190.948 54.1232C190.705 53.8665 190.413 53.6624 190.089 53.5235C189.766 53.3846 189.418 53.3138 189.066 53.3153C188.611 53.3064 188.161 53.4144 187.759 53.629C187.369 53.8241 187.043 54.1275 186.818 54.5034C186.602 54.9024 186.492 55.3509 186.498 55.8055C186.495 56.2507 186.606 56.6891 186.818 57.0792C187.045 57.4557 187.37 57.7615 187.759 57.9631C188.155 58.1851 188.603 58.2967 189.057 58.2862C189.557 58.2959 190.05 58.1713 190.487 57.9251L190.449 55.7675Z" fill="black"/>
<path d="M197.561 53.7808C197.191 53.5085 196.738 53.3772 196.281 53.4101H194.767V56.2615H196.281C196.741 56.2862 197.195 56.1447 197.561 55.8623C197.709 55.7341 197.826 55.573 197.903 55.3917C197.979 55.2104 198.014 55.0137 198.003 54.8168C198.014 54.6213 197.979 54.426 197.903 54.2462C197.826 54.0664 197.709 53.9071 197.561 53.7808ZM198.031 59.379L196.62 57.307H194.738V59.379H193.44V52.2981H196.31C196.852 52.2878 197.39 52.3913 197.89 52.6022C198.314 52.7824 198.674 53.087 198.925 53.4766C199.168 53.8876 199.296 54.3572 199.296 54.8358C199.296 55.3144 199.168 55.784 198.925 56.195C198.654 56.5881 198.27 56.8869 197.824 57.0504L199.442 59.379H198.031Z" fill="black"/>
<path d="M205.455 58.0102C205.819 57.7957 206.121 57.4874 206.329 57.1168C206.539 56.7241 206.649 56.2848 206.649 55.8384C206.649 55.3921 206.539 54.9528 206.329 54.5601C206.121 54.1894 205.819 53.8812 205.455 53.6666C205.068 53.4543 204.634 53.3463 204.194 53.353C203.757 53.3462 203.326 53.4543 202.943 53.6666C202.574 53.8758 202.271 54.1854 202.068 54.5601C201.858 54.9528 201.748 55.3921 201.748 55.8384C201.748 56.2848 201.858 56.7241 202.068 57.1168C202.271 57.4915 202.574 57.8011 202.943 58.0102C203.326 58.2226 203.757 58.3306 204.194 58.3239C204.634 58.3306 205.068 58.2225 205.455 58.0102ZM202.265 59.0082C201.706 58.6943 201.244 58.2306 200.929 57.6681C200.611 57.0981 200.444 56.4548 200.444 55.8004C200.444 55.146 200.611 54.5027 200.929 53.9328C201.255 53.3982 201.716 52.9617 202.265 52.6686C202.861 52.3623 203.521 52.2026 204.189 52.2026C204.858 52.2026 205.517 52.3623 206.113 52.6686C206.669 52.9734 207.133 53.4231 207.458 53.9708C207.777 54.5407 207.944 55.184 207.944 55.8384C207.944 56.4928 207.777 57.1361 207.458 57.7061C207.133 58.2538 206.669 58.7034 206.113 59.0082C205.517 59.3145 204.858 59.4742 204.189 59.4742C203.521 59.4742 202.861 59.3145 202.265 59.0082Z" fill="black"/>
<path d="M210.036 58.6193C209.752 58.2988 209.535 57.9244 209.396 57.5181C209.257 57.1118 209.2 56.6817 209.227 56.2527V52.2607H210.525V56.2432C210.525 57.6308 211.118 58.3247 212.294 58.3247C213.47 58.3247 214.062 57.6308 214.062 56.2432V52.2988H215.332V56.2907C215.351 56.7154 215.287 57.1397 215.143 57.5393C215 57.9389 214.779 58.3059 214.495 58.6193C213.863 59.1478 213.067 59.437 212.247 59.437C211.426 59.437 210.631 59.1478 209.998 58.6193" fill="black"/>
<path d="M221.344 55.8624C221.491 55.7337 221.607 55.5724 221.682 55.391C221.757 55.2096 221.789 55.0131 221.777 54.8169C221.789 54.6221 221.757 54.427 221.682 54.2472C221.606 54.0673 221.491 53.9077 221.344 53.7809C220.97 53.5087 220.514 53.3775 220.055 53.4102H218.54V56.2616H220.055C220.513 56.2924 220.967 56.165 221.344 55.9004V55.8624ZM221.692 52.6404C222.117 52.8179 222.479 53.1232 222.727 53.5148C222.961 53.9219 223.084 54.3842 223.084 54.8549C223.084 55.3256 222.961 55.7879 222.727 56.1951C222.479 56.5867 222.117 56.8919 221.692 57.0695C221.195 57.2812 220.66 57.3849 220.121 57.3737H218.54V59.3791H217.251V52.2982H220.074C220.613 52.287 221.148 52.3906 221.645 52.6023" fill="black"/>
<path d="M177.684 38.2598H176.376V60.9948H177.684V38.2598Z" fill="black"/>
<path d="M10.4049 46.9001C10.4049 46.8145 10.4708 46.729 10.499 46.634H10.4143L9.85927 45.9876L10.6025 46.3678C10.7515 46.0403 10.9212 45.7229 11.1105 45.4174L7.59202 43.3168L3.52789 38.5645L3.40559 38.7261L7.05578 43.0127L2.35193 40.2849L2.03206 40.8456L7.77076 44.1913L1.88154 41.2068C1.78746 41.4064 1.68398 41.5965 1.59931 41.7961L9.40771 45.7215L10.0474 46.4724L0.940771 43.2978C0.91466 43.3596 0.89266 43.4232 0.874917 43.4879L10.2826 46.7765L10.4049 46.9001ZM11.6844 44.5905L3.84775 38.1843L3.76308 38.3459L11.5903 44.752C11.6314 44.6959 11.6753 44.6419 11.722 44.5905H11.6844ZM10.3485 46.9476L0.667947 44.2768C0.602093 44.4859 0.545647 44.695 0.489201 44.9136L10.2262 47.5844C10.2651 47.3687 10.3185 47.1559 10.3861 46.9476H10.3485ZM29.5214 49.3428H27.2165L27.0377 50.4738L31.8451 51.2437L29.5214 49.3428ZM27.3388 47.2993L27.3858 46.9951L27.0566 47.0617L27.3388 47.2993ZM26.8496 46.9001L27.4235 46.786V46.6625L26.7743 46.8431L26.8496 46.9001ZM26.5862 46.9476L26.1911 47.0617L26.5862 46.9476ZM24.9963 45.3793L27.8186 44.2388L28.1479 42.1668L24.0931 44.6475L24.9963 45.3793ZM23.9238 44.5049L28.2231 41.9102L28.7123 38.8497L23.0677 43.7731L23.9238 44.5049ZM27.4799 47.6795L27.2823 48.6869H28.6841L27.4799 47.6795ZM26.812 50.6449L23.698 50.1412L24.2154 50.7399L26.6803 51.4243L26.812 50.6449ZM26.5768 52.0706L24.9775 51.6334L25.0809 51.7474L26.5485 52.2607L26.5768 52.0706ZM26.4262 54.3042L27.4611 54.9125H27.5364L27.4517 54.8174L26.4262 54.3042ZM26.4262 53.2682L26.558 52.4698L25.382 52.0611L26.4262 53.2682ZM24.7329 51.6144L24.667 51.5288L23.9332 51.3292L24.7329 51.6144ZM26.1628 54.903L24.8834 54.6939L23.8768 54.5323L25.9559 56.2336L26.1628 54.903ZM25.9182 56.4617L23.4816 54.4753L22.5785 54.3327L25.683 57.4692L25.9182 56.4617ZM25.636 58.2581L21.5625 54.1616H21.4119L25.5231 58.9139L25.636 58.2581ZM24.9681 54.5038L25.7207 54.6273L23.6133 53.4012L24.9681 54.5038ZM24.7893 63.5617L20.7346 58.8094L22.0423 62.4211L24.6952 63.9324L24.7893 63.5617ZM21.8071 62.2215L20.3489 58.4197L20.1513 58.1916L21.1956 61.8984L21.8071 62.2215ZM20.1325 57.8304L19.8597 57.0985L20.029 57.7068L20.1325 57.8304ZM19.2952 60.8053L19.0412 59.8549L19.2105 60.7103L19.2952 60.8053ZM13.9046 57.2696L13.6412 57.6023L13.7635 57.6783L13.9046 57.2696ZM13.6976 57.8684L13.5095 57.7639L13.0579 58.3246V59.6838L13.6976 57.8684ZM13.0579 58.0015L13.3307 57.6593L13.0485 57.5072L13.0579 58.0015ZM12.8603 58.2486V57.7448L11.9196 59.3987L12.8603 58.2486ZM10.8941 52.4698L9.63349 52.2702L7.26275 53.2207L6.93348 53.8099L7.87425 54.3232L10.8941 52.4698ZM7.61083 54.4467L6.80177 53.9905L6.00212 55.4257L7.61083 54.4467ZM6.37842 51.1486L5.27772 51.3673H5.50351L6.37842 51.1486ZM5.64462 52.983H5.54114H5.60699H5.64462ZM5.08957 51.5288L4.70385 51.4813L3.27388 51.7569L3.60315 51.947L5.08957 51.5288ZM3.0481 51.6049L4.16761 51.3863L2.01325 51.0156L3.0481 51.6049ZM16.6987 41.9862V38.8307L15.6826 38.0038L15.0523 39.1538L15.2687 40.2659L16.6987 41.9862ZM15.7579 37.8232L16.6987 38.5645V36.2264L15.7579 37.8232ZM14.4126 37.0818V36.9583L14.1116 36.7587L14.2621 37.3004L14.4126 37.0818ZM13.1708 39.1633L12.6063 37.1578V37.7091L13.1708 39.1633ZM13.0579 39.439L12.6157 38.2889V40.1898L13.0579 39.439ZM12.4088 37.1578V36.407L12.0419 35.0668L11.4398 34.5726L12.4088 37.1578ZM33.642 49.3428H29.8789L32.2778 51.3102L33.5008 51.5098V51.7094L32.6259 51.5668L33.4068 52.2132C33.4105 52.2892 33.4105 52.3653 33.4068 52.4413L32.259 51.4908L27.113 50.6639L26.9813 51.4623L33.2374 53.1826C33.181 53.3917 33.1245 53.6008 33.0587 53.8099L26.8778 52.1181V52.3177L32.8987 54.4277C32.8726 54.4928 32.8506 54.5594 32.8329 54.6273L26.7085 52.5363L26.558 53.4868L26.8214 53.7814L29.8412 55.3022L32.2967 55.7014L32.2026 55.8914L30.4433 55.6063L31.9862 56.3857C31.8921 56.5853 31.7886 56.7754 31.6946 56.9655L28.3172 55.2546H28.0538L28.129 55.3402L31.5158 57.3171C31.4123 57.5072 31.3088 57.6973 31.1959 57.8779L29.4273 56.8134L30.8196 58.4292L30.7067 58.6098L28.8911 56.4997L26.3416 54.998L26.1158 56.3762L30.0012 59.5697C29.9541 59.6173 29.9165 59.6743 29.8695 59.7313L26.0593 56.6138L25.8994 57.6688L28.9757 60.7768L28.5242 61.2425L25.7677 58.4672L25.6642 59.1515L27.9221 61.7938L27.7715 61.9269L25.6172 59.4177L25.0621 62.9439L25.4572 63.6187L25.2785 63.7233L25.0057 63.2575V63.5332L25.2221 63.7803L25.0433 63.8848L24.9586 63.7898V63.9419C24.8676 63.9982 24.7734 64.049 24.6764 64.0939L22.221 62.7063L23.0395 64.8543L22.8513 64.9208L21.9105 62.5542L21.2614 62.1835L22.0987 65.1775C21.6189 65.339 21.1579 65.4816 20.6217 65.5957L19.3611 61.1095L19.2482 61.0429L20.1889 65.7002H19.9914L19.0506 60.8719L17.1691 59.8074L17.2349 65.9854H16.9339V59.7028L15.4098 58.8379L14.2997 65.8048H14.1021L15.2217 58.7713L13.8764 58.011L13.0861 60.3301L13.1426 65.6147H12.945L12.8886 60.9479L11.4398 65.1775L11.2516 65.1109L12.8791 60.3586V58.6668L11.3739 60.5677L9.25718 64.1795C8.79874 63.9503 8.35281 63.6965 7.92129 63.4191L11.6279 56.7659L11.0258 56.4237L6.32198 62.3071L6.17145 62.1835L10.8753 56.3287L9.53941 55.5683L4.17702 60.2256L4.04531 60.064L9.35126 55.4637L7.83662 54.6083L5.80455 55.7679L3.68782 59.5697C3.32911 59.1271 2.99615 58.6637 2.6906 58.1821L3.15158 57.3552L2.446 57.7924L2.34252 57.6688L3.34914 57.0605L4.95786 54.1426L1.31708 55.5968C1.23241 55.3972 1.15715 55.1881 1.07248 54.9885L5.45647 53.2302L5.22128 53.0971L0.856101 54.3612C0.69617 53.867 0.555055 53.3727 0.442162 52.9165L3.33974 52.0706L2.96343 51.871L0.32927 52.3842C0.323942 52.3178 0.323942 52.2511 0.32927 52.1846L2.72823 51.7094L1.4676 50.9966L0.0846694 50.7304C0.0797671 50.6608 0.0797671 50.591 0.0846694 50.5213L0.931363 50.6639L0.0564462 50.1697C0.0521345 50.0874 0.0521345 50.0049 0.0564462 49.9226L1.52405 50.759L4.72267 51.2722L6.80177 50.8635L7.63906 49.3428H0C0 49.2287 0 49.1147 0 49.0006C0 48.8865 0 48.7915 0 48.6869H7.97773L8.307 48.0882L9.37948 48.6869H10.0851C10.0851 48.7915 10.0851 48.896 10.0851 49.0006C10.0851 49.1052 10.0851 49.2287 10.0851 49.3428H9.40771L8.74917 50.4548L10.1603 50.0651C10.252 50.6828 10.4294 51.2843 10.6872 51.852L9.96276 52.1371L10.9035 52.2892C10.96 52.3937 11.0258 52.4888 11.0917 52.5933L8.02477 54.4943L9.49237 55.3307L11.6656 53.4298C11.7044 53.4847 11.7485 53.5357 11.7973 53.5818L9.68053 55.4257L10.9882 56.1671L12.5028 54.2662C12.552 54.3125 12.6056 54.3539 12.6628 54.3897L11.1669 56.2906L11.7314 56.6138L12.8603 54.5798C13.2737 54.8867 13.7184 55.148 14.1868 55.3592L13.0767 57.3742L13.4342 57.5738L14.0645 56.7849L14.5161 55.4732L14.7042 55.5493L14.4408 56.3192L14.9865 55.6348L15.2029 55.6919L14.2621 56.8894L13.9328 57.8399L15.2499 58.5813L15.6638 55.7679H15.8708L15.4098 58.6193L16.8962 59.4557V55.8154H17.0938L17.1408 59.6173L18.9753 60.6628L18.3827 57.5738L17.8746 55.7679C18.3938 55.688 18.9021 55.5477 19.3893 55.3497L20.5182 58.3151L24.8175 63.3241L24.874 62.9819L20.1701 54.9695L20.3395 54.8649L24.921 62.6682L25.4761 59.2181L21.205 54.2376C21.4405 54.0361 21.6607 53.8169 21.8635 53.5818L22.3997 54.1236L23.1524 54.2376L22.0705 53.3537C22.1164 53.304 22.1574 53.2499 22.1928 53.1921L23.5193 54.2757L24.5165 54.4372L22.4562 52.7549C22.6438 52.45 22.8104 52.1325 22.9548 51.8045L26.3416 53.5343L24.9586 51.966L23.1712 51.3387C23.2662 51.0885 23.3417 50.831 23.397 50.5689L23.8673 50.6924L23.5193 50.1792C23.5193 50.0841 23.5193 49.9986 23.5193 49.9035L26.8496 50.4358L27.0189 49.3428H23.5193C23.5193 49.2287 23.5193 49.1147 23.5193 49.0006C23.5193 48.8865 23.5193 48.7915 23.5193 48.6869H27.0848L27.2823 47.5274L26.7743 47.1092L23.8768 47.689L23.444 47.8125C23.3497 47.252 23.1854 46.7059 22.9548 46.1872L24.7611 45.4649L23.8956 44.7615L22.6067 45.5314C22.5757 45.4723 22.5411 45.4152 22.5032 45.3603L23.7262 44.619L22.8513 43.9061L21.9952 44.6475C21.9564 44.5925 21.9123 44.5416 21.8635 44.4954L22.6914 43.7731L21.7506 42.9937L21.1391 43.7636L20.9792 43.64L21.5907 42.8701L21.2144 42.5565L20.697 43.4119C20.2788 43.1073 19.8274 42.8522 19.3516 42.6515L19.9726 41.53L19.5304 41.1688L19.06 42.547L18.8719 42.4804L19.3705 41.0357L18.345 40.2088L18.0063 42.2903H17.8088L18.1663 40.0853L16.8586 38.9922V42.1858H16.567L15.2969 40.6651L15.4663 41.549L15.6732 42.2903C15.1659 42.3734 14.6701 42.517 14.1962 42.7181L13.8105 41.3209L13.1143 42.5755L13.4342 43.1077L13.2649 43.2123L13.0014 42.7751L12.7098 43.2978V43.602L12.5028 43.7541V43.659L12.4558 43.7541C12.4033 43.7957 12.3531 43.8401 12.3053 43.8871L12.23 43.7921L12.0513 43.697L12.3053 43.9441C12.1453 44.0962 11.9854 44.2483 11.8443 44.4099L9.96276 42.5089L4.24288 37.7091L4.37458 37.557L8.40108 40.9407L4.70385 37.2149L5.16483 36.7587L11.2046 42.8416L11.2892 42.699L5.72929 36.2264L5.88922 36.0933L11.3927 42.5089L12.0983 41.2353L8.11885 34.4585L8.28819 34.354L12.23 41.0357L12.484 40.5605V37.7661L11.1481 34.316L10.0662 33.432L10.2732 33.337L10.9976 33.9358L10.706 33.1659L10.8941 33.0899L11.2892 34.1924L11.9478 34.7247L11.4492 32.8998C11.9329 32.7285 12.4261 32.5857 12.9262 32.4721L14.0269 36.4165L14.3185 36.6446L13.4812 32.339H13.6882L14.5537 36.8347L16.5952 33.1469V32.0063H16.7928V32.7572L17.2067 32.0063C17.7697 32.0188 18.3318 32.06 18.8907 32.1299L16.8304 35.8747V38.7261L18.1757 39.8286L19.3893 32.225H19.5868L18.3827 39.9712L19.4739 40.8646L22.2022 32.8998L22.3903 32.9663L19.6433 40.9977L20.1137 41.3874L24.3189 33.7837C24.7799 34.0213 25.2597 34.2684 25.6642 34.5441L21.3273 42.3759L21.7318 42.7085L27.3294 35.7322L27.4893 35.8557L21.8447 42.8416L22.7855 43.64L28.6465 38.536L28.8628 37.2244L29.0322 37.405L28.8911 38.3554L29.4367 37.8802L29.5684 38.0323L28.9193 38.6596L28.4207 41.7866L31.1583 40.1233C31.1962 40.1782 31.2308 40.2353 31.2618 40.2944L28.383 42.0527L28.0444 44.1723L32.3437 42.4614L32.5789 43.0697L27.875 44.9706L32.7012 43.5735C32.8611 44.0677 33.0022 44.5239 33.1245 45.0657L27.6587 46.5959V46.7385L33.3033 45.617C33.2988 45.6834 33.2988 45.7501 33.3033 45.8166L27.5552 46.9571L27.4705 47.4418L28.9945 48.6869H33.5949C33.5949 48.7915 33.5949 48.896 33.5949 49.0006C33.5949 49.1052 33.5949 49.2287 33.5949 49.3428H33.642ZM10.0757 47.9551L0.20697 46.3488C0.202503 46.2824 0.202503 46.2157 0.20697 46.1492L10.1509 47.7555V47.9551" fill="black"/>
</g>
<defs>
<clipPath id="clip0_280_37112">
<rect width="240" height="34" fill="white" transform="translate(0 32)"/>
</clipPath>
</defs>
</svg>
