<svg width="14" height="14" viewBox="0 0 14 14" fill="none" xmlns="http://www.w3.org/2000/svg">
<path d="M13.6667 10.28V12.28C13.6675 12.4657 13.6294 12.6494 13.555 12.8195C13.4807 12.9897 13.3716 13.1424 13.2348 13.2679C13.0979 13.3934 12.9364 13.489 12.7605 13.5485C12.5847 13.6079 12.3983 13.63 12.2134 13.6133C10.1619 13.3904 8.19137 12.6894 6.46004 11.5666C4.84926 10.5431 3.48359 9.17743 2.46004 7.56665C1.33336 5.82745 0.632199 3.84731 0.41337 1.78665C0.39671 1.60229 0.41862 1.41649 0.477704 1.24107C0.536787 1.06564 0.631751 0.904443 0.756547 0.767731C0.881344 0.631019 1.03324 0.521789 1.20256 0.446998C1.37189 0.372206 1.55493 0.333491 1.74004 0.333317H3.74004C4.06357 0.330132 4.37723 0.444702 4.62254 0.655672C4.86786 0.866641 5.02809 1.15961 5.07337 1.47998C5.15779 2.12003 5.31434 2.74847 5.54004 3.35332C5.62973 3.59193 5.64915 3.85126 5.59597 4.10057C5.5428 4.34988 5.41928 4.57872 5.24004 4.75998L4.39337 5.60665C5.34241 7.27568 6.72434 8.65761 8.39337 9.60665L9.24004 8.75998C9.4213 8.58074 9.65014 8.45722 9.89945 8.40405C10.1488 8.35087 10.4081 8.37029 10.6467 8.45998C11.2516 8.68568 11.88 8.84223 12.52 8.92665C12.8439 8.97234 13.1396 9.13545 13.3511 9.38498C13.5625 9.63451 13.6748 9.95303 13.6667 10.28Z" fill="white"/>
</svg>
