<svg width="17" height="16" viewBox="0 0 17 16" fill="none" xmlns="http://www.w3.org/2000/svg">
<path d="M15.1667 11.28V13.28C15.1675 13.4657 15.1294 13.6494 15.055 13.8195C14.9807 13.9897 14.8716 14.1424 14.7348 14.2679C14.5979 14.3934 14.4364 14.489 14.2605 14.5485C14.0847 14.6079 13.8983 14.63 13.7134 14.6133C11.6619 14.3904 9.69137 13.6894 7.96004 12.5666C6.34926 11.5431 4.98359 10.1774 3.96004 8.56665C2.83336 6.82745 2.1322 4.84731 1.91337 2.78665C1.89671 2.60229 1.91862 2.41649 1.9777 2.24107C2.03679 2.06564 2.13175 1.90444 2.25655 1.76773C2.38134 1.63102 2.53324 1.52179 2.70256 1.447C2.87189 1.37221 3.05493 1.33349 3.24004 1.33332H5.24004C5.56357 1.33013 5.87723 1.4447 6.12254 1.65567C6.36786 1.86664 6.52809 2.15961 6.57337 2.47998C6.65779 3.12003 6.81434 3.74847 7.04004 4.35332C7.12973 4.59193 7.14915 4.85126 7.09597 5.10057C7.0428 5.34988 6.91928 5.57872 6.74004 5.75998L5.89337 6.60665C6.84241 8.27568 8.22434 9.65761 9.89337 10.6066L10.74 9.75998C10.9213 9.58074 11.1501 9.45722 11.3995 9.40405C11.6488 9.35087 11.9081 9.37029 12.1467 9.45998C12.7516 9.68568 13.38 9.84223 14.02 9.92665C14.3439 9.97234 14.6396 10.1355 14.8511 10.385C15.0625 10.6345 15.1748 10.953 15.1667 11.28Z" fill="#009FE3"/>
</svg>
